<svg width="23" height="23" viewBox="0 0 23 23" fill="none" xmlns="http://www.w3.org/2000/svg">
<path d="M13.6427 13.0545L10.4397 10.7388V5.17969C10.4397 5.08086 10.3589 5 10.2601 5H9.17969C9.08086 5 9 5.08086 9 5.17969V11.3654C9 11.4238 9.02695 11.4777 9.07412 11.5114L12.7892 14.2202C12.87 14.2786 12.9823 14.2606 13.0407 14.182L13.6831 13.3061C13.7415 13.2229 13.7235 13.1106 13.6427 13.0545Z" fill="#D2D7D1"/>
<path d="M11.0625 0C5.50566 0 1 4.50566 1 10.0625C1 15.6193 5.50566 20.125 11.0625 20.125C16.6193 20.125 21.125 15.6193 21.125 10.0625C21.125 4.50566 16.6193 0 11.0625 0ZM11.0625 18.418C6.44902 18.418 2.70703 14.676 2.70703 10.0625C2.70703 5.44902 6.44902 1.70703 11.0625 1.70703C15.676 1.70703 19.418 5.44902 19.418 10.0625C19.418 14.676 15.676 18.418 11.0625 18.418Z" fill="#D2D7D1"/>
</svg>
