<svg width="458" height="75" viewBox="0 0 458 75" fill="none" xmlns="http://www.w3.org/2000/svg">
<path d="M243.125 70C243.047 70 242.982 69.9531 242.93 69.8594C242.883 69.7656 242.859 69.6797 242.859 69.6016C242.859 69.513 242.878 69.4453 242.914 69.3984C242.951 69.3516 243.018 69.3229 243.117 69.3125C243.43 69.2865 243.695 69.237 243.914 69.1641C244.138 69.0859 244.25 68.9688 244.25 68.8125L244.258 60.3594C244.258 60.151 244.195 59.9948 244.07 59.8906C243.951 59.7865 243.812 59.7188 243.656 59.6875C243.5 59.651 243.305 59.6224 243.07 59.6016C242.956 59.5911 242.88 59.5703 242.844 59.5391C242.807 59.5026 242.789 59.4271 242.789 59.3125C242.789 59.2344 242.812 59.1484 242.859 59.0547C242.911 58.9609 242.977 58.9141 243.055 58.9141H248.016C248.094 58.9141 248.156 58.9609 248.203 59.0547C248.255 59.1484 248.281 59.2344 248.281 59.3125C248.281 59.401 248.263 59.4688 248.227 59.5156C248.19 59.5625 248.122 59.5911 248.023 59.6016C247.268 59.6589 246.891 59.8255 246.891 60.1016L246.883 68.5547C246.883 68.763 246.943 68.9193 247.062 69.0234C247.188 69.1276 247.328 69.1979 247.484 69.2344C247.641 69.2656 247.836 69.2917 248.07 69.3125C248.185 69.3229 248.26 69.3464 248.297 69.3828C248.333 69.4141 248.352 69.487 248.352 69.6016C248.352 69.6797 248.326 69.7656 248.273 69.8594C248.227 69.9531 248.164 70 248.086 70H243.125ZM249.184 70C249.106 70 249.041 69.9531 248.989 69.8594C248.942 69.7656 248.919 69.6797 248.919 69.6016C248.919 69.513 248.937 69.4453 248.973 69.3984C249.01 69.3516 249.078 69.3229 249.177 69.3125C249.458 69.2969 249.69 69.2708 249.872 69.2344C250.054 69.1979 250.21 69.1276 250.341 69.0234C250.476 68.9193 250.544 68.7656 250.544 68.5625V60.3594C250.544 60.151 250.471 59.9948 250.325 59.8906C250.184 59.7865 250.02 59.7188 249.833 59.6875C249.645 59.651 249.411 59.6224 249.13 59.6016C249.015 59.5911 248.94 59.5703 248.903 59.5391C248.867 59.5026 248.848 59.4271 248.848 59.3125C248.848 59.2344 248.872 59.151 248.919 59.0625C248.971 58.9688 249.036 58.9193 249.114 58.9141H254.114V58.9531L256.731 66.2344L259.231 59.6016C259.262 59.5234 259.291 59.4089 259.317 59.2578C259.348 59.1068 259.364 58.9922 259.364 58.9141H263.872C263.95 58.9141 264.012 58.9609 264.059 59.0547C264.111 59.1484 264.137 59.2344 264.137 59.3125C264.137 59.401 264.119 59.4688 264.083 59.5156C264.046 59.5625 263.979 59.5911 263.88 59.6016C263.124 59.6589 262.747 59.8255 262.747 60.1016V68.5547C262.747 68.763 262.807 68.9193 262.927 69.0234C263.046 69.1224 263.177 69.1875 263.317 69.2188C263.458 69.25 263.661 69.2812 263.927 69.3125C264.041 69.3229 264.117 69.3464 264.153 69.3828C264.19 69.4141 264.208 69.487 264.208 69.6016C264.208 69.6797 264.182 69.7656 264.13 69.8594C264.083 69.9531 264.02 70 263.942 70H258.903C258.825 70 258.76 69.9531 258.708 69.8594C258.661 69.7656 258.637 69.6797 258.637 69.6016C258.637 69.513 258.656 69.4453 258.692 69.3984C258.729 69.3516 258.796 69.3229 258.895 69.3125C259.223 69.2865 259.507 69.2344 259.747 69.1562C259.986 69.0781 260.106 68.9635 260.106 68.8125V59.9922H259.887L256.137 70H255.692L251.598 59.9922H251.302V68.5547C251.302 68.7578 251.38 68.9141 251.536 69.0234C251.692 69.1276 251.869 69.1979 252.067 69.2344C252.265 69.2656 252.51 69.2917 252.802 69.3125C252.916 69.3229 252.992 69.3464 253.028 69.3828C253.065 69.4141 253.083 69.487 253.083 69.6016C253.083 69.6797 253.057 69.7656 253.005 69.8594C252.958 69.9531 252.895 70 252.817 70H249.184ZM265.119 70C265.041 70 264.976 69.9531 264.923 69.8594C264.877 69.7656 264.853 69.6797 264.853 69.6016C264.853 69.513 264.871 69.4453 264.908 69.3984C264.944 69.3516 265.012 69.3229 265.111 69.3125C265.772 69.2604 266.103 69.0938 266.103 68.8125V60.3594C266.103 60.151 266.048 59.9948 265.939 59.8906C265.83 59.7865 265.705 59.7214 265.564 59.6953C265.429 59.6641 265.236 59.6328 264.986 59.6016C264.871 59.5911 264.796 59.5703 264.759 59.5391C264.723 59.5026 264.705 59.4271 264.705 59.3125C264.705 59.2344 264.728 59.1484 264.775 59.0547C264.827 58.9609 264.892 58.9141 264.97 58.9141H267.275C267.712 58.9141 268.306 58.8984 269.056 58.8672C269.702 58.8464 270.145 58.8359 270.384 58.8359C273.265 58.8359 274.705 59.9271 274.705 62.1094C274.705 62.8281 274.543 63.4531 274.22 63.9844C273.897 64.5104 273.395 64.9219 272.712 65.2188C272.035 65.5156 271.181 65.6641 270.15 65.6641H268.72V68.5547C268.72 68.7578 268.819 68.9141 269.017 69.0234C269.22 69.1276 269.436 69.1979 269.666 69.2344C269.9 69.2656 270.189 69.2917 270.533 69.3125C270.647 69.3229 270.723 69.3464 270.759 69.3828C270.796 69.4141 270.814 69.487 270.814 69.6016C270.814 69.6797 270.788 69.7656 270.736 69.8594C270.689 69.9531 270.627 70 270.548 70H265.119ZM269.58 64.9141C270.231 64.9141 270.767 64.7135 271.189 64.3125C271.616 63.9115 271.83 63.2318 271.83 62.2734C271.83 61.5703 271.746 61.026 271.58 60.6406C271.418 60.25 271.176 59.9792 270.853 59.8281C270.53 59.6719 270.106 59.5938 269.58 59.5938H268.72V64.9141H269.58ZM280.889 70.2266C279.717 70.2266 278.691 69.9688 277.811 69.4531C276.931 68.9323 276.254 68.2292 275.78 67.3438C275.311 66.4583 275.077 65.4792 275.077 64.4062C275.077 63.3333 275.311 62.362 275.78 61.4922C276.248 60.6224 276.923 59.9375 277.803 59.4375C278.683 58.9323 279.712 58.6797 280.889 58.6797C282.066 58.6797 283.095 58.9323 283.975 59.4375C284.855 59.9375 285.53 60.6224 285.998 61.4922C286.472 62.362 286.709 63.3333 286.709 64.4062C286.709 65.4792 286.472 66.4583 285.998 67.3438C285.524 68.2292 284.847 68.9323 283.967 69.4531C283.087 69.9688 282.061 70.2266 280.889 70.2266ZM280.92 69.4922C281.879 69.4922 282.584 69.0547 283.037 68.1797C283.491 67.2995 283.717 66.0469 283.717 64.4219C283.717 62.8073 283.483 61.5677 283.014 60.7031C282.551 59.8385 281.837 59.4062 280.873 59.4062C279.91 59.4062 279.199 59.8385 278.741 60.7031C278.287 61.5625 278.061 62.8021 278.061 64.4219C278.061 66.0365 278.295 67.2865 278.764 68.1719C279.238 69.0521 279.957 69.4922 280.92 69.4922ZM287.784 70C287.706 70 287.641 69.9531 287.589 69.8594C287.542 69.7656 287.519 69.6797 287.519 69.6016C287.519 69.513 287.537 69.4453 287.573 69.3984C287.61 69.3516 287.678 69.3229 287.777 69.3125C288.485 69.2552 288.839 69.0885 288.839 68.8125L288.847 60.3594C288.847 60.151 288.792 59.9948 288.683 59.8906C288.573 59.7865 288.448 59.7214 288.308 59.6953C288.172 59.6641 287.98 59.6328 287.73 59.6016C287.615 59.5911 287.54 59.5703 287.503 59.5391C287.467 59.5026 287.448 59.4271 287.448 59.3125C287.448 59.2344 287.472 59.1484 287.519 59.0547C287.571 58.9609 287.636 58.9141 287.714 58.9141L288.566 58.9062C288.706 58.901 288.92 58.8984 289.206 58.8984C289.487 58.8984 290.008 58.888 290.769 58.8672C291.654 58.8464 292.368 58.8359 292.909 58.8359C294.347 58.8359 295.446 59.0781 296.206 59.5625C296.972 60.0469 297.355 60.7917 297.355 61.7969C297.355 62.4531 297.224 62.987 296.964 63.3984C296.704 63.8099 296.368 64.125 295.956 64.3438C295.55 64.5625 295.063 64.7448 294.495 64.8906C294.964 64.9375 295.344 65.0651 295.636 65.2734C295.933 65.4818 296.165 65.7266 296.331 66.0078C296.498 66.2891 296.683 66.6693 296.886 67.1484C297.021 67.4557 297.128 67.6979 297.206 67.875C297.29 68.0469 297.386 68.2188 297.495 68.3906C297.662 68.7083 297.831 68.9349 298.003 69.0703C298.18 69.2057 298.376 69.2839 298.589 69.3047C298.698 69.3151 298.771 69.3438 298.808 69.3906C298.849 69.4375 298.87 69.5208 298.87 69.6406C298.87 69.7135 298.844 69.7917 298.792 69.875C298.745 69.9583 298.683 70 298.605 70H295.941C295.665 70 295.43 69.8984 295.237 69.6953C295.045 69.4922 294.886 69.2422 294.761 68.9453C294.641 68.6484 294.501 68.2422 294.339 67.7266C294.162 67.1536 294.001 66.6953 293.855 66.3516C293.709 66.0078 293.511 65.7161 293.261 65.4766C293.016 65.237 292.711 65.1172 292.347 65.1172H291.417V68.5547C291.417 68.763 291.482 68.9219 291.612 69.0312C291.743 69.1354 291.896 69.2031 292.073 69.2344C292.251 69.2656 292.474 69.2917 292.745 69.3125C292.86 69.3229 292.935 69.3464 292.972 69.3828C293.008 69.4141 293.027 69.487 293.027 69.6016C293.027 69.6797 293.001 69.7656 292.948 69.8594C292.902 69.9531 292.839 70 292.761 70H287.784ZM292.542 64.4453C293.235 64.4453 293.766 64.263 294.136 63.8984C294.511 63.5286 294.698 62.9089 294.698 62.0391C294.698 61.2318 294.519 60.6224 294.159 60.2109C293.805 59.7995 293.258 59.5938 292.519 59.5938H291.417V64.4453H292.542ZM301.234 70C301.156 70 301.091 69.9531 301.039 69.8594C300.992 69.7656 300.969 69.6797 300.969 69.6016C300.969 69.513 300.987 69.4453 301.023 69.3984C301.06 69.3516 301.128 69.3229 301.227 69.3125C301.701 69.2865 302.086 69.224 302.383 69.125C302.685 69.0208 302.836 68.8385 302.836 68.5781V59.6875H300.883C300.612 59.6875 300.388 59.8464 300.211 60.1641C300.039 60.4766 299.911 60.8255 299.828 61.2109C299.75 61.5964 299.701 61.9245 299.68 62.1953C299.669 62.2839 299.617 62.349 299.523 62.3906C299.435 62.4323 299.339 62.4531 299.234 62.4531C299.156 62.4531 299.07 62.4297 298.977 62.3828C298.883 62.3307 298.836 62.2656 298.836 62.1875C298.862 61.4062 298.893 60.6667 298.93 59.9688C298.971 59.2656 299.018 58.9141 299.07 58.9141H309.125C309.177 58.9141 309.221 59.2656 309.258 59.9688C309.299 60.6667 309.333 61.4062 309.359 62.1875C309.359 62.2656 309.312 62.3307 309.219 62.3828C309.125 62.4297 309.039 62.4531 308.961 62.4531C308.857 62.4531 308.758 62.4323 308.664 62.3906C308.576 62.349 308.526 62.2839 308.516 62.1953C308.453 61.6328 308.333 61.0755 308.156 60.5234C307.979 59.9661 307.698 59.6875 307.312 59.6875H305.461V68.5547C305.461 68.763 305.542 68.9193 305.703 69.0234C305.865 69.1276 306.049 69.1979 306.258 69.2344C306.466 69.2656 306.727 69.2917 307.039 69.3125C307.154 69.3229 307.229 69.3464 307.266 69.3828C307.302 69.4141 307.32 69.487 307.32 69.6016C307.32 69.6797 307.294 69.7656 307.242 69.8594C307.195 69.9531 307.133 70 307.055 70H301.234ZM312.9 69.6016C312.9 69.513 312.918 69.4453 312.955 69.3984C312.991 69.3516 313.059 69.3229 313.158 69.3125C313.47 69.2865 313.739 69.237 313.963 69.1641C314.186 69.0859 314.298 68.9688 314.298 68.8125V60.3594C314.298 60.1562 314.239 60.0026 314.119 59.8984C313.999 59.7943 313.866 59.7266 313.72 59.6953C313.58 59.6641 313.377 59.6328 313.111 59.6016C312.996 59.5911 312.921 59.5703 312.884 59.5391C312.848 59.5026 312.83 59.4271 312.83 59.3125C312.83 59.2344 312.853 59.1484 312.9 59.0547C312.952 58.9609 313.017 58.9141 313.095 58.9141H322.15L322.423 61.4531C322.429 61.5312 322.39 61.5964 322.306 61.6484C322.223 61.6953 322.142 61.7188 322.064 61.7188C321.783 61.7188 321.595 61.6328 321.502 61.4609C321.434 61.3307 321.324 61.112 321.173 60.8047C321.028 60.5026 320.908 60.2812 320.814 60.1406C320.726 59.9948 320.614 59.8828 320.478 59.8047C320.348 59.7266 320.176 59.6875 319.963 59.6875H316.908V63.9219H318.994C319.119 63.9062 319.239 63.8151 319.353 63.6484C319.468 63.4818 319.564 63.2943 319.642 63.0859C319.72 62.8724 319.767 62.7057 319.783 62.5859C319.804 62.4193 319.923 62.3359 320.142 62.3359C320.22 62.3359 320.311 62.362 320.416 62.4141C320.52 62.4609 320.572 62.5234 320.572 62.6016V66.0625C320.572 66.1406 320.52 66.2057 320.416 66.2578C320.311 66.3047 320.22 66.3281 320.142 66.3281C320.043 66.3281 319.957 66.3099 319.884 66.2734C319.811 66.2318 319.77 66.1641 319.759 66.0703C319.749 65.9401 319.705 65.763 319.627 65.5391C319.548 65.3099 319.449 65.1094 319.33 64.9375C319.21 64.7604 319.082 64.6719 318.947 64.6719H316.908V68.4609C316.908 68.9193 317.145 69.1693 317.619 69.2109H319.877C320.189 69.2109 320.46 69.1432 320.689 69.0078C320.923 68.8724 321.142 68.6536 321.345 68.3516C321.554 68.0495 321.783 67.6276 322.033 67.0859C322.069 67.0026 322.142 66.9401 322.252 66.8984C322.361 66.8516 322.465 66.8281 322.564 66.8281C322.673 66.8281 322.778 66.8516 322.877 66.8984C322.981 66.9453 323.038 67.0104 323.048 67.0938L322.736 70H313.166C313.088 70 313.022 69.9531 312.97 69.8594C312.923 69.7656 312.9 69.6797 312.9 69.6016ZM323.327 70C323.248 70 323.183 69.9531 323.131 69.8594C323.084 69.7656 323.061 69.6797 323.061 69.6016C323.061 69.487 323.079 69.4141 323.116 69.3828C323.152 69.3464 323.228 69.3229 323.342 69.3125C323.644 69.2812 323.907 69.2292 324.131 69.1562C324.355 69.0833 324.564 68.9349 324.756 68.7109L328.045 64.8672L324.639 60.2031C324.488 59.9688 324.308 59.8177 324.1 59.75C323.892 59.6771 323.644 59.6328 323.358 59.6172L323.186 59.6016C323.071 59.5911 322.996 59.5703 322.959 59.5391C322.923 59.5026 322.905 59.4271 322.905 59.3125C322.905 59.2344 322.928 59.1484 322.975 59.0547C323.027 58.9609 323.092 58.9141 323.17 58.9141H328.6C328.678 58.9141 328.741 58.9609 328.787 59.0547C328.84 59.1484 328.866 59.2344 328.866 59.3125C328.866 59.401 328.847 59.4688 328.811 59.5156C328.774 59.5625 328.707 59.5911 328.608 59.6016C328.285 59.6172 328.043 59.6354 327.881 59.6562C327.725 59.6771 327.616 59.7083 327.553 59.75C327.491 59.7917 327.459 59.849 327.459 59.9219C327.459 59.9479 327.472 59.9818 327.498 60.0234L329.795 63.1953L332.084 60.1797C332.121 60.1276 332.139 60.0755 332.139 60.0234C332.139 59.9089 332.048 59.8151 331.866 59.7422C331.683 59.6641 331.449 59.6172 331.162 59.6016C331.064 59.5911 330.996 59.5625 330.959 59.5156C330.923 59.4688 330.905 59.401 330.905 59.3125C330.905 59.2344 330.928 59.1484 330.975 59.0547C331.027 58.9609 331.092 58.9141 331.17 58.9141H334.725C334.803 58.9141 334.866 58.9609 334.912 59.0547C334.965 59.1484 334.991 59.2344 334.991 59.3125C334.991 59.4271 334.972 59.5026 334.936 59.5391C334.899 59.5703 334.824 59.5911 334.709 59.6016C334.662 59.6068 334.54 59.6172 334.342 59.6328C334.149 59.6484 333.959 59.7031 333.772 59.7969C333.59 59.8854 333.431 60.0208 333.295 60.2031L330.264 63.8594L333.92 68.7109C334.071 68.9453 334.246 69.099 334.444 69.1719C334.647 69.2396 334.886 69.2812 335.162 69.2969L335.334 69.3125C335.449 69.3229 335.524 69.3464 335.561 69.3828C335.597 69.4141 335.616 69.487 335.616 69.6016C335.616 69.6797 335.59 69.7656 335.537 69.8594C335.491 69.9531 335.428 70 335.35 70H329.842C329.764 70 329.699 69.9531 329.647 69.8594C329.6 69.7656 329.577 69.6797 329.577 69.6016C329.577 69.513 329.595 69.4453 329.631 69.3984C329.668 69.3516 329.735 69.3229 329.834 69.3125C330.194 69.3229 330.485 69.3073 330.709 69.2656C330.939 69.2188 331.053 69.1536 331.053 69.0703C331.053 69.0182 331.037 68.9635 331.006 68.9062C330.98 68.849 330.933 68.7708 330.866 68.6719L328.491 65.4688L325.983 68.7344C325.952 68.7812 325.936 68.8255 325.936 68.8672C325.936 68.987 326.043 69.0885 326.256 69.1719C326.475 69.25 326.743 69.2969 327.061 69.3125C327.16 69.3229 327.228 69.3516 327.264 69.3984C327.301 69.4453 327.319 69.513 327.319 69.6016C327.319 69.6797 327.293 69.7656 327.241 69.8594C327.194 69.9531 327.131 70 327.053 70H323.327ZM336.128 70C336.05 70 335.985 69.9531 335.933 69.8594C335.886 69.7656 335.863 69.6797 335.863 69.6016C335.863 69.513 335.881 69.4453 335.917 69.3984C335.954 69.3516 336.021 69.3229 336.12 69.3125C336.782 69.2604 337.113 69.0938 337.113 68.8125V60.3594C337.113 60.151 337.058 59.9948 336.948 59.8906C336.839 59.7865 336.714 59.7214 336.573 59.6953C336.438 59.6641 336.245 59.6328 335.995 59.6016C335.881 59.5911 335.805 59.5703 335.769 59.5391C335.732 59.5026 335.714 59.4271 335.714 59.3125C335.714 59.2344 335.738 59.1484 335.784 59.0547C335.836 58.9609 335.902 58.9141 335.98 58.9141H338.284C338.722 58.9141 339.316 58.8984 340.066 58.8672C340.711 58.8464 341.154 58.8359 341.394 58.8359C344.274 58.8359 345.714 59.9271 345.714 62.1094C345.714 62.8281 345.553 63.4531 345.23 63.9844C344.907 64.5104 344.404 64.9219 343.722 65.2188C343.045 65.5156 342.191 65.6641 341.159 65.6641H339.73V68.5547C339.73 68.7578 339.829 68.9141 340.027 69.0234C340.23 69.1276 340.446 69.1979 340.675 69.2344C340.909 69.2656 341.198 69.2917 341.542 69.3125C341.657 69.3229 341.732 69.3464 341.769 69.3828C341.805 69.4141 341.823 69.487 341.823 69.6016C341.823 69.6797 341.797 69.7656 341.745 69.8594C341.698 69.9531 341.636 70 341.558 70H336.128ZM340.589 64.9141C341.24 64.9141 341.777 64.7135 342.198 64.3125C342.626 63.9115 342.839 63.2318 342.839 62.2734C342.839 61.5703 342.756 61.026 342.589 60.6406C342.428 60.25 342.185 59.9792 341.863 59.8281C341.54 59.6719 341.115 59.5938 340.589 59.5938H339.73V64.9141H340.589ZM351.898 70.2266C350.727 70.2266 349.701 69.9688 348.82 69.4531C347.94 68.9323 347.263 68.2292 346.789 67.3438C346.32 66.4583 346.086 65.4792 346.086 64.4062C346.086 63.3333 346.32 62.362 346.789 61.4922C347.258 60.6224 347.932 59.9375 348.812 59.4375C349.693 58.9323 350.721 58.6797 351.898 58.6797C353.076 58.6797 354.104 58.9323 354.984 59.4375C355.865 59.9375 356.539 60.6224 357.008 61.4922C357.482 62.362 357.719 63.3333 357.719 64.4062C357.719 65.4792 357.482 66.4583 357.008 67.3438C356.534 68.2292 355.857 68.9323 354.977 69.4531C354.096 69.9688 353.07 70.2266 351.898 70.2266ZM351.93 69.4922C352.888 69.4922 353.594 69.0547 354.047 68.1797C354.5 67.2995 354.727 66.0469 354.727 64.4219C354.727 62.8073 354.492 61.5677 354.023 60.7031C353.56 59.8385 352.846 59.4062 351.883 59.4062C350.919 59.4062 350.208 59.8385 349.75 60.7031C349.297 61.5625 349.07 62.8021 349.07 64.4219C349.07 66.0365 349.305 67.2865 349.773 68.1719C350.247 69.0521 350.966 69.4922 351.93 69.4922ZM358.794 70C358.716 70 358.651 69.9531 358.598 69.8594C358.552 69.7656 358.528 69.6797 358.528 69.6016C358.528 69.513 358.546 69.4453 358.583 69.3984C358.619 69.3516 358.687 69.3229 358.786 69.3125C359.494 69.2552 359.848 69.0885 359.848 68.8125L359.856 60.3594C359.856 60.151 359.802 59.9948 359.692 59.8906C359.583 59.7865 359.458 59.7214 359.317 59.6953C359.182 59.6641 358.989 59.6328 358.739 59.6016C358.624 59.5911 358.549 59.5703 358.512 59.5391C358.476 59.5026 358.458 59.4271 358.458 59.3125C358.458 59.2344 358.481 59.1484 358.528 59.0547C358.58 58.9609 358.645 58.9141 358.723 58.9141L359.575 58.9062C359.716 58.901 359.929 58.8984 360.216 58.8984C360.497 58.8984 361.018 58.888 361.778 58.8672C362.664 58.8464 363.377 58.8359 363.919 58.8359C365.356 58.8359 366.455 59.0781 367.216 59.5625C367.981 60.0469 368.364 60.7917 368.364 61.7969C368.364 62.4531 368.234 62.987 367.973 63.3984C367.713 63.8099 367.377 64.125 366.966 64.3438C366.559 64.5625 366.072 64.7448 365.505 64.8906C365.973 64.9375 366.354 65.0651 366.645 65.2734C366.942 65.4818 367.174 65.7266 367.341 66.0078C367.507 66.2891 367.692 66.6693 367.895 67.1484C368.031 67.4557 368.137 67.6979 368.216 67.875C368.299 68.0469 368.395 68.2188 368.505 68.3906C368.671 68.7083 368.841 68.9349 369.012 69.0703C369.19 69.2057 369.385 69.2839 369.598 69.3047C369.708 69.3151 369.781 69.3438 369.817 69.3906C369.859 69.4375 369.88 69.5208 369.88 69.6406C369.88 69.7135 369.854 69.7917 369.802 69.875C369.755 69.9583 369.692 70 369.614 70H366.95C366.674 70 366.44 69.8984 366.247 69.6953C366.054 69.4922 365.895 69.2422 365.77 68.9453C365.651 68.6484 365.51 68.2422 365.348 67.7266C365.171 67.1536 365.01 66.6953 364.864 66.3516C364.718 66.0078 364.52 65.7161 364.27 65.4766C364.026 65.237 363.721 65.1172 363.356 65.1172H362.427V68.5547C362.427 68.763 362.492 68.9219 362.622 69.0312C362.752 69.1354 362.906 69.2031 363.083 69.2344C363.26 69.2656 363.484 69.2917 363.755 69.3125C363.869 69.3229 363.945 69.3464 363.981 69.3828C364.018 69.4141 364.036 69.487 364.036 69.6016C364.036 69.6797 364.01 69.7656 363.958 69.8594C363.911 69.9531 363.848 70 363.77 70H358.794ZM363.552 64.4453C364.244 64.4453 364.776 64.263 365.145 63.8984C365.52 63.5286 365.708 62.9089 365.708 62.0391C365.708 61.2318 365.528 60.6224 365.169 60.2109C364.815 59.7995 364.268 59.5938 363.528 59.5938H362.427V64.4453H363.552ZM372.244 70C372.166 70 372.101 69.9531 372.048 69.8594C372.002 69.7656 371.978 69.6797 371.978 69.6016C371.978 69.513 371.996 69.4453 372.033 69.3984C372.069 69.3516 372.137 69.3229 372.236 69.3125C372.71 69.2865 373.095 69.224 373.392 69.125C373.694 69.0208 373.845 68.8385 373.845 68.5781V59.6875H371.892C371.621 59.6875 371.397 59.8464 371.22 60.1641C371.048 60.4766 370.921 60.8255 370.838 61.2109C370.759 61.5964 370.71 61.9245 370.689 62.1953C370.679 62.2839 370.627 62.349 370.533 62.3906C370.444 62.4323 370.348 62.4531 370.244 62.4531C370.166 62.4531 370.08 62.4297 369.986 62.3828C369.892 62.3307 369.845 62.2656 369.845 62.1875C369.871 61.4062 369.903 60.6667 369.939 59.9688C369.981 59.2656 370.028 58.9141 370.08 58.9141H380.134C380.186 58.9141 380.231 59.2656 380.267 59.9688C380.309 60.6667 380.343 61.4062 380.369 62.1875C380.369 62.2656 380.322 62.3307 380.228 62.3828C380.134 62.4297 380.048 62.4531 379.97 62.4531C379.866 62.4531 379.767 62.4323 379.673 62.3906C379.585 62.349 379.535 62.2839 379.525 62.1953C379.463 61.6328 379.343 61.0755 379.166 60.5234C378.989 59.9661 378.707 59.6875 378.322 59.6875H376.47V68.5547C376.47 68.763 376.551 68.9193 376.713 69.0234C376.874 69.1276 377.059 69.1979 377.267 69.2344C377.476 69.2656 377.736 69.2917 378.048 69.3125C378.163 69.3229 378.239 69.3464 378.275 69.3828C378.311 69.4141 378.33 69.487 378.33 69.6016C378.33 69.6797 378.304 69.7656 378.252 69.8594C378.205 69.9531 378.142 70 378.064 70H372.244ZM387.464 70.2344C386.662 70.2344 385.951 70.1172 385.331 69.8828C384.711 69.6432 384.227 69.2943 383.878 68.8359C383.529 68.3724 383.355 67.8203 383.355 67.1797C383.355 66.6901 383.48 66.2422 383.73 65.8359C383.98 65.4245 384.318 65.0703 384.745 64.7734C385.178 64.4766 385.665 64.2448 386.206 64.0781C385.779 63.6042 385.446 63.138 385.206 62.6797C384.972 62.2161 384.855 61.7292 384.855 61.2188C384.855 60.6562 385.019 60.1797 385.347 59.7891C385.675 59.3932 386.105 59.099 386.636 58.9062C387.167 58.7083 387.74 58.6094 388.355 58.6094C389.396 58.6094 390.175 58.7969 390.691 59.1719C391.211 59.5469 391.472 60.0885 391.472 60.7969C391.472 61.2031 391.352 61.5807 391.113 61.9297C390.873 62.2734 390.581 62.5781 390.238 62.8438C389.894 63.1042 389.485 63.3776 389.011 63.6641L391.972 66.7812C392.409 66.026 392.639 65.4427 392.659 65.0312C392.685 64.6198 392.698 64.4062 392.698 64.3906C392.709 63.9583 392.31 63.6979 391.503 63.6094C391.404 63.599 391.339 63.5703 391.308 63.5234C391.282 63.4714 391.269 63.3932 391.269 63.2891C391.269 63.2109 391.292 63.1432 391.339 63.0859C391.386 63.0286 391.448 63 391.527 63H395.066C395.149 63 395.214 63.0312 395.261 63.0938C395.308 63.1562 395.334 63.2318 395.339 63.3203C395.329 63.513 395.24 63.6094 395.073 63.6094C394.844 63.6094 394.628 63.6849 394.425 63.8359C394.227 63.9818 394.084 64.1849 393.995 64.4453C393.855 64.8724 393.73 65.2266 393.62 65.5078C393.516 65.7891 393.365 66.0964 393.167 66.4297C392.974 66.7578 392.738 67.0443 392.456 67.2891L393.488 68.3438C393.748 68.6042 394.037 68.8385 394.355 69.0469C394.678 69.25 394.998 69.3646 395.316 69.3906C395.43 69.401 395.506 69.4245 395.542 69.4609C395.579 69.4922 395.597 69.5651 395.597 69.6797C395.597 69.763 395.573 69.8385 395.527 69.9062C395.48 69.9688 395.415 70 395.331 70H391.683L390.714 68.9922C390.282 69.3516 389.774 69.6484 389.191 69.8828C388.613 70.1172 388.037 70.2344 387.464 70.2344ZM388.425 63.0312C388.951 62.7604 389.305 62.4271 389.488 62.0312C389.675 61.6302 389.769 61.2318 389.769 60.8359C389.769 60.638 389.719 60.4193 389.62 60.1797C389.527 59.9401 389.386 59.7344 389.198 59.5625C389.016 59.3906 388.795 59.3047 388.534 59.3047C388.097 59.3047 387.771 59.4089 387.558 59.6172C387.344 59.8255 387.238 60.1406 387.238 60.5625C387.238 60.9115 387.282 61.2188 387.37 61.4844C387.464 61.7448 387.586 61.9792 387.738 62.1875C387.889 62.3958 388.118 62.6771 388.425 63.0312ZM388.261 68.9062C388.626 68.9062 388.985 68.8672 389.339 68.7891C389.698 68.7057 389.995 68.5859 390.23 68.4297L386.886 64.8203C386.62 65.0339 386.415 65.2891 386.269 65.5859C386.123 65.8828 386.05 66.2474 386.05 66.6797C386.05 67.1432 386.141 67.5417 386.323 67.875C386.511 68.2083 386.769 68.4635 387.097 68.6406C387.43 68.8177 387.818 68.9062 388.261 68.9062ZM403.848 70.2344C403.348 70.2344 402.903 70.1849 402.512 70.0859C402.122 69.987 401.825 69.8984 401.622 69.8203C401.424 69.7422 401.304 69.6953 401.262 69.6797C401.179 69.6484 401.08 69.6042 400.966 69.5469C400.95 69.5417 400.916 69.526 400.864 69.5C400.812 69.474 400.765 69.4609 400.723 69.4609C400.666 69.4609 400.617 69.4766 400.575 69.5078C400.539 69.5391 400.494 69.5833 400.442 69.6406C400.338 69.7604 400.239 69.8438 400.145 69.8906C400.057 69.9375 399.963 69.9609 399.864 69.9609C399.729 69.9609 399.622 69.9271 399.544 69.8594C399.466 69.7865 399.429 69.6953 399.434 69.5859C399.445 69.4714 399.45 69.3542 399.45 69.2344V68.9219C399.45 68.5729 399.437 68.2214 399.411 67.8672C399.39 67.513 399.377 67.3073 399.372 67.25C399.346 66.9271 399.333 66.7057 399.333 66.5859C399.333 66.2214 399.484 66.0391 399.786 66.0391C400.036 66.0391 400.192 66.1484 400.255 66.3672C400.312 66.5859 400.38 66.8021 400.458 67.0156C400.536 67.2292 400.645 67.4583 400.786 67.7031C401.104 68.25 401.541 68.6901 402.098 69.0234C402.656 69.3568 403.26 69.5234 403.911 69.5234C404.213 69.5234 404.494 69.4714 404.755 69.3672C405.015 69.263 405.223 69.1068 405.38 68.8984C405.541 68.6849 405.622 68.4271 405.622 68.125C405.622 67.7083 405.507 67.3464 405.278 67.0391C405.049 66.7266 404.77 66.4635 404.442 66.25C404.119 66.0312 403.682 65.7786 403.13 65.4922L402.637 65.2344C401.971 64.8802 401.44 64.5729 401.044 64.3125C400.653 64.0469 400.309 63.7031 400.012 63.2812C399.721 62.8594 399.575 62.3568 399.575 61.7734C399.575 61.1641 399.742 60.625 400.075 60.1562C400.414 59.6875 400.882 59.3255 401.481 59.0703C402.085 58.8151 402.773 58.6875 403.544 58.6875C403.945 58.6875 404.281 58.7135 404.552 58.7656C404.828 58.8177 405.096 58.888 405.356 58.9766C405.382 58.987 405.455 59.0104 405.575 59.0469C405.7 59.0781 405.809 59.0938 405.903 59.0938C405.981 59.0938 406.039 59.0833 406.075 59.0625C406.117 59.0417 406.158 59.0104 406.2 58.9688C406.247 58.9219 406.286 58.888 406.317 58.8672C406.374 58.8307 406.447 58.8125 406.536 58.8125C406.671 58.8125 406.796 58.8438 406.911 58.9062C407.031 58.9635 407.091 59.0312 407.091 59.1094C407.096 59.375 407.117 59.7031 407.153 60.0938C407.19 60.4844 407.213 60.737 407.223 60.8516C407.265 61.1953 407.286 61.4167 407.286 61.5156C407.286 61.6771 407.239 61.7943 407.145 61.8672C407.057 61.9349 406.94 61.9688 406.794 61.9688C406.606 61.9688 406.476 61.9089 406.403 61.7891C406.601 62.1849 406.572 62.0599 406.317 61.4141C406.067 60.7682 405.739 60.2682 405.333 59.9141C404.932 59.5547 404.374 59.375 403.661 59.375C403.124 59.375 402.671 59.4844 402.302 59.7031C401.937 59.9167 401.755 60.2578 401.755 60.7266C401.755 61.1224 401.887 61.4818 402.153 61.8047C402.419 62.1224 402.742 62.3984 403.122 62.6328C403.507 62.8672 403.997 63.1328 404.591 63.4297C405.289 63.7734 405.867 64.099 406.325 64.4062C406.789 64.7083 407.177 65.0755 407.489 65.5078C407.807 65.9401 407.966 66.4427 407.966 67.0156C407.966 67.6615 407.778 68.2292 407.403 68.7188C407.033 69.2031 406.533 69.5781 405.903 69.8438C405.278 70.1042 404.593 70.2344 403.848 70.2344ZM419.837 69.3125C419.952 69.3229 420.028 69.3464 420.064 69.3828C420.101 69.4141 420.119 69.487 420.119 69.6016C420.119 69.6797 420.093 69.7656 420.041 69.8594C419.994 69.9531 419.931 70 419.853 70H414.994C414.916 70 414.851 69.9531 414.798 69.8594C414.752 69.7656 414.728 69.6797 414.728 69.6016C414.728 69.513 414.746 69.4453 414.783 69.3984C414.819 69.3516 414.887 69.3229 414.986 69.3125L415.298 69.2969C415.554 69.2917 415.731 69.2786 415.83 69.2578C415.929 69.2318 415.978 69.1771 415.978 69.0938C415.978 69.0573 415.97 69.0156 415.955 68.9688L414.978 66.2734L411.236 66.2656L410.267 68.9688C410.252 69.0052 410.244 69.0391 410.244 69.0703C410.244 69.1641 410.309 69.224 410.439 69.25C410.569 69.276 410.778 69.2917 411.064 69.2969L411.392 69.3125C411.491 69.3229 411.559 69.3516 411.595 69.3984C411.632 69.4453 411.65 69.513 411.65 69.6016C411.65 69.6797 411.624 69.7656 411.572 69.8594C411.525 69.9531 411.462 70 411.384 70H408.08C407.996 70 407.931 69.9609 407.884 69.8828C407.837 69.8047 407.814 69.7109 407.814 69.6016C407.814 69.487 407.832 69.4141 407.869 69.3828C407.905 69.3464 407.981 69.3229 408.095 69.3125C408.137 69.3073 408.205 69.3047 408.298 69.3047C408.46 69.2995 408.595 69.2865 408.705 69.2656C408.819 69.2396 408.929 69.1849 409.033 69.1016C409.137 69.013 409.223 68.8828 409.291 68.7109L413.041 58.7422H414.869L418.58 68.7109C418.647 68.888 418.736 69.0208 418.845 69.1094C418.955 69.1927 419.067 69.2448 419.181 69.2656C419.296 69.2865 419.439 69.2995 419.611 69.3047C419.715 69.3047 419.791 69.3073 419.837 69.3125ZM413.275 60.7031L411.455 65.6016H414.744L413.275 60.7031ZM420.373 70C420.295 70 420.23 69.9531 420.178 69.8594C420.131 69.7656 420.108 69.6797 420.108 69.6016C420.108 69.513 420.126 69.4453 420.163 69.3984C420.199 69.3516 420.267 69.3229 420.366 69.3125C420.652 69.2917 420.913 69.2292 421.147 69.125C421.381 69.0208 421.498 68.8906 421.498 68.7344V60.3594C421.498 60.151 421.441 59.9948 421.327 59.8906C421.217 59.7812 421.082 59.7109 420.92 59.6797C420.764 59.6432 420.561 59.6172 420.311 59.6016C420.196 59.5911 420.121 59.5703 420.084 59.5391C420.048 59.5026 420.03 59.4271 420.03 59.3125C420.03 59.2344 420.053 59.1484 420.1 59.0547C420.152 58.9609 420.217 58.9141 420.295 58.9141H425.647C425.725 58.9141 425.788 58.9609 425.834 59.0547C425.886 59.1484 425.913 59.2344 425.913 59.3125C425.913 59.5052 425.827 59.6016 425.655 59.6016C425.17 59.6016 424.798 59.6562 424.538 59.7656C424.282 59.875 424.155 60.0651 424.155 60.3359V68.6172C424.155 68.8516 424.215 69.0104 424.334 69.0938C424.454 69.1719 424.626 69.2109 424.85 69.2109H426.991C427.22 69.2109 427.454 69.0755 427.694 68.8047C427.939 68.5339 428.165 68.1953 428.373 67.7891C428.582 67.3828 428.754 66.974 428.889 66.5625C428.915 66.4792 428.996 66.4167 429.131 66.375C429.272 66.3281 429.397 66.3047 429.506 66.3047C429.621 66.3047 429.725 66.3281 429.819 66.375C429.918 66.4219 429.962 66.487 429.952 66.5703L429.491 70H420.373ZM430.269 69.6016C430.269 69.513 430.287 69.4453 430.323 69.3984C430.36 69.3516 430.428 69.3229 430.527 69.3125C430.839 69.2865 431.107 69.237 431.331 69.1641C431.555 69.0859 431.667 68.9688 431.667 68.8125V60.3594C431.667 60.1562 431.607 60.0026 431.488 59.8984C431.368 59.7943 431.235 59.7266 431.089 59.6953C430.948 59.6641 430.745 59.6328 430.48 59.6016C430.365 59.5911 430.29 59.5703 430.253 59.5391C430.217 59.5026 430.198 59.4271 430.198 59.3125C430.198 59.2344 430.222 59.1484 430.269 59.0547C430.321 58.9609 430.386 58.9141 430.464 58.9141H439.519L439.792 61.4531C439.797 61.5312 439.758 61.5964 439.675 61.6484C439.592 61.6953 439.511 61.7188 439.433 61.7188C439.152 61.7188 438.964 61.6328 438.87 61.4609C438.803 61.3307 438.693 61.112 438.542 60.8047C438.396 60.5026 438.277 60.2812 438.183 60.1406C438.094 59.9948 437.982 59.8828 437.847 59.8047C437.717 59.7266 437.545 59.6875 437.331 59.6875H434.277V63.9219H436.363C436.488 63.9062 436.607 63.8151 436.722 63.6484C436.836 63.4818 436.933 63.2943 437.011 63.0859C437.089 62.8724 437.136 62.7057 437.152 62.5859C437.172 62.4193 437.292 62.3359 437.511 62.3359C437.589 62.3359 437.68 62.362 437.784 62.4141C437.889 62.4609 437.941 62.5234 437.941 62.6016V66.0625C437.941 66.1406 437.889 66.2057 437.784 66.2578C437.68 66.3047 437.589 66.3281 437.511 66.3281C437.412 66.3281 437.326 66.3099 437.253 66.2734C437.18 66.2318 437.139 66.1641 437.128 66.0703C437.118 65.9401 437.073 65.763 436.995 65.5391C436.917 65.3099 436.818 65.1094 436.698 64.9375C436.579 64.7604 436.451 64.6719 436.316 64.6719H434.277V68.4609C434.277 68.9193 434.514 69.1693 434.988 69.2109H437.245C437.558 69.2109 437.829 69.1432 438.058 69.0078C438.292 68.8724 438.511 68.6536 438.714 68.3516C438.922 68.0495 439.152 67.6276 439.402 67.0859C439.438 67.0026 439.511 66.9401 439.62 66.8984C439.73 66.8516 439.834 66.8281 439.933 66.8281C440.042 66.8281 440.146 66.8516 440.245 66.8984C440.349 66.9453 440.407 67.0104 440.417 67.0938L440.105 70H430.534C430.456 70 430.391 69.9531 430.339 69.8594C430.292 69.7656 430.269 69.6797 430.269 69.6016ZM445.695 70.2344C445.195 70.2344 444.75 70.1849 444.359 70.0859C443.969 69.987 443.672 69.8984 443.469 69.8203C443.271 69.7422 443.151 69.6953 443.109 69.6797C443.026 69.6484 442.927 69.6042 442.812 69.5469C442.797 69.5417 442.763 69.526 442.711 69.5C442.659 69.474 442.612 69.4609 442.57 69.4609C442.513 69.4609 442.464 69.4766 442.422 69.5078C442.385 69.5391 442.341 69.5833 442.289 69.6406C442.185 69.7604 442.086 69.8438 441.992 69.8906C441.904 69.9375 441.81 69.9609 441.711 69.9609C441.576 69.9609 441.469 69.9271 441.391 69.8594C441.312 69.7865 441.276 69.6953 441.281 69.5859C441.292 69.4714 441.297 69.3542 441.297 69.2344V68.9219C441.297 68.5729 441.284 68.2214 441.258 67.8672C441.237 67.513 441.224 67.3073 441.219 67.25C441.193 66.9271 441.18 66.7057 441.18 66.5859C441.18 66.2214 441.331 66.0391 441.633 66.0391C441.883 66.0391 442.039 66.1484 442.102 66.3672C442.159 66.5859 442.227 66.8021 442.305 67.0156C442.383 67.2292 442.492 67.4583 442.633 67.7031C442.951 68.25 443.388 68.6901 443.945 69.0234C444.503 69.3568 445.107 69.5234 445.758 69.5234C446.06 69.5234 446.341 69.4714 446.602 69.3672C446.862 69.263 447.07 69.1068 447.227 68.8984C447.388 68.6849 447.469 68.4271 447.469 68.125C447.469 67.7083 447.354 67.3464 447.125 67.0391C446.896 66.7266 446.617 66.4635 446.289 66.25C445.966 66.0312 445.529 65.7786 444.977 65.4922L444.484 65.2344C443.818 64.8802 443.286 64.5729 442.891 64.3125C442.5 64.0469 442.156 63.7031 441.859 63.2812C441.568 62.8594 441.422 62.3568 441.422 61.7734C441.422 61.1641 441.589 60.625 441.922 60.1562C442.26 59.6875 442.729 59.3255 443.328 59.0703C443.932 58.8151 444.62 58.6875 445.391 58.6875C445.792 58.6875 446.128 58.7135 446.398 58.7656C446.674 58.8177 446.943 58.888 447.203 58.9766C447.229 58.987 447.302 59.0104 447.422 59.0469C447.547 59.0781 447.656 59.0938 447.75 59.0938C447.828 59.0938 447.885 59.0833 447.922 59.0625C447.964 59.0417 448.005 59.0104 448.047 58.9688C448.094 58.9219 448.133 58.888 448.164 58.8672C448.221 58.8307 448.294 58.8125 448.383 58.8125C448.518 58.8125 448.643 58.8438 448.758 58.9062C448.878 58.9635 448.938 59.0312 448.938 59.1094C448.943 59.375 448.964 59.7031 449 60.0938C449.036 60.4844 449.06 60.737 449.07 60.8516C449.112 61.1953 449.133 61.4167 449.133 61.5156C449.133 61.6771 449.086 61.7943 448.992 61.8672C448.904 61.9349 448.786 61.9688 448.641 61.9688C448.453 61.9688 448.323 61.9089 448.25 61.7891C448.448 62.1849 448.419 62.0599 448.164 61.4141C447.914 60.7682 447.586 60.2682 447.18 59.9141C446.779 59.5547 446.221 59.375 445.508 59.375C444.971 59.375 444.518 59.4844 444.148 59.7031C443.784 59.9167 443.602 60.2578 443.602 60.7266C443.602 61.1224 443.734 61.4818 444 61.8047C444.266 62.1224 444.589 62.3984 444.969 62.6328C445.354 62.8672 445.844 63.1328 446.438 63.4297C447.135 63.7734 447.714 64.099 448.172 64.4062C448.635 64.7083 449.023 65.0755 449.336 65.5078C449.654 65.9401 449.812 66.4427 449.812 67.0156C449.812 67.6615 449.625 68.2292 449.25 68.7188C448.88 69.2031 448.38 69.5781 447.75 69.8438C447.125 70.1042 446.44 70.2344 445.695 70.2344Z" fill="white"/>
<path d="M24.75 27.0703C26.7344 27.1953 28.4688 27.6016 29.9531 28.2891C31.4375 28.9609 32.5781 29.8828 33.375 31.0547C34.1875 32.2109 34.5938 33.5703 34.5938 35.1328C34.5938 38.4453 33.4531 40.9219 31.1719 42.5625C28.9062 44.1875 25.4688 45 20.8594 45H3.375C3.14062 45 2.94531 44.8594 2.78906 44.5781C2.64844 44.2969 2.57812 44.0391 2.57812 43.8047C2.57812 43.5391 2.63281 43.3359 2.74219 43.1953C2.85156 43.0547 3.05469 42.9688 3.35156 42.9375C4.49219 42.8594 5.46094 42.7109 6.25781 42.4922C7.05469 42.2578 7.45312 41.9062 7.45312 41.4375L7.47656 16.0781C7.47656 15.4531 7.25781 14.9844 6.82031 14.6719C6.38281 14.3594 5.88281 14.1562 5.32031 14.0625C4.75781 13.9531 4.05469 13.8672 3.21094 13.8047C2.86719 13.7734 2.64062 13.7109 2.53125 13.6172C2.42188 13.5078 2.36719 13.2813 2.36719 12.9375C2.36719 12.7031 2.4375 12.4453 2.57812 12.1641C2.73438 11.8828 2.92969 11.7422 3.16406 11.7422H19.4297C23.6641 11.7422 26.8672 12.3281 29.0391 13.5C31.2266 14.6562 32.3203 16.4844 32.3203 18.9844C32.3203 20.5469 31.9844 21.9141 31.3125 23.0859C30.6562 24.2422 29.7578 25.1562 28.6172 25.8281C27.4766 26.5 26.1875 26.9141 24.75 27.0703ZM15.3516 26.2031H17.3672C19.4297 26.2031 21.1562 25.7031 22.5469 24.7031C23.9531 23.6875 24.6562 22.0703 24.6562 19.8516C24.6562 15.9609 22.4375 14.0156 18 14.0156H15.3516V26.2031ZM19.0078 42.6328C21.0703 42.6328 22.7578 42.125 24.0703 41.1094C25.3984 40.0938 26.0625 38.125 26.0625 35.2031C26.0625 33.0781 25.6172 31.5234 24.7266 30.5391C23.8359 29.5547 22.8203 28.9609 21.6797 28.7578C20.5547 28.5547 19.1406 28.4531 17.4375 28.4531H15.3516V41.7656C15.4141 42 15.7422 42.2031 16.3359 42.375C16.9297 42.5469 17.8203 42.6328 19.0078 42.6328ZM36.5531 43.8047C36.5531 43.5391 36.6078 43.3359 36.7172 43.1953C36.8266 43.0547 37.0297 42.9688 37.3266 42.9375C38.2641 42.8594 39.0687 42.7109 39.7406 42.4922C40.4125 42.2578 40.7484 41.9062 40.7484 41.4375V16.0781C40.7484 15.4688 40.5687 15.0078 40.2094 14.6953C39.85 14.3828 39.4516 14.1797 39.0141 14.0859C38.5922 13.9922 37.9828 13.8984 37.1859 13.8047C36.8422 13.7734 36.6156 13.7109 36.5062 13.6172C36.3969 13.5078 36.3422 13.2813 36.3422 12.9375C36.3422 12.7031 36.4125 12.4453 36.5531 12.1641C36.7094 11.8828 36.9047 11.7422 37.1391 11.7422H64.3031L65.1234 19.3594C65.1391 19.5938 65.0219 19.7891 64.7719 19.9453C64.5219 20.0859 64.2797 20.1562 64.0453 20.1562C63.2016 20.1562 62.6391 19.8984 62.3578 19.3828C62.1547 18.9922 61.8266 18.3359 61.3734 17.4141C60.9359 16.5078 60.5766 15.8438 60.2953 15.4219C60.0297 14.9844 59.6937 14.6484 59.2875 14.4141C58.8969 14.1797 58.3812 14.0625 57.7406 14.0625H48.5766V26.7656H54.8344C55.2094 26.7188 55.5687 26.4453 55.9125 25.9453C56.2562 25.4453 56.5453 24.8828 56.7797 24.2578C57.0141 23.6172 57.1547 23.1172 57.2016 22.7578C57.2641 22.2578 57.6234 22.0078 58.2797 22.0078C58.5141 22.0078 58.7875 22.0859 59.1 22.2422C59.4125 22.3828 59.5687 22.5703 59.5687 22.8047V33.1875C59.5687 33.4219 59.4125 33.6172 59.1 33.7734C58.7875 33.9141 58.5141 33.9844 58.2797 33.9844C57.9828 33.9844 57.725 33.9297 57.5062 33.8203C57.2875 33.6953 57.1625 33.4922 57.1312 33.2109C57.1 32.8203 56.9672 32.2891 56.7328 31.6172C56.4984 30.9297 56.2016 30.3281 55.8422 29.8125C55.4828 29.2812 55.1 29.0156 54.6937 29.0156H48.5766V40.3828C48.5766 41.7578 49.2875 42.5078 50.7094 42.6328H57.4828C58.4203 42.6328 59.2328 42.4297 59.9203 42.0234C60.6234 41.6172 61.2797 40.9609 61.8891 40.0547C62.5141 39.1484 63.2016 37.8828 63.9516 36.2578C64.0609 36.0078 64.2797 35.8203 64.6078 35.6953C64.9359 35.5547 65.2484 35.4844 65.5453 35.4844C65.8734 35.4844 66.1859 35.5547 66.4828 35.6953C66.7953 35.8359 66.9672 36.0312 66.9984 36.2812L66.0609 45H37.35C37.1156 45 36.9203 44.8594 36.7641 44.5781C36.6234 44.2969 36.5531 44.0391 36.5531 43.8047ZM69.9422 16.7578C69.6766 16.0547 69.3953 15.5156 69.0984 15.1406C68.8172 14.75 68.4578 14.4609 68.0203 14.2734C67.5984 14.0703 67.0125 13.9141 66.2625 13.8047C65.9031 13.7578 65.6687 13.6875 65.5594 13.5938C65.45 13.4844 65.3953 13.2656 65.3953 12.9375C65.3953 12.7031 65.4734 12.4453 65.6297 12.1641C65.7703 11.8828 65.9578 11.7422 66.1922 11.7422H81.45C81.6844 11.7422 81.8719 11.8828 82.0125 12.1641C82.1687 12.4453 82.2469 12.7031 82.2469 12.9375C82.2469 13.2031 82.1922 13.4062 82.0828 13.5469C81.9734 13.6875 81.7703 13.7734 81.4734 13.8047C80.2391 13.8047 79.3562 13.9609 78.825 14.2734C78.3094 14.5859 78.0516 14.9922 78.0516 15.4922C78.0516 15.7109 78.0906 15.9375 78.1687 16.1719L85.5516 35.2031L93.1687 12.4453H97.2469L106.27 34.5L113.114 16.1016C113.192 15.8672 113.231 15.6484 113.231 15.4453C113.231 14.3516 111.794 13.8047 108.919 13.8047C108.622 13.7734 108.419 13.6875 108.309 13.5469C108.2 13.4062 108.145 13.2031 108.145 12.9375C108.145 12.7031 108.216 12.4453 108.356 12.1641C108.512 11.8828 108.708 11.7422 108.942 11.7422H120.309C120.544 11.7422 120.731 11.8828 120.872 12.1641C121.028 12.4453 121.106 12.7031 121.106 12.9375C121.106 13.2813 121.044 13.5156 120.919 13.6406C120.809 13.75 120.591 13.8047 120.262 13.8047C119.216 13.8047 118.395 13.9453 117.802 14.2266C117.223 14.5078 116.794 14.8828 116.512 15.3516C116.231 15.8203 115.934 16.4844 115.622 17.3438L105.075 45.4219H102.192L92.5359 21.8672L84.5906 45.4219H81.7078L69.9422 16.7578ZM120.488 43.8047C120.488 43.5391 120.542 43.3359 120.652 43.1953C120.761 43.0547 120.964 42.9688 121.261 42.9375C122.198 42.8594 123.003 42.7109 123.675 42.4922C124.347 42.2578 124.683 41.9062 124.683 41.4375V16.0781C124.683 15.4688 124.503 15.0078 124.144 14.6953C123.784 14.3828 123.386 14.1797 122.948 14.0859C122.527 13.9922 121.917 13.8984 121.12 13.8047C120.777 13.7734 120.55 13.7109 120.441 13.6172C120.331 13.5078 120.277 13.2813 120.277 12.9375C120.277 12.7031 120.347 12.4453 120.488 12.1641C120.644 11.8828 120.839 11.7422 121.073 11.7422H148.238L149.058 19.3594C149.073 19.5938 148.956 19.7891 148.706 19.9453C148.456 20.0859 148.214 20.1562 147.98 20.1562C147.136 20.1562 146.573 19.8984 146.292 19.3828C146.089 18.9922 145.761 18.3359 145.308 17.4141C144.87 16.5078 144.511 15.8438 144.23 15.4219C143.964 14.9844 143.628 14.6484 143.222 14.4141C142.831 14.1797 142.316 14.0625 141.675 14.0625H132.511V26.7656H138.769C139.144 26.7188 139.503 26.4453 139.847 25.9453C140.191 25.4453 140.48 24.8828 140.714 24.2578C140.948 23.6172 141.089 23.1172 141.136 22.7578C141.198 22.2578 141.558 22.0078 142.214 22.0078C142.448 22.0078 142.722 22.0859 143.034 22.2422C143.347 22.3828 143.503 22.5703 143.503 22.8047V33.1875C143.503 33.4219 143.347 33.6172 143.034 33.7734C142.722 33.9141 142.448 33.9844 142.214 33.9844C141.917 33.9844 141.659 33.9297 141.441 33.8203C141.222 33.6953 141.097 33.4922 141.066 33.2109C141.034 32.8203 140.902 32.2891 140.667 31.6172C140.433 30.9297 140.136 30.3281 139.777 29.8125C139.417 29.2812 139.034 29.0156 138.628 29.0156H132.511V40.3828C132.511 41.7578 133.222 42.5078 134.644 42.6328H141.417C142.355 42.6328 143.167 42.4297 143.855 42.0234C144.558 41.6172 145.214 40.9609 145.823 40.0547C146.448 39.1484 147.136 37.8828 147.886 36.2578C147.995 36.0078 148.214 35.8203 148.542 35.6953C148.87 35.5547 149.183 35.4844 149.48 35.4844C149.808 35.4844 150.12 35.5547 150.417 35.6953C150.73 35.8359 150.902 36.0312 150.933 36.2812L149.995 45H121.284C121.05 45 120.855 44.8594 120.698 44.5781C120.558 44.2969 120.488 44.0391 120.488 43.8047ZM153.548 45C153.314 45 153.119 44.8594 152.962 44.5781C152.822 44.2969 152.752 44.0391 152.752 43.8047C152.752 43.5391 152.806 43.3359 152.916 43.1953C153.025 43.0547 153.228 42.9688 153.525 42.9375C154.384 42.875 155.166 42.6875 155.869 42.375C156.572 42.0625 156.923 41.6719 156.923 41.2031V16.0781C156.923 15.4531 156.752 14.9844 156.408 14.6719C156.08 14.3438 155.673 14.1328 155.189 14.0391C154.72 13.9297 154.111 13.8516 153.361 13.8047C153.017 13.7734 152.791 13.7109 152.681 13.6172C152.572 13.5078 152.517 13.2813 152.517 12.9375C152.517 12.7031 152.587 12.4453 152.728 12.1641C152.884 11.8828 153.08 11.7422 153.314 11.7422H169.369C169.603 11.7422 169.791 11.8828 169.931 12.1641C170.087 12.4453 170.166 12.7031 170.166 12.9375C170.166 13.5156 169.908 13.8047 169.392 13.8047C167.939 13.8047 166.822 13.9688 166.041 14.2969C165.275 14.625 164.892 15.1953 164.892 16.0078V40.8516C164.892 41.5547 165.072 42.0312 165.431 42.2812C165.791 42.5156 166.306 42.6328 166.978 42.6328H173.4C174.087 42.6328 174.791 42.2266 175.509 41.4141C176.244 40.6016 176.923 39.5859 177.548 38.3672C178.173 37.1484 178.689 35.9219 179.095 34.6875C179.173 34.4375 179.416 34.25 179.822 34.125C180.244 33.9844 180.619 33.9141 180.947 33.9141C181.291 33.9141 181.603 33.9844 181.884 34.125C182.181 34.2656 182.314 34.4609 182.283 34.7109L180.9 45H153.548ZM184.055 45C183.82 45 183.625 44.8594 183.469 44.5781C183.328 44.2969 183.258 44.0391 183.258 43.8047C183.258 43.5391 183.312 43.3359 183.422 43.1953C183.531 43.0547 183.734 42.9688 184.031 42.9375C184.891 42.875 185.672 42.6875 186.375 42.375C187.078 42.0625 187.43 41.6719 187.43 41.2031V16.0781C187.43 15.4531 187.258 14.9844 186.914 14.6719C186.586 14.3438 186.18 14.1328 185.695 14.0391C185.227 13.9297 184.617 13.8516 183.867 13.8047C183.523 13.7734 183.297 13.7109 183.188 13.6172C183.078 13.5078 183.023 13.2813 183.023 12.9375C183.023 12.7031 183.094 12.4453 183.234 12.1641C183.391 11.8828 183.586 11.7422 183.82 11.7422H199.875C200.109 11.7422 200.297 11.8828 200.438 12.1641C200.594 12.4453 200.672 12.7031 200.672 12.9375C200.672 13.5156 200.414 13.8047 199.898 13.8047C198.445 13.8047 197.328 13.9688 196.547 14.2969C195.781 14.625 195.398 15.1953 195.398 16.0078V40.8516C195.398 41.5547 195.578 42.0312 195.938 42.2812C196.297 42.5156 196.812 42.6328 197.484 42.6328H203.906C204.594 42.6328 205.297 42.2266 206.016 41.4141C206.75 40.6016 207.43 39.5859 208.055 38.3672C208.68 37.1484 209.195 35.9219 209.602 34.6875C209.68 34.4375 209.922 34.25 210.328 34.125C210.75 33.9844 211.125 33.9141 211.453 33.9141C211.797 33.9141 212.109 33.9844 212.391 34.125C212.688 34.2656 212.82 34.4609 212.789 34.7109L211.406 45H184.055Z" fill="white"/>
<path d="M228.778 45C228.544 45 228.348 44.8594 228.192 44.5781C228.052 44.2969 227.981 44.0391 227.981 43.8047C227.981 43.5391 228.036 43.3359 228.145 43.1953C228.255 43.0547 228.458 42.9688 228.755 42.9375C230.177 42.8594 231.333 42.6719 232.223 42.375C233.13 42.0625 233.583 41.5156 233.583 40.7344V14.0625H227.723C226.911 14.0625 226.239 14.5391 225.708 15.4922C225.192 16.4297 224.809 17.4766 224.559 18.6328C224.325 19.7891 224.177 20.7734 224.114 21.5859C224.083 21.8516 223.927 22.0469 223.645 22.1719C223.38 22.2969 223.091 22.3594 222.778 22.3594C222.544 22.3594 222.286 22.2891 222.005 22.1484C221.723 21.9922 221.583 21.7969 221.583 21.5625C221.661 19.2188 221.755 17 221.864 14.9062C221.989 12.7969 222.13 11.7422 222.286 11.7422H252.45C252.606 11.7422 252.739 12.7969 252.848 14.9062C252.973 17 253.075 19.2188 253.153 21.5625C253.153 21.7969 253.012 21.9922 252.731 22.1484C252.45 22.2891 252.192 22.3594 251.958 22.3594C251.645 22.3594 251.348 22.2969 251.067 22.1719C250.802 22.0469 250.653 21.8516 250.622 21.5859C250.434 19.8984 250.075 18.2266 249.544 16.5703C249.012 14.8984 248.169 14.0625 247.012 14.0625H241.458V40.6641C241.458 41.2891 241.7 41.7578 242.184 42.0703C242.669 42.3828 243.223 42.5938 243.848 42.7031C244.473 42.7969 245.255 42.875 246.192 42.9375C246.536 42.9688 246.762 43.0391 246.872 43.1484C246.981 43.2422 247.036 43.4609 247.036 43.8047C247.036 44.0391 246.958 44.2969 246.802 44.5781C246.661 44.8594 246.473 45 246.239 45H228.778ZM254.784 45C254.55 45 254.355 44.8594 254.198 44.5781C254.058 44.2969 253.988 44.0391 253.988 43.8047C253.988 43.5391 254.042 43.3359 254.152 43.1953C254.261 43.0547 254.464 42.9688 254.761 42.9375C256.886 42.7656 257.948 42.2656 257.948 41.4375L257.972 16.0781C257.972 15.4531 257.808 14.9844 257.48 14.6719C257.152 14.3594 256.777 14.1641 256.355 14.0859C255.948 13.9922 255.37 13.8984 254.62 13.8047C254.277 13.7734 254.05 13.7109 253.941 13.6172C253.831 13.5078 253.777 13.2813 253.777 12.9375C253.777 12.7031 253.847 12.4453 253.988 12.1641C254.144 11.8828 254.339 11.7422 254.573 11.7422L257.128 11.7188C257.55 11.7031 258.191 11.6953 259.05 11.6953C259.894 11.6953 261.456 11.6641 263.738 11.6016C266.394 11.5391 268.534 11.5078 270.159 11.5078C274.472 11.5078 277.769 12.2344 280.05 13.6875C282.347 15.1406 283.495 17.375 283.495 20.3906C283.495 22.3594 283.105 23.9609 282.323 25.1953C281.542 26.4297 280.534 27.375 279.3 28.0312C278.081 28.6875 276.62 29.2344 274.917 29.6719C276.323 29.8125 277.464 30.1953 278.339 30.8203C279.23 31.4453 279.925 32.1797 280.425 33.0234C280.925 33.8672 281.48 35.0078 282.089 36.4453C282.495 37.3672 282.816 38.0938 283.05 38.625C283.3 39.1406 283.589 39.6562 283.917 40.1719C284.417 41.125 284.925 41.8047 285.441 42.2109C285.972 42.6172 286.558 42.8516 287.198 42.9141C287.527 42.9453 287.745 43.0312 287.855 43.1719C287.98 43.3125 288.042 43.5625 288.042 43.9219C288.042 44.1406 287.964 44.375 287.808 44.625C287.667 44.875 287.48 45 287.245 45H279.253C278.425 45 277.722 44.6953 277.144 44.0859C276.566 43.4766 276.089 42.7266 275.714 41.8359C275.355 40.9453 274.933 39.7266 274.448 38.1797C273.917 36.4609 273.433 35.0859 272.995 34.0547C272.558 33.0234 271.964 32.1484 271.214 31.4297C270.48 30.7109 269.566 30.3516 268.472 30.3516H265.683V40.6641C265.683 41.2891 265.878 41.7656 266.269 42.0938C266.659 42.4062 267.12 42.6094 267.652 42.7031C268.183 42.7969 268.855 42.875 269.667 42.9375C270.011 42.9688 270.238 43.0391 270.347 43.1484C270.456 43.2422 270.511 43.4609 270.511 43.8047C270.511 44.0391 270.433 44.2969 270.277 44.5781C270.136 44.8594 269.948 45 269.714 45H254.784ZM269.058 28.3359C271.136 28.3359 272.73 27.7891 273.839 26.6953C274.964 25.5859 275.527 23.7266 275.527 21.1172C275.527 18.6953 274.988 16.8672 273.909 15.6328C272.847 14.3984 271.206 13.7812 268.988 13.7812H265.683V28.3359H269.058ZM323.119 42.9375C323.462 42.9688 323.689 43.0391 323.798 43.1484C323.908 43.2422 323.962 43.4609 323.962 43.8047C323.962 44.0391 323.884 44.2969 323.728 44.5781C323.587 44.8594 323.4 45 323.166 45H308.587C308.353 45 308.158 44.8594 308.002 44.5781C307.861 44.2969 307.791 44.0391 307.791 43.8047C307.791 43.5391 307.845 43.3359 307.955 43.1953C308.064 43.0547 308.267 42.9688 308.564 42.9375L309.502 42.8906C310.267 42.875 310.798 42.8359 311.095 42.7734C311.392 42.6953 311.541 42.5312 311.541 42.2812C311.541 42.1719 311.517 42.0469 311.47 41.9062L308.541 33.8203L297.314 33.7969L294.408 41.9062C294.361 42.0156 294.337 42.1172 294.337 42.2109C294.337 42.4922 294.533 42.6719 294.923 42.75C295.314 42.8281 295.939 42.875 296.798 42.8906L297.783 42.9375C298.08 42.9688 298.283 43.0547 298.392 43.1953C298.502 43.3359 298.556 43.5391 298.556 43.8047C298.556 44.0391 298.478 44.2969 298.322 44.5781C298.181 44.8594 297.994 45 297.759 45H287.845C287.595 45 287.4 44.8828 287.259 44.6484C287.119 44.4141 287.048 44.1328 287.048 43.8047C287.048 43.4609 287.103 43.2422 287.212 43.1484C287.322 43.0391 287.548 42.9688 287.892 42.9375C288.017 42.9219 288.22 42.9141 288.502 42.9141C288.986 42.8984 289.392 42.8594 289.72 42.7969C290.064 42.7188 290.392 42.5547 290.705 42.3047C291.017 42.0391 291.275 41.6484 291.478 41.1328L302.728 11.2266H308.212L319.345 41.1328C319.548 41.6641 319.814 42.0625 320.142 42.3281C320.47 42.5781 320.806 42.7344 321.15 42.7969C321.494 42.8594 321.923 42.8984 322.439 42.9141C322.752 42.9141 322.978 42.9219 323.119 42.9375ZM303.431 17.1094L297.97 31.8047H307.837L303.431 17.1094ZM324.727 45C324.492 45 324.297 44.8594 324.141 44.5781C324 44.2969 323.93 44.0391 323.93 43.8047C323.93 43.5391 323.984 43.3359 324.094 43.1953C324.203 43.0547 324.406 42.9688 324.703 42.9375C325.641 42.8594 326.438 42.7109 327.094 42.4922C327.766 42.2578 328.102 41.9062 328.102 41.4375V16.0781C328.102 15.4688 327.922 15.0078 327.562 14.6953C327.203 14.3828 326.805 14.1797 326.367 14.0859C325.945 13.9922 325.336 13.8984 324.539 13.8047C324.195 13.7734 323.969 13.7109 323.859 13.6172C323.75 13.5078 323.695 13.2813 323.695 12.9375C323.695 12.7031 323.766 12.4453 323.906 12.1641C324.062 11.8828 324.258 11.7422 324.492 11.7422H340.805C344.867 11.7578 348.328 12.5156 351.188 14.0156C354.047 15.5 356.195 17.4531 357.633 19.875C359.07 22.2969 359.789 24.9062 359.789 27.7031C359.789 31.5156 358.883 34.7266 357.07 37.3359C355.258 39.9297 353.016 41.8594 350.344 43.125C347.672 44.375 345.055 45 342.492 45H324.727ZM336 41.0625C336 41.4844 336.352 41.8516 337.055 42.1641C337.773 42.4766 339.047 42.6328 340.875 42.6328C343.078 42.6328 344.859 42.3047 346.219 41.6484C347.578 40.9766 348.656 39.5703 349.453 37.4297C350.25 35.2734 350.648 32.0625 350.648 27.7969C350.648 24.125 350.211 21.2812 349.336 19.2656C348.477 17.2344 347.32 15.8516 345.867 15.1172C344.43 14.3828 342.688 14.0156 340.641 14.0156H336.023L336 41.0625ZM362.334 45C362.1 45 361.905 44.8594 361.748 44.5781C361.608 44.2969 361.538 44.0391 361.538 43.8047C361.538 43.5391 361.592 43.3359 361.702 43.1953C361.811 43.0547 362.014 42.9688 362.311 42.9375C363.248 42.8594 364.045 42.7109 364.702 42.4922C365.373 42.2578 365.709 41.9062 365.709 41.4375L365.733 16.0781C365.733 15.4531 365.545 14.9844 365.17 14.6719C364.811 14.3594 364.397 14.1562 363.928 14.0625C363.459 13.9531 362.873 13.8672 362.17 13.8047C361.827 13.7734 361.6 13.7109 361.491 13.6172C361.381 13.5078 361.327 13.2813 361.327 12.9375C361.327 12.7031 361.397 12.4453 361.538 12.1641C361.694 11.8828 361.889 11.7422 362.123 11.7422H377.006C377.241 11.7422 377.428 11.8828 377.569 12.1641C377.725 12.4453 377.803 12.7031 377.803 12.9375C377.803 13.2031 377.748 13.4062 377.639 13.5469C377.53 13.6875 377.327 13.7734 377.03 13.8047C374.764 13.9766 373.631 14.4766 373.631 15.3047L373.608 40.6641C373.608 41.2891 373.788 41.7578 374.147 42.0703C374.522 42.3828 374.944 42.5938 375.413 42.7031C375.881 42.7969 376.467 42.875 377.17 42.9375C377.514 42.9688 377.741 43.0391 377.85 43.1484C377.959 43.2422 378.014 43.4609 378.014 43.8047C378.014 44.0391 377.936 44.2969 377.78 44.5781C377.639 44.8594 377.452 45 377.217 45H362.334ZM379.927 45C379.692 45 379.497 44.8594 379.341 44.5781C379.2 44.2969 379.13 44.0391 379.13 43.8047C379.13 43.5391 379.184 43.3359 379.294 43.1953C379.403 43.0547 379.606 42.9688 379.903 42.9375C382.794 42.7188 384.239 42.0625 384.239 40.9688V17.3438C384.239 16.7188 383.981 16.1484 383.466 15.6328C382.95 15.1172 382.333 14.7031 381.614 14.3906C380.911 14.0625 380.294 13.8672 379.763 13.8047C379.419 13.7734 379.192 13.7109 379.083 13.6172C378.973 13.5078 378.919 13.2813 378.919 12.9375C378.919 12.7031 378.989 12.4453 379.13 12.1641C379.286 11.8828 379.481 11.7422 379.716 11.7422H391.153L410.138 34.0547H410.419V16.0781C410.419 15.4688 410.184 15.0078 409.716 14.6953C409.247 14.3828 408.786 14.1875 408.333 14.1094C407.895 14.0156 407.169 13.9141 406.153 13.8047C405.809 13.7734 405.583 13.7109 405.473 13.6172C405.364 13.5078 405.309 13.2813 405.309 12.9375C405.309 12.7031 405.38 12.4453 405.52 12.1641C405.677 11.8828 405.872 11.7422 406.106 11.7422H417.239C417.473 11.7422 417.661 11.8828 417.802 12.1641C417.958 12.4453 418.036 12.7031 418.036 12.9375C418.036 13.2031 417.981 13.4062 417.872 13.5469C417.763 13.6875 417.559 13.7734 417.263 13.8047C414.528 14.1172 413.161 14.8359 413.161 15.9609V42.3516C413.161 42.6328 413.184 42.9297 413.231 43.2422L413.302 44.0625C413.348 44.6094 413.083 45.0156 412.505 45.2812C411.942 45.5625 411.348 45.7031 410.723 45.7031C410.489 45.7031 410.247 45.6484 409.997 45.5391C409.763 45.4453 409.583 45.3281 409.458 45.1875L387.614 19.4531H387.216V40.6641C387.216 41.2109 387.434 41.6406 387.872 41.9531C388.325 42.2656 388.833 42.4844 389.395 42.6094C389.973 42.7188 390.661 42.8125 391.458 42.8906L391.95 42.9375C392.294 42.9688 392.52 43.0391 392.63 43.1484C392.739 43.2422 392.794 43.4609 392.794 43.8047C392.794 44.0391 392.716 44.2969 392.559 44.5781C392.419 44.8594 392.231 45 391.997 45H379.927ZM436.659 45.7031C433.862 45.7031 431.003 45.125 428.081 43.9688C425.175 42.8125 422.714 40.9453 420.698 38.3672C418.698 35.7734 417.698 32.4688 417.698 28.4531C417.698 24.4375 418.683 21.125 420.652 18.5156C422.62 15.9063 425.073 14.0078 428.011 12.8203C430.948 11.6328 433.909 11.0391 436.894 11.0391C439.581 11.0391 441.948 11.2578 443.995 11.6953C446.058 12.1172 447.659 12.5859 448.8 13.1016L449.316 20.3672C449.331 20.6172 449.175 20.8359 448.847 21.0234C448.534 21.2109 448.253 21.3047 448.003 21.3047L447.675 21.3281C447.3 21.3281 446.933 21.2734 446.573 21.1641C446.23 21.0547 446.034 20.8828 445.987 20.6484C445.378 18.3984 444.362 16.6094 442.941 15.2812C441.519 13.9531 439.487 13.2891 436.847 13.2891C435.394 13.2891 433.894 13.7031 432.347 14.5312C430.8 15.3438 429.448 16.875 428.292 19.125C427.152 21.375 426.581 24.4844 426.581 28.4531C426.581 32 427.144 34.8984 428.269 37.1484C429.409 39.3984 430.784 41.0156 432.394 42C434.003 42.9844 435.558 43.4766 437.058 43.4766C439.027 43.4766 440.37 43.1953 441.089 42.6328C441.823 42.0703 442.191 41.3438 442.191 40.4531V34.3125C442.191 33.6875 441.972 33.2188 441.534 32.9062C441.097 32.5938 440.597 32.3906 440.034 32.2969C439.487 32.2031 438.753 32.1172 437.831 32.0391C437.487 32.0078 437.261 31.9453 437.152 31.8516C437.042 31.7422 436.987 31.5156 436.987 31.1719C436.987 30.9375 437.058 30.6797 437.198 30.3984C437.355 30.1172 437.55 29.9766 437.784 29.9766H452.433C452.667 29.9766 452.855 30.1172 452.995 30.3984C453.152 30.6797 453.23 30.9375 453.23 31.1719C453.23 31.4375 453.175 31.6406 453.066 31.7812C452.956 31.9219 452.753 32.0078 452.456 32.0391C451.644 32.1328 451.011 32.2891 450.558 32.5078C450.12 32.7266 449.902 33.0703 449.902 33.5391L449.925 42.1172C449.659 42.5078 448.909 42.9922 447.675 43.5703C446.441 44.1484 444.855 44.6484 442.917 45.0703C440.995 45.4922 438.909 45.7031 436.659 45.7031Z" fill="#DF362F"/>
</svg>
