<svg width="252" height="21" viewBox="0 0 252 21" fill="none" xmlns="http://www.w3.org/2000/svg">
<path d="M13.4375 9.54102C14.5951 9.61393 15.6068 9.85091 16.4727 10.252C17.3385 10.6439 18.0039 11.1816 18.4688 11.8652C18.9427 12.5397 19.1797 13.3327 19.1797 14.2441C19.1797 16.1764 18.5143 17.6211 17.1836 18.5781C15.862 19.526 13.8568 20 11.168 20H0.96875C0.832031 20 0.718099 19.918 0.626953 19.7539C0.544922 19.5898 0.503906 19.4395 0.503906 19.3027C0.503906 19.1478 0.535807 19.0293 0.599609 18.9473C0.663411 18.8652 0.781901 18.8151 0.955078 18.7969C1.62044 18.7513 2.18555 18.6647 2.65039 18.5371C3.11523 18.4004 3.34766 18.1953 3.34766 17.9219L3.36133 3.12891C3.36133 2.76432 3.23372 2.49089 2.97852 2.30859C2.72331 2.1263 2.43164 2.00781 2.10352 1.95312C1.77539 1.88932 1.36523 1.83919 0.873047 1.80273C0.672526 1.78451 0.540365 1.74805 0.476562 1.69336C0.41276 1.62956 0.380859 1.4974 0.380859 1.29688C0.380859 1.16016 0.421875 1.00977 0.503906 0.845703C0.595052 0.681641 0.708984 0.599609 0.845703 0.599609H10.334C12.804 0.599609 14.6725 0.941406 15.9395 1.625C17.2155 2.29948 17.8535 3.36589 17.8535 4.82422C17.8535 5.73568 17.6576 6.5332 17.2656 7.2168C16.8828 7.89128 16.3587 8.42448 15.6934 8.81641C15.028 9.20833 14.276 9.44987 13.4375 9.54102ZM7.95508 9.03516H9.13086C10.334 9.03516 11.3411 8.74349 12.1523 8.16016C12.9727 7.56771 13.3828 6.62435 13.3828 5.33008C13.3828 3.06055 12.0885 1.92578 9.5 1.92578H7.95508V9.03516ZM10.0879 18.6191C11.291 18.6191 12.2754 18.3229 13.041 17.7305C13.8158 17.138 14.2031 15.9896 14.2031 14.2852C14.2031 13.0456 13.9434 12.1387 13.4238 11.5645C12.9043 10.9902 12.3118 10.6439 11.6465 10.5254C10.9902 10.4069 10.1654 10.3477 9.17188 10.3477H7.95508V18.1133C7.99154 18.25 8.18294 18.3685 8.5293 18.4688C8.87565 18.569 9.39518 18.6191 10.0879 18.6191ZM39.7094 18.7969C39.9099 18.8151 40.0421 18.8561 40.1059 18.9199C40.1697 18.9746 40.2016 19.1022 40.2016 19.3027C40.2016 19.4395 40.156 19.5898 40.0648 19.7539C39.9828 19.918 39.8734 20 39.7367 20H31.2328C31.0961 20 30.9822 19.918 30.891 19.7539C30.809 19.5898 30.768 19.4395 30.768 19.3027C30.768 19.1478 30.7999 19.0293 30.8637 18.9473C30.9275 18.8652 31.046 18.8151 31.2191 18.7969L31.766 18.7695C32.2126 18.7604 32.5225 18.7376 32.6957 18.7012C32.8689 18.6556 32.9555 18.5599 32.9555 18.4141C32.9555 18.3503 32.9418 18.2773 32.9145 18.1953L31.2055 13.4785L24.6566 13.4648L22.9613 18.1953C22.934 18.2591 22.9203 18.3184 22.9203 18.373C22.9203 18.5371 23.0342 18.6419 23.2621 18.6875C23.49 18.7331 23.8546 18.7604 24.3559 18.7695L24.9301 18.7969C25.1033 18.8151 25.2217 18.8652 25.2855 18.9473C25.3493 19.0293 25.3813 19.1478 25.3813 19.3027C25.3813 19.4395 25.3357 19.5898 25.2445 19.7539C25.1625 19.918 25.0531 20 24.9164 20H19.1332C18.9874 20 18.8734 19.9316 18.7914 19.7949C18.7094 19.6582 18.6684 19.4941 18.6684 19.3027C18.6684 19.1022 18.7003 18.9746 18.7641 18.9199C18.8279 18.8561 18.96 18.8151 19.1605 18.7969C19.2335 18.7878 19.352 18.7832 19.516 18.7832C19.7986 18.7741 20.0355 18.7513 20.227 18.7148C20.4275 18.6693 20.6189 18.5736 20.8012 18.4277C20.9835 18.2728 21.1339 18.0449 21.2523 17.7441L27.8148 0.298828H31.0141L37.5082 17.7441C37.6267 18.054 37.7816 18.2865 37.973 18.4414C38.1645 18.5872 38.3604 18.6784 38.5609 18.7148C38.7615 18.7513 39.0121 18.7741 39.3129 18.7832C39.4952 18.7832 39.6273 18.7878 39.7094 18.7969ZM28.225 3.73047L25.0395 12.3027H30.7953L28.225 3.73047ZM43.2313 20C43.0945 20 42.9806 19.918 42.8895 19.7539C42.8074 19.5898 42.7664 19.4395 42.7664 19.3027C42.7664 19.1478 42.7983 19.0293 42.8621 18.9473C42.9259 18.8652 43.0444 18.8151 43.2176 18.7969C44.047 18.7513 44.7215 18.6419 45.241 18.4688C45.7697 18.2865 46.034 17.9674 46.034 17.5117V1.95312H42.616C42.1421 1.95312 41.7501 2.23112 41.4402 2.78711C41.1395 3.33398 40.9161 3.94466 40.7703 4.61914C40.6336 5.29362 40.547 5.86784 40.5105 6.3418C40.4923 6.49674 40.4012 6.61068 40.2371 6.68359C40.0822 6.75651 39.9135 6.79297 39.7313 6.79297C39.5945 6.79297 39.4441 6.75195 39.2801 6.66992C39.116 6.57878 39.034 6.46484 39.034 6.32812C39.0796 4.96094 39.1342 3.66667 39.198 2.44531C39.271 1.21484 39.353 0.599609 39.4441 0.599609H57.0398C57.131 0.599609 57.2085 1.21484 57.2723 2.44531C57.3452 3.66667 57.4044 4.96094 57.45 6.32812C57.45 6.46484 57.368 6.57878 57.2039 6.66992C57.0398 6.75195 56.8895 6.79297 56.7527 6.79297C56.5704 6.79297 56.3973 6.75651 56.2332 6.68359C56.0783 6.61068 55.9917 6.49674 55.9734 6.3418C55.8641 5.35742 55.6544 4.38216 55.3445 3.41602C55.0346 2.44076 54.5424 1.95312 53.868 1.95312H50.6277V17.4707C50.6277 17.8353 50.769 18.1087 51.0516 18.291C51.3341 18.4733 51.6577 18.5964 52.0223 18.6602C52.3868 18.7148 52.8426 18.7604 53.3895 18.7969C53.59 18.8151 53.7221 18.8561 53.7859 18.9199C53.8497 18.9746 53.8816 19.1022 53.8816 19.3027C53.8816 19.4395 53.8361 19.5898 53.7449 19.7539C53.6629 19.918 53.5535 20 53.4168 20H43.2313ZM60.9992 20C60.8625 20 60.7486 19.918 60.6574 19.7539C60.5754 19.5898 60.5344 19.4395 60.5344 19.3027C60.5344 19.1478 60.5663 19.0293 60.6301 18.9473C60.6939 18.8652 60.8124 18.8151 60.9855 18.7969C61.815 18.7513 62.4895 18.6419 63.009 18.4688C63.5376 18.2865 63.802 17.9674 63.802 17.5117V1.95312H60.384C59.91 1.95312 59.5181 2.23112 59.2082 2.78711C58.9074 3.33398 58.6841 3.94466 58.5383 4.61914C58.4016 5.29362 58.315 5.86784 58.2785 6.3418C58.2603 6.49674 58.1691 6.61068 58.0051 6.68359C57.8501 6.75651 57.6815 6.79297 57.4992 6.79297C57.3625 6.79297 57.2121 6.75195 57.048 6.66992C56.884 6.57878 56.802 6.46484 56.802 6.32812C56.8475 4.96094 56.9022 3.66667 56.966 2.44531C57.0389 1.21484 57.121 0.599609 57.2121 0.599609H74.8078C74.899 0.599609 74.9764 1.21484 75.0402 2.44531C75.1132 3.66667 75.1724 4.96094 75.218 6.32812C75.218 6.46484 75.1359 6.57878 74.9719 6.66992C74.8078 6.75195 74.6574 6.79297 74.5207 6.79297C74.3384 6.79297 74.1652 6.75651 74.0012 6.68359C73.8462 6.61068 73.7596 6.49674 73.7414 6.3418C73.632 5.35742 73.4224 4.38216 73.1125 3.41602C72.8026 2.44076 72.3104 1.95312 71.6359 1.95312H68.3957V17.4707C68.3957 17.8353 68.537 18.1087 68.8195 18.291C69.1021 18.4733 69.4257 18.5964 69.7902 18.6602C70.1548 18.7148 70.6105 18.7604 71.1574 18.7969C71.3579 18.8151 71.4901 18.8561 71.5539 18.9199C71.6177 18.9746 71.6496 19.1022 71.6496 19.3027C71.6496 19.4395 71.604 19.5898 71.5129 19.7539C71.4309 19.918 71.3215 20 71.1848 20H60.9992ZM75.7047 19.3027C75.7047 19.1478 75.7366 19.0293 75.8004 18.9473C75.8642 18.8652 75.9827 18.8151 76.1559 18.7969C76.7027 18.7513 77.1721 18.6647 77.5641 18.5371C77.956 18.4004 78.152 18.1953 78.152 17.9219V3.12891C78.152 2.77344 78.0471 2.50456 77.8375 2.32227C77.6279 2.13997 77.3954 2.02148 77.1402 1.9668C76.8941 1.91211 76.5387 1.85742 76.0738 1.80273C75.8733 1.78451 75.7411 1.74805 75.6773 1.69336C75.6135 1.62956 75.5816 1.4974 75.5816 1.29688C75.5816 1.16016 75.6227 1.00977 75.7047 0.845703C75.7958 0.681641 75.9098 0.599609 76.0465 0.599609H91.8922L92.3707 5.04297C92.3798 5.17969 92.3115 5.29362 92.1656 5.38477C92.0198 5.4668 91.8785 5.50781 91.7418 5.50781C91.2496 5.50781 90.9215 5.35742 90.7574 5.05664C90.6389 4.82878 90.4475 4.44596 90.1832 3.9082C89.928 3.37956 89.7184 2.99219 89.5543 2.74609C89.3994 2.49089 89.2034 2.29492 88.9664 2.1582C88.7385 2.02148 88.4378 1.95312 88.0641 1.95312H82.7184V9.36328H86.3688C86.5875 9.33594 86.7971 9.17643 86.9977 8.88477C87.1982 8.5931 87.3668 8.26497 87.5035 7.90039C87.6402 7.52669 87.7223 7.23503 87.7496 7.02539C87.7861 6.73372 87.9957 6.58789 88.3785 6.58789C88.5152 6.58789 88.6747 6.63346 88.857 6.72461C89.0393 6.80664 89.1305 6.91602 89.1305 7.05273V13.1094C89.1305 13.2461 89.0393 13.36 88.857 13.4512C88.6747 13.5332 88.5152 13.5742 88.3785 13.5742C88.2053 13.5742 88.0549 13.5423 87.9273 13.4785C87.7997 13.4056 87.7268 13.2871 87.7086 13.123C87.6904 12.8952 87.6129 12.5853 87.4762 12.1934C87.3395 11.7923 87.1663 11.4414 86.9566 11.1406C86.747 10.8307 86.5237 10.6758 86.2867 10.6758H82.7184V17.3066C82.7184 18.1087 83.1331 18.5462 83.9625 18.6191H87.9137C88.4605 18.6191 88.9345 18.5007 89.3355 18.2637C89.7457 18.0267 90.1285 17.6439 90.484 17.1152C90.8486 16.5866 91.2496 15.8483 91.6871 14.9004C91.7509 14.7546 91.8785 14.6452 92.0699 14.5723C92.2613 14.4902 92.4436 14.4492 92.6168 14.4492C92.8082 14.4492 92.9905 14.4902 93.1637 14.5723C93.346 14.6543 93.4462 14.7682 93.4645 14.9141L92.9176 20H76.1695C76.0328 20 75.9189 19.918 75.8277 19.7539C75.7457 19.5898 75.7047 19.4395 75.7047 19.3027ZM94.9766 20C94.8398 20 94.7259 19.918 94.6348 19.7539C94.5527 19.5898 94.5117 19.4395 94.5117 19.3027C94.5117 19.1478 94.5436 19.0293 94.6074 18.9473C94.6712 18.8652 94.7897 18.8151 94.9629 18.7969C96.2025 18.6966 96.8223 18.4049 96.8223 17.9219L96.8359 3.12891C96.8359 2.76432 96.7402 2.49089 96.5488 2.30859C96.3574 2.1263 96.1387 2.01237 95.8926 1.9668C95.6556 1.91211 95.3184 1.85742 94.8809 1.80273C94.6803 1.78451 94.5482 1.74805 94.4844 1.69336C94.4206 1.62956 94.3887 1.4974 94.3887 1.29688C94.3887 1.16016 94.4297 1.00977 94.5117 0.845703C94.6029 0.681641 94.7168 0.599609 94.8535 0.599609L96.3438 0.585938C96.5898 0.576823 96.9635 0.572266 97.4648 0.572266C97.957 0.572266 98.8685 0.554036 100.199 0.517578C101.749 0.48112 102.997 0.462891 103.945 0.462891C106.461 0.462891 108.384 0.886719 109.715 1.73438C111.055 2.58203 111.725 3.88542 111.725 5.64453C111.725 6.79297 111.497 7.72721 111.041 8.44727C110.585 9.16732 109.997 9.71875 109.277 10.1016C108.566 10.4844 107.714 10.8034 106.721 11.0586C107.541 11.1406 108.206 11.3639 108.717 11.7285C109.236 12.0931 109.642 12.5215 109.934 13.0137C110.225 13.5059 110.549 14.1712 110.904 15.0098C111.141 15.5475 111.328 15.9714 111.465 16.2812C111.611 16.582 111.779 16.8828 111.971 17.1836C112.262 17.7396 112.559 18.1361 112.859 18.373C113.169 18.61 113.511 18.7467 113.885 18.7832C114.076 18.8014 114.204 18.8516 114.268 18.9336C114.34 19.0156 114.377 19.1615 114.377 19.3711C114.377 19.4987 114.331 19.6354 114.24 19.7812C114.158 19.9271 114.049 20 113.912 20H109.25C108.767 20 108.357 19.8223 108.02 19.4668C107.682 19.1113 107.404 18.6738 107.186 18.1543C106.976 17.6348 106.73 16.9238 106.447 16.0215C106.137 15.0189 105.855 14.2168 105.6 13.6152C105.344 13.0137 104.998 12.5033 104.561 12.084C104.132 11.6647 103.599 11.4551 102.961 11.4551H101.334V17.4707C101.334 17.8353 101.448 18.1133 101.676 18.3047C101.904 18.487 102.173 18.6055 102.482 18.6602C102.792 18.7148 103.184 18.7604 103.658 18.7969C103.859 18.8151 103.991 18.8561 104.055 18.9199C104.118 18.9746 104.15 19.1022 104.15 19.3027C104.15 19.4395 104.105 19.5898 104.014 19.7539C103.932 19.918 103.822 20 103.686 20H94.9766ZM103.303 10.2793C104.515 10.2793 105.445 9.96029 106.092 9.32227C106.748 8.67513 107.076 7.59049 107.076 6.06836C107.076 4.6556 106.762 3.58919 106.133 2.86914C105.513 2.14909 104.556 1.78906 103.262 1.78906H101.334V10.2793H103.303ZM134.442 0.599609C134.579 0.599609 134.688 0.663411 134.77 0.791016C134.861 0.91862 134.907 1.04167 134.907 1.16016C134.907 1.36068 134.875 1.49284 134.811 1.55664C134.747 1.61133 134.615 1.64779 134.414 1.66602C134.068 1.70247 133.795 1.74349 133.594 1.78906C133.403 1.82552 133.193 1.93034 132.965 2.10352C132.746 2.26758 132.541 2.51823 132.35 2.85547L126.813 12.6855V17.7441C126.813 18.0449 126.899 18.2728 127.073 18.4277C127.255 18.5736 127.469 18.6693 127.715 18.7148C127.961 18.7513 128.285 18.7741 128.686 18.7832C128.905 18.7832 129.064 18.7878 129.164 18.7969C129.392 18.8242 129.552 18.8698 129.643 18.9336C129.743 18.9883 129.793 19.1113 129.793 19.3027C129.793 19.4395 129.748 19.5898 129.657 19.7539C129.575 19.918 129.465 20 129.329 20H119.827C119.69 20 119.576 19.918 119.485 19.7539C119.403 19.5898 119.362 19.4395 119.362 19.3027C119.362 19.166 119.416 19.0521 119.526 18.9609C119.635 18.8698 119.776 18.8151 119.95 18.7969L120.455 18.7695C121.021 18.7604 121.454 18.7057 121.754 18.6055C122.055 18.5052 122.205 18.2773 122.205 17.9219V12.8223L116.149 2.85547C115.939 2.51823 115.711 2.26758 115.465 2.10352C115.228 1.93945 115.005 1.83464 114.795 1.78906C114.595 1.74349 114.321 1.70247 113.975 1.66602C113.774 1.64779 113.642 1.61133 113.579 1.55664C113.515 1.49284 113.483 1.36068 113.483 1.16016C113.483 1.04167 113.528 0.91862 113.62 0.791016C113.702 0.663411 113.811 0.599609 113.948 0.599609H123.586C123.732 0.599609 123.846 0.663411 123.928 0.791016C124.01 0.909505 124.051 1.03255 124.051 1.16016C124.051 1.3151 124.019 1.43359 123.955 1.51562C123.892 1.59766 123.773 1.64779 123.6 1.66602C123.518 1.67513 123.395 1.67969 123.231 1.67969C122.629 1.71615 122.196 1.74805 121.932 1.77539C121.677 1.79362 121.481 1.83919 121.344 1.91211C121.217 1.97591 121.153 2.07617 121.153 2.21289C121.153 2.27669 121.194 2.37695 121.276 2.51367C121.358 2.65039 121.403 2.72786 121.412 2.74609L125.952 11.127L130.709 2.54102C130.782 2.4043 130.819 2.30404 130.819 2.24023C130.819 2.07617 130.65 1.95768 130.313 1.88477C129.985 1.80273 129.465 1.72982 128.754 1.66602C128.59 1.6569 128.472 1.61133 128.399 1.5293C128.335 1.43815 128.303 1.3151 128.303 1.16016C128.303 1.03255 128.344 0.909505 128.426 0.791016C128.508 0.663411 128.622 0.599609 128.768 0.599609H134.442Z" fill="white"/>
<path d="M140.939 3.52539C140.784 3.11523 140.62 2.80078 140.446 2.58203C140.282 2.35417 140.073 2.18555 139.818 2.07617C139.571 1.95768 139.23 1.86654 138.792 1.80273C138.583 1.77539 138.446 1.73438 138.382 1.67969C138.318 1.61589 138.286 1.48828 138.286 1.29688C138.286 1.16016 138.332 1.00977 138.423 0.845703C138.505 0.681641 138.614 0.599609 138.751 0.599609H147.652C147.788 0.599609 147.898 0.681641 147.98 0.845703C148.071 1.00977 148.116 1.16016 148.116 1.29688C148.116 1.45182 148.085 1.57031 148.021 1.65234C147.957 1.73438 147.838 1.78451 147.665 1.80273C146.945 1.80273 146.43 1.89388 146.12 2.07617C145.82 2.25846 145.669 2.49544 145.669 2.78711C145.669 2.91471 145.692 3.04688 145.738 3.18359L150.044 14.2852L154.488 1.00977H156.866L162.13 13.875L166.122 3.14258C166.168 3.00586 166.191 2.87826 166.191 2.75977C166.191 2.12174 165.352 1.80273 163.675 1.80273C163.502 1.78451 163.383 1.73438 163.32 1.65234C163.256 1.57031 163.224 1.45182 163.224 1.29688C163.224 1.16016 163.265 1.00977 163.347 0.845703C163.438 0.681641 163.552 0.599609 163.689 0.599609H170.32C170.456 0.599609 170.566 0.681641 170.648 0.845703C170.739 1.00977 170.784 1.16016 170.784 1.29688C170.784 1.4974 170.748 1.63411 170.675 1.70703C170.611 1.77083 170.484 1.80273 170.292 1.80273C169.682 1.80273 169.203 1.88477 168.857 2.04883C168.519 2.21289 168.269 2.43164 168.105 2.70508C167.941 2.97852 167.767 3.36589 167.585 3.86719L161.433 20.2461H159.751L154.118 6.50586L149.484 20.2461H147.802L140.939 3.52539ZM180.39 20.3965C178.339 20.3965 176.544 19.9453 175.004 19.043C173.463 18.1315 172.278 16.901 171.449 15.3516C170.629 13.8021 170.218 12.0885 170.218 10.2109C170.218 8.33333 170.629 6.63346 171.449 5.11133C172.269 3.58919 173.449 2.39062 174.99 1.51562C176.53 0.63151 178.33 0.189453 180.39 0.189453C182.45 0.189453 184.25 0.63151 185.791 1.51562C187.331 2.39062 188.511 3.58919 189.332 5.11133C190.161 6.63346 190.576 8.33333 190.576 10.2109C190.576 12.0885 190.161 13.8021 189.332 15.3516C188.502 16.901 187.317 18.1315 185.777 19.043C184.237 19.9453 182.441 20.3965 180.39 20.3965ZM180.445 19.1113C182.122 19.1113 183.357 18.3457 184.15 16.8145C184.943 15.2741 185.339 13.082 185.339 10.2383C185.339 7.41276 184.929 5.24349 184.109 3.73047C183.298 2.21745 182.049 1.46094 180.363 1.46094C178.677 1.46094 177.433 2.21745 176.63 3.73047C175.837 5.23438 175.441 7.40365 175.441 10.2383C175.441 13.0638 175.851 15.2513 176.671 16.8008C177.501 18.3411 178.759 19.1113 180.445 19.1113ZM192.457 20C192.32 20 192.206 19.918 192.115 19.7539C192.033 19.5898 191.992 19.4395 191.992 19.3027C191.992 19.1478 192.024 19.0293 192.088 18.9473C192.152 18.8652 192.27 18.8151 192.443 18.7969C193.683 18.6966 194.303 18.4049 194.303 17.9219L194.316 3.12891C194.316 2.76432 194.221 2.49089 194.029 2.30859C193.838 2.1263 193.619 2.01237 193.373 1.9668C193.136 1.91211 192.799 1.85742 192.361 1.80273C192.161 1.78451 192.029 1.74805 191.965 1.69336C191.901 1.62956 191.869 1.4974 191.869 1.29688C191.869 1.16016 191.91 1.00977 191.992 0.845703C192.083 0.681641 192.197 0.599609 192.334 0.599609L193.824 0.585938C194.07 0.576823 194.444 0.572266 194.945 0.572266C195.438 0.572266 196.349 0.554036 197.68 0.517578C199.229 0.48112 200.478 0.462891 201.426 0.462891C203.941 0.462891 205.865 0.886719 207.195 1.73438C208.535 2.58203 209.205 3.88542 209.205 5.64453C209.205 6.79297 208.977 7.72721 208.521 8.44727C208.066 9.16732 207.478 9.71875 206.758 10.1016C206.047 10.4844 205.195 10.8034 204.201 11.0586C205.021 11.1406 205.687 11.3639 206.197 11.7285C206.717 12.0931 207.122 12.5215 207.414 13.0137C207.706 13.5059 208.029 14.1712 208.385 15.0098C208.622 15.5475 208.809 15.9714 208.945 16.2812C209.091 16.582 209.26 16.8828 209.451 17.1836C209.743 17.7396 210.039 18.1361 210.34 18.373C210.65 18.61 210.992 18.7467 211.365 18.7832C211.557 18.8014 211.684 18.8516 211.748 18.9336C211.821 19.0156 211.857 19.1615 211.857 19.3711C211.857 19.4987 211.812 19.6354 211.721 19.7812C211.639 19.9271 211.529 20 211.393 20H206.73C206.247 20 205.837 19.8223 205.5 19.4668C205.163 19.1113 204.885 18.6738 204.666 18.1543C204.456 17.6348 204.21 16.9238 203.928 16.0215C203.618 15.0189 203.335 14.2168 203.08 13.6152C202.825 13.0137 202.479 12.5033 202.041 12.084C201.613 11.6647 201.079 11.4551 200.441 11.4551H198.814V17.4707C198.814 17.8353 198.928 18.1133 199.156 18.3047C199.384 18.487 199.653 18.6055 199.963 18.6602C200.273 18.7148 200.665 18.7604 201.139 18.7969C201.339 18.8151 201.471 18.8561 201.535 18.9199C201.599 18.9746 201.631 19.1022 201.631 19.3027C201.631 19.4395 201.585 19.5898 201.494 19.7539C201.412 19.918 201.303 20 201.166 20H192.457ZM200.783 10.2793C201.995 10.2793 202.925 9.96029 203.572 9.32227C204.229 8.67513 204.557 7.59049 204.557 6.06836C204.557 4.6556 204.242 3.58919 203.613 2.86914C202.993 2.14909 202.036 1.78906 200.742 1.78906H198.814V10.2793H200.783ZM213.411 20C213.274 20 213.16 19.918 213.069 19.7539C212.987 19.5898 212.946 19.4395 212.946 19.3027C212.946 19.1478 212.978 19.0293 213.041 18.9473C213.105 18.8652 213.224 18.8151 213.397 18.7969C213.898 18.7604 214.354 18.651 214.764 18.4688C215.174 18.2865 215.379 18.0586 215.379 17.7852V3.12891C215.379 2.76432 215.279 2.49089 215.079 2.30859C214.887 2.11719 214.65 1.99414 214.368 1.93945C214.094 1.87565 213.739 1.83008 213.301 1.80273C213.101 1.78451 212.968 1.74805 212.905 1.69336C212.841 1.62956 212.809 1.4974 212.809 1.29688C212.809 1.16016 212.85 1.00977 212.932 0.845703C213.023 0.681641 213.137 0.599609 213.274 0.599609H222.639C222.776 0.599609 222.885 0.681641 222.967 0.845703C223.058 1.00977 223.104 1.16016 223.104 1.29688C223.104 1.63411 222.954 1.80273 222.653 1.80273C221.805 1.80273 221.153 1.89844 220.698 2.08984C220.251 2.28125 220.028 2.61393 220.028 3.08789V17.5801C220.028 17.9902 220.133 18.2682 220.342 18.4141C220.552 18.5508 220.853 18.6191 221.245 18.6191H224.991C225.392 18.6191 225.802 18.3822 226.221 17.9082C226.649 17.4342 227.046 16.8418 227.411 16.1309C227.775 15.4199 228.076 14.7044 228.313 13.9844C228.358 13.8385 228.5 13.7292 228.737 13.6562C228.983 13.5742 229.202 13.5332 229.393 13.5332C229.593 13.5332 229.776 13.5742 229.94 13.6562C230.113 13.7383 230.191 13.8522 230.172 13.998L229.366 20H213.411ZM231.206 20C231.069 20 230.955 19.918 230.864 19.7539C230.782 19.5898 230.741 19.4395 230.741 19.3027C230.741 19.1478 230.773 19.0293 230.837 18.9473C230.901 18.8652 231.019 18.8151 231.192 18.7969C231.739 18.7513 232.204 18.6647 232.587 18.5371C232.979 18.4004 233.175 18.1953 233.175 17.9219V3.12891C233.175 2.77344 233.07 2.50456 232.86 2.32227C232.651 2.13997 232.418 2.02148 232.163 1.9668C231.917 1.91211 231.561 1.85742 231.096 1.80273C230.896 1.78451 230.764 1.74805 230.7 1.69336C230.636 1.62956 230.604 1.4974 230.604 1.29688C230.604 1.16016 230.645 1.00977 230.727 0.845703C230.818 0.681641 230.932 0.599609 231.069 0.599609H240.585C242.955 0.608724 244.973 1.05078 246.641 1.92578C248.309 2.79167 249.563 3.93099 250.401 5.34375C251.24 6.75651 251.659 8.27865 251.659 9.91016C251.659 12.1341 251.13 14.0072 250.073 15.5293C249.016 17.0423 247.708 18.168 246.149 18.9062C244.591 19.6354 243.064 20 241.569 20H231.206ZM237.782 17.7031C237.782 17.9492 237.987 18.1634 238.397 18.3457C238.817 18.528 239.559 18.6191 240.626 18.6191C241.911 18.6191 242.95 18.4277 243.743 18.0449C244.536 17.653 245.165 16.8327 245.63 15.584C246.095 14.3262 246.327 12.4531 246.327 9.96484C246.327 7.82292 246.072 6.16406 245.561 4.98828C245.06 3.80339 244.386 2.99674 243.538 2.56836C242.699 2.13997 241.683 1.92578 240.489 1.92578H237.796L237.782 17.7031Z" fill="#DF362F"/>
</svg>
