<svg width="432" height="35" viewBox="0 0 432 35" fill="none" xmlns="http://www.w3.org/2000/svg">
<path d="M22.75 16.0703C24.7344 16.1953 26.4688 16.6016 27.9531 17.2891C29.4375 17.9609 30.5781 18.8828 31.375 20.0547C32.1875 21.2109 32.5938 22.5703 32.5938 24.1328C32.5938 27.4453 31.4531 29.9219 29.1719 31.5625C26.9062 33.1875 23.4688 34 18.8594 34H1.375C1.14062 34 0.945312 33.8594 0.789062 33.5781C0.648438 33.2969 0.578125 33.0391 0.578125 32.8047C0.578125 32.5391 0.632812 32.3359 0.742188 32.1953C0.851562 32.0547 1.05469 31.9688 1.35156 31.9375C2.49219 31.8594 3.46094 31.7109 4.25781 31.4922C5.05469 31.2578 5.45312 30.9062 5.45312 30.4375L5.47656 5.07812C5.47656 4.45312 5.25781 3.98437 4.82031 3.67188C4.38281 3.35938 3.88281 3.15625 3.32031 3.0625C2.75781 2.95312 2.05469 2.86719 1.21094 2.80469C0.867188 2.77344 0.640625 2.71094 0.53125 2.61719C0.421875 2.50781 0.367188 2.28125 0.367188 1.9375C0.367188 1.70312 0.4375 1.44531 0.578125 1.16406C0.734375 0.882812 0.929688 0.742188 1.16406 0.742188H17.4297C21.6641 0.742188 24.8672 1.32812 27.0391 2.5C29.2266 3.65625 30.3203 5.48438 30.3203 7.98438C30.3203 9.54688 29.9844 10.9141 29.3125 12.0859C28.6562 13.2422 27.7578 14.1562 26.6172 14.8281C25.4766 15.5 24.1875 15.9141 22.75 16.0703ZM13.3516 15.2031H15.3672C17.4297 15.2031 19.1562 14.7031 20.5469 13.7031C21.9531 12.6875 22.6562 11.0703 22.6562 8.85156C22.6562 4.96094 20.4375 3.01562 16 3.01562H13.3516V15.2031ZM17.0078 31.6328C19.0703 31.6328 20.7578 31.125 22.0703 30.1094C23.3984 29.0938 24.0625 27.125 24.0625 24.2031C24.0625 22.0781 23.6172 20.5234 22.7266 19.5391C21.8359 18.5547 20.8203 17.9609 19.6797 17.7578C18.5547 17.5547 17.1406 17.4531 15.4375 17.4531H13.3516V30.7656C13.4141 31 13.7422 31.2031 14.3359 31.375C14.9297 31.5469 15.8203 31.6328 17.0078 31.6328ZM67.7875 31.9375C68.1312 31.9688 68.3578 32.0391 68.4672 32.1484C68.5766 32.2422 68.6312 32.4609 68.6312 32.8047C68.6312 33.0391 68.5531 33.2969 68.3969 33.5781C68.2562 33.8594 68.0687 34 67.8344 34H53.2562C53.0219 34 52.8266 33.8594 52.6703 33.5781C52.5297 33.2969 52.4594 33.0391 52.4594 32.8047C52.4594 32.5391 52.5141 32.3359 52.6234 32.1953C52.7328 32.0547 52.9359 31.9688 53.2328 31.9375L54.1703 31.8906C54.9359 31.875 55.4672 31.8359 55.7641 31.7734C56.0609 31.6953 56.2094 31.5312 56.2094 31.2812C56.2094 31.1719 56.1859 31.0469 56.1391 30.9062L53.2094 22.8203L41.9828 22.7969L39.0766 30.9062C39.0297 31.0156 39.0062 31.1172 39.0062 31.2109C39.0062 31.4922 39.2016 31.6719 39.5922 31.75C39.9828 31.8281 40.6078 31.875 41.4672 31.8906L42.4516 31.9375C42.7484 31.9688 42.9516 32.0547 43.0609 32.1953C43.1703 32.3359 43.225 32.5391 43.225 32.8047C43.225 33.0391 43.1469 33.2969 42.9906 33.5781C42.85 33.8594 42.6625 34 42.4281 34H32.5141C32.2641 34 32.0687 33.8828 31.9281 33.6484C31.7875 33.4141 31.7172 33.1328 31.7172 32.8047C31.7172 32.4609 31.7719 32.2422 31.8812 32.1484C31.9906 32.0391 32.2172 31.9688 32.5609 31.9375C32.6859 31.9219 32.8891 31.9141 33.1703 31.9141C33.6547 31.8984 34.0609 31.8594 34.3891 31.7969C34.7328 31.7188 35.0609 31.5547 35.3734 31.3047C35.6859 31.0391 35.9437 30.6484 36.1469 30.1328L47.3969 0.226562H52.8812L64.0141 30.1328C64.2172 30.6641 64.4828 31.0625 64.8109 31.3281C65.1391 31.5781 65.475 31.7344 65.8187 31.7969C66.1625 31.8594 66.5922 31.8984 67.1078 31.9141C67.4203 31.9141 67.6469 31.9219 67.7875 31.9375ZM48.1 6.10938L42.6391 20.8047H52.5062L48.1 6.10938ZM73.825 34C73.5906 34 73.3953 33.8594 73.2391 33.5781C73.0984 33.2969 73.0281 33.0391 73.0281 32.8047C73.0281 32.5391 73.0828 32.3359 73.1922 32.1953C73.3016 32.0547 73.5047 31.9688 73.8016 31.9375C75.2234 31.8594 76.3797 31.6719 77.2703 31.375C78.1766 31.0625 78.6297 30.5156 78.6297 29.7344V3.0625H72.7703C71.9578 3.0625 71.2859 3.53906 70.7547 4.49219C70.2391 5.42969 69.8562 6.47656 69.6062 7.63281C69.3719 8.78906 69.2234 9.77344 69.1609 10.5859C69.1297 10.8516 68.9734 11.0469 68.6922 11.1719C68.4266 11.2969 68.1375 11.3594 67.825 11.3594C67.5906 11.3594 67.3328 11.2891 67.0516 11.1484C66.7703 10.9922 66.6297 10.7969 66.6297 10.5625C66.7078 8.21875 66.8016 6 66.9109 3.90625C67.0359 1.79688 67.1766 0.742188 67.3328 0.742188H97.4969C97.6531 0.742188 97.7859 1.79688 97.8953 3.90625C98.0203 6 98.1219 8.21875 98.2 10.5625C98.2 10.7969 98.0594 10.9922 97.7781 11.1484C97.4969 11.2891 97.2391 11.3594 97.0047 11.3594C96.6922 11.3594 96.3953 11.2969 96.1141 11.1719C95.8484 11.0469 95.7 10.8516 95.6687 10.5859C95.4812 8.89844 95.1219 7.22656 94.5906 5.57031C94.0594 3.89844 93.2156 3.0625 92.0594 3.0625H86.5047V29.6641C86.5047 30.2891 86.7469 30.7578 87.2312 31.0703C87.7156 31.3828 88.2703 31.5938 88.8953 31.7031C89.5203 31.7969 90.3016 31.875 91.2391 31.9375C91.5828 31.9688 91.8094 32.0391 91.9187 32.1484C92.0281 32.2422 92.0828 32.4609 92.0828 32.8047C92.0828 33.0391 92.0047 33.2969 91.8484 33.5781C91.7078 33.8594 91.5203 34 91.2859 34H73.825ZM104.284 34C104.05 34 103.855 33.8594 103.698 33.5781C103.558 33.2969 103.488 33.0391 103.488 32.8047C103.488 32.5391 103.542 32.3359 103.652 32.1953C103.761 32.0547 103.964 31.9688 104.261 31.9375C105.683 31.8594 106.839 31.6719 107.73 31.375C108.636 31.0625 109.089 30.5156 109.089 29.7344V3.0625H103.23C102.417 3.0625 101.745 3.53906 101.214 4.49219C100.698 5.42969 100.316 6.47656 100.066 7.63281C99.8313 8.78906 99.6828 9.77344 99.6203 10.5859C99.5891 10.8516 99.4328 11.0469 99.1516 11.1719C98.8859 11.2969 98.5969 11.3594 98.2844 11.3594C98.05 11.3594 97.7922 11.2891 97.5109 11.1484C97.2297 10.9922 97.0891 10.7969 97.0891 10.5625C97.1672 8.21875 97.2609 6 97.3703 3.90625C97.4953 1.79688 97.6359 0.742188 97.7922 0.742188H127.956C128.113 0.742188 128.245 1.79688 128.355 3.90625C128.48 6 128.581 8.21875 128.659 10.5625C128.659 10.7969 128.519 10.9922 128.238 11.1484C127.956 11.2891 127.698 11.3594 127.464 11.3594C127.152 11.3594 126.855 11.2969 126.573 11.1719C126.308 11.0469 126.159 10.8516 126.128 10.5859C125.941 8.89844 125.581 7.22656 125.05 5.57031C124.519 3.89844 123.675 3.0625 122.519 3.0625H116.964V29.6641C116.964 30.2891 117.206 30.7578 117.691 31.0703C118.175 31.3828 118.73 31.5938 119.355 31.7031C119.98 31.7969 120.761 31.875 121.698 31.9375C122.042 31.9688 122.269 32.0391 122.378 32.1484C122.488 32.2422 122.542 32.4609 122.542 32.8047C122.542 33.0391 122.464 33.2969 122.308 33.5781C122.167 33.8594 121.98 34 121.745 34H104.284ZM129.494 32.8047C129.494 32.5391 129.548 32.3359 129.658 32.1953C129.767 32.0547 129.97 31.9688 130.267 31.9375C131.205 31.8594 132.009 31.7109 132.681 31.4922C133.353 31.2578 133.689 30.9062 133.689 30.4375V5.07812C133.689 4.46875 133.509 4.00781 133.15 3.69531C132.791 3.38281 132.392 3.17969 131.955 3.08594C131.533 2.99219 130.923 2.89844 130.127 2.80469C129.783 2.77344 129.556 2.71094 129.447 2.61719C129.337 2.50781 129.283 2.28125 129.283 1.9375C129.283 1.70312 129.353 1.44531 129.494 1.16406C129.65 0.882812 129.845 0.742188 130.08 0.742188H157.244L158.064 8.35938C158.08 8.59375 157.962 8.78906 157.712 8.94531C157.462 9.08594 157.22 9.15625 156.986 9.15625C156.142 9.15625 155.58 8.89844 155.298 8.38281C155.095 7.99219 154.767 7.33594 154.314 6.41406C153.877 5.50781 153.517 4.84375 153.236 4.42188C152.97 3.98437 152.634 3.64844 152.228 3.41406C151.837 3.17969 151.322 3.0625 150.681 3.0625H141.517V15.7656H147.775C148.15 15.7188 148.509 15.4453 148.853 14.9453C149.197 14.4453 149.486 13.8828 149.72 13.2578C149.955 12.6172 150.095 12.1172 150.142 11.7578C150.205 11.2578 150.564 11.0078 151.22 11.0078C151.455 11.0078 151.728 11.0859 152.041 11.2422C152.353 11.3828 152.509 11.5703 152.509 11.8047V22.1875C152.509 22.4219 152.353 22.6172 152.041 22.7734C151.728 22.9141 151.455 22.9844 151.22 22.9844C150.923 22.9844 150.666 22.9297 150.447 22.8203C150.228 22.6953 150.103 22.4922 150.072 22.2109C150.041 21.8203 149.908 21.2891 149.673 20.6172C149.439 19.9297 149.142 19.3281 148.783 18.8125C148.423 18.2812 148.041 18.0156 147.634 18.0156H141.517V29.3828C141.517 30.7578 142.228 31.5078 143.65 31.6328H150.423C151.361 31.6328 152.173 31.4297 152.861 31.0234C153.564 30.6172 154.22 29.9609 154.83 29.0547C155.455 28.1484 156.142 26.8828 156.892 25.2578C157.002 25.0078 157.22 24.8203 157.548 24.6953C157.877 24.5547 158.189 24.4844 158.486 24.4844C158.814 24.4844 159.127 24.5547 159.423 24.6953C159.736 24.8359 159.908 25.0312 159.939 25.2812L159.002 34H130.291C130.056 34 129.861 33.8594 129.705 33.5781C129.564 33.2969 129.494 33.0391 129.494 32.8047ZM162.531 34C162.297 34 162.102 33.8594 161.945 33.5781C161.805 33.2969 161.734 33.0391 161.734 32.8047C161.734 32.5391 161.789 32.3359 161.898 32.1953C162.008 32.0547 162.211 31.9688 162.508 31.9375C164.633 31.7656 165.695 31.2656 165.695 30.4375L165.719 5.07812C165.719 4.45312 165.555 3.98437 165.227 3.67188C164.898 3.35938 164.523 3.16406 164.102 3.08594C163.695 2.99219 163.117 2.89844 162.367 2.80469C162.023 2.77344 161.797 2.71094 161.688 2.61719C161.578 2.50781 161.523 2.28125 161.523 1.9375C161.523 1.70312 161.594 1.44531 161.734 1.16406C161.891 0.882812 162.086 0.742188 162.32 0.742188L164.875 0.71875C165.297 0.703125 165.938 0.695312 166.797 0.695312C167.641 0.695312 169.203 0.664063 171.484 0.601562C174.141 0.539062 176.281 0.507812 177.906 0.507812C182.219 0.507812 185.516 1.23438 187.797 2.6875C190.094 4.14062 191.242 6.375 191.242 9.39062C191.242 11.3594 190.852 12.9609 190.07 14.1953C189.289 15.4297 188.281 16.375 187.047 17.0312C185.828 17.6875 184.367 18.2344 182.664 18.6719C184.07 18.8125 185.211 19.1953 186.086 19.8203C186.977 20.4453 187.672 21.1797 188.172 22.0234C188.672 22.8672 189.227 24.0078 189.836 25.4453C190.242 26.3672 190.562 27.0938 190.797 27.625C191.047 28.1406 191.336 28.6562 191.664 29.1719C192.164 30.125 192.672 30.8047 193.188 31.2109C193.719 31.6172 194.305 31.8516 194.945 31.9141C195.273 31.9453 195.492 32.0312 195.602 32.1719C195.727 32.3125 195.789 32.5625 195.789 32.9219C195.789 33.1406 195.711 33.375 195.555 33.625C195.414 33.875 195.227 34 194.992 34H187C186.172 34 185.469 33.6953 184.891 33.0859C184.312 32.4766 183.836 31.7266 183.461 30.8359C183.102 29.9453 182.68 28.7266 182.195 27.1797C181.664 25.4609 181.18 24.0859 180.742 23.0547C180.305 22.0234 179.711 21.1484 178.961 20.4297C178.227 19.7109 177.312 19.3516 176.219 19.3516H173.43V29.6641C173.43 30.2891 173.625 30.7656 174.016 31.0938C174.406 31.4062 174.867 31.6094 175.398 31.7031C175.93 31.7969 176.602 31.875 177.414 31.9375C177.758 31.9688 177.984 32.0391 178.094 32.1484C178.203 32.2422 178.258 32.4609 178.258 32.8047C178.258 33.0391 178.18 33.2969 178.023 33.5781C177.883 33.8594 177.695 34 177.461 34H162.531ZM176.805 17.3359C178.883 17.3359 180.477 16.7891 181.586 15.6953C182.711 14.5859 183.273 12.7266 183.273 10.1172C183.273 7.69531 182.734 5.86719 181.656 4.63281C180.594 3.39844 178.953 2.78125 176.734 2.78125H173.43V17.3359H176.805ZM230.186 0.742188C230.42 0.742188 230.608 0.851563 230.748 1.07031C230.905 1.28906 230.983 1.5 230.983 1.70312C230.983 2.04688 230.928 2.27344 230.819 2.38281C230.709 2.47656 230.483 2.53906 230.139 2.57031C229.545 2.63281 229.077 2.70313 228.733 2.78125C228.405 2.84375 228.045 3.02344 227.655 3.32031C227.28 3.60156 226.928 4.03125 226.6 4.60938L217.108 21.4609V30.1328C217.108 30.6484 217.256 31.0391 217.553 31.3047C217.866 31.5547 218.233 31.7188 218.655 31.7969C219.077 31.8594 219.631 31.8984 220.319 31.9141C220.694 31.9141 220.967 31.9219 221.139 31.9375C221.53 31.9844 221.803 32.0625 221.959 32.1719C222.131 32.2656 222.217 32.4766 222.217 32.8047C222.217 33.0391 222.139 33.2969 221.983 33.5781C221.842 33.8594 221.655 34 221.42 34H205.131C204.897 34 204.702 33.8594 204.545 33.5781C204.405 33.2969 204.334 33.0391 204.334 32.8047C204.334 32.5703 204.428 32.375 204.616 32.2188C204.803 32.0625 205.045 31.9688 205.342 31.9375L206.209 31.8906C207.178 31.875 207.92 31.7812 208.436 31.6094C208.952 31.4375 209.209 31.0469 209.209 30.4375V21.6953L198.827 4.60938C198.467 4.03125 198.077 3.60156 197.655 3.32031C197.248 3.03906 196.866 2.85937 196.506 2.78125C196.163 2.70313 195.694 2.63281 195.1 2.57031C194.756 2.53906 194.53 2.47656 194.42 2.38281C194.311 2.27344 194.256 2.04688 194.256 1.70312C194.256 1.5 194.334 1.28906 194.491 1.07031C194.631 0.851563 194.819 0.742188 195.053 0.742188H211.577C211.827 0.742188 212.022 0.851563 212.163 1.07031C212.303 1.27344 212.373 1.48438 212.373 1.70312C212.373 1.96875 212.319 2.17188 212.209 2.3125C212.1 2.45312 211.897 2.53906 211.6 2.57031C211.459 2.58594 211.248 2.59375 210.967 2.59375C209.936 2.65625 209.194 2.71094 208.741 2.75781C208.303 2.78906 207.967 2.86719 207.733 2.99219C207.514 3.10156 207.405 3.27344 207.405 3.50781C207.405 3.61719 207.475 3.78906 207.616 4.02344C207.756 4.25781 207.834 4.39063 207.85 4.42188L215.631 18.7891L223.788 4.07031C223.913 3.83594 223.975 3.66406 223.975 3.55469C223.975 3.27344 223.686 3.07031 223.108 2.94531C222.545 2.80469 221.655 2.67969 220.436 2.57031C220.155 2.55469 219.952 2.47656 219.827 2.33594C219.717 2.17969 219.663 1.96875 219.663 1.70312C219.663 1.48438 219.733 1.27344 219.873 1.07031C220.014 0.851563 220.209 0.742188 220.459 0.742188H230.186Z" fill="white"/>
<path d="M241.323 5.75781C241.058 5.05469 240.777 4.51562 240.48 4.14062C240.198 3.75 239.839 3.46094 239.402 3.27344C238.98 3.07031 238.394 2.91406 237.644 2.80469C237.284 2.75781 237.05 2.6875 236.941 2.59375C236.831 2.48437 236.777 2.26562 236.777 1.9375C236.777 1.70312 236.855 1.44531 237.011 1.16406C237.152 0.882812 237.339 0.742188 237.573 0.742188H252.831C253.066 0.742188 253.253 0.882812 253.394 1.16406C253.55 1.44531 253.628 1.70312 253.628 1.9375C253.628 2.20312 253.573 2.40625 253.464 2.54688C253.355 2.6875 253.152 2.77344 252.855 2.80469C251.62 2.80469 250.738 2.96094 250.206 3.27344C249.691 3.58594 249.433 3.99219 249.433 4.49219C249.433 4.71094 249.472 4.9375 249.55 5.17188L256.933 24.2031L264.55 1.44531H268.628L277.652 23.5L284.495 5.10156C284.573 4.86719 284.613 4.64844 284.613 4.44531C284.613 3.35156 283.175 2.80469 280.3 2.80469C280.003 2.77344 279.8 2.6875 279.691 2.54688C279.581 2.40625 279.527 2.20312 279.527 1.9375C279.527 1.70312 279.597 1.44531 279.738 1.16406C279.894 0.882812 280.089 0.742188 280.323 0.742188H291.691C291.925 0.742188 292.113 0.882812 292.253 1.16406C292.409 1.44531 292.488 1.70312 292.488 1.9375C292.488 2.28125 292.425 2.51563 292.3 2.64062C292.191 2.75 291.972 2.80469 291.644 2.80469C290.597 2.80469 289.777 2.94531 289.183 3.22656C288.605 3.50781 288.175 3.88281 287.894 4.35156C287.613 4.82031 287.316 5.48438 287.003 6.34375L276.456 34.4219H273.573L263.917 10.8672L255.972 34.4219H253.089L241.323 5.75781ZM308.955 34.6797C305.439 34.6797 302.361 33.9062 299.72 32.3594C297.08 30.7969 295.048 28.6875 293.627 26.0312C292.22 23.375 291.517 20.4375 291.517 17.2188C291.517 14 292.22 11.0859 293.627 8.47656C295.033 5.86719 297.056 3.8125 299.697 2.3125C302.337 0.796875 305.423 0.0390625 308.955 0.0390625C312.486 0.0390625 315.572 0.796875 318.212 2.3125C320.853 3.8125 322.877 5.86719 324.283 8.47656C325.705 11.0859 326.416 14 326.416 17.2188C326.416 20.4375 325.705 23.375 324.283 26.0312C322.861 28.6875 320.83 30.7969 318.189 32.3594C315.548 33.9062 312.47 34.6797 308.955 34.6797ZM309.048 32.4766C311.923 32.4766 314.041 31.1641 315.4 28.5391C316.759 25.8984 317.439 22.1406 317.439 17.2656C317.439 12.4219 316.736 8.70312 315.33 6.10938C313.939 3.51562 311.798 2.21875 308.908 2.21875C306.017 2.21875 303.884 3.51562 302.509 6.10938C301.15 8.6875 300.47 12.4062 300.47 17.2656C300.47 22.1094 301.173 25.8594 302.58 28.5156C304.002 31.1562 306.158 32.4766 309.048 32.4766ZM329.641 34C329.406 34 329.211 33.8594 329.055 33.5781C328.914 33.2969 328.844 33.0391 328.844 32.8047C328.844 32.5391 328.898 32.3359 329.008 32.1953C329.117 32.0547 329.32 31.9688 329.617 31.9375C331.742 31.7656 332.805 31.2656 332.805 30.4375L332.828 5.07812C332.828 4.45312 332.664 3.98437 332.336 3.67188C332.008 3.35938 331.633 3.16406 331.211 3.08594C330.805 2.99219 330.227 2.89844 329.477 2.80469C329.133 2.77344 328.906 2.71094 328.797 2.61719C328.688 2.50781 328.633 2.28125 328.633 1.9375C328.633 1.70312 328.703 1.44531 328.844 1.16406C329 0.882812 329.195 0.742188 329.43 0.742188L331.984 0.71875C332.406 0.703125 333.047 0.695312 333.906 0.695312C334.75 0.695312 336.312 0.664063 338.594 0.601562C341.25 0.539062 343.391 0.507812 345.016 0.507812C349.328 0.507812 352.625 1.23438 354.906 2.6875C357.203 4.14062 358.352 6.375 358.352 9.39062C358.352 11.3594 357.961 12.9609 357.18 14.1953C356.398 15.4297 355.391 16.375 354.156 17.0312C352.938 17.6875 351.477 18.2344 349.773 18.6719C351.18 18.8125 352.32 19.1953 353.195 19.8203C354.086 20.4453 354.781 21.1797 355.281 22.0234C355.781 22.8672 356.336 24.0078 356.945 25.4453C357.352 26.3672 357.672 27.0938 357.906 27.625C358.156 28.1406 358.445 28.6562 358.773 29.1719C359.273 30.125 359.781 30.8047 360.297 31.2109C360.828 31.6172 361.414 31.8516 362.055 31.9141C362.383 31.9453 362.602 32.0312 362.711 32.1719C362.836 32.3125 362.898 32.5625 362.898 32.9219C362.898 33.1406 362.82 33.375 362.664 33.625C362.523 33.875 362.336 34 362.102 34H354.109C353.281 34 352.578 33.6953 352 33.0859C351.422 32.4766 350.945 31.7266 350.57 30.8359C350.211 29.9453 349.789 28.7266 349.305 27.1797C348.773 25.4609 348.289 24.0859 347.852 23.0547C347.414 22.0234 346.82 21.1484 346.07 20.4297C345.336 19.7109 344.422 19.3516 343.328 19.3516H340.539V29.6641C340.539 30.2891 340.734 30.7656 341.125 31.0938C341.516 31.4062 341.977 31.6094 342.508 31.7031C343.039 31.7969 343.711 31.875 344.523 31.9375C344.867 31.9688 345.094 32.0391 345.203 32.1484C345.312 32.2422 345.367 32.4609 345.367 32.8047C345.367 33.0391 345.289 33.2969 345.133 33.5781C344.992 33.8594 344.805 34 344.57 34H329.641ZM343.914 17.3359C345.992 17.3359 347.586 16.7891 348.695 15.6953C349.82 14.5859 350.383 12.7266 350.383 10.1172C350.383 7.69531 349.844 5.86719 348.766 4.63281C347.703 3.39844 346.062 2.78125 343.844 2.78125H340.539V17.3359H343.914ZM365.561 34C365.327 34 365.131 33.8594 364.975 33.5781C364.834 33.2969 364.764 33.0391 364.764 32.8047C364.764 32.5391 364.819 32.3359 364.928 32.1953C365.038 32.0547 365.241 31.9688 365.538 31.9375C366.397 31.875 367.178 31.6875 367.881 31.375C368.584 31.0625 368.936 30.6719 368.936 30.2031V5.07812C368.936 4.45312 368.764 3.98437 368.42 3.67188C368.092 3.34375 367.686 3.13281 367.202 3.03906C366.733 2.92969 366.123 2.85156 365.373 2.80469C365.03 2.77344 364.803 2.71094 364.694 2.61719C364.584 2.50781 364.53 2.28125 364.53 1.9375C364.53 1.70312 364.6 1.44531 364.741 1.16406C364.897 0.882812 365.092 0.742188 365.327 0.742188H381.381C381.616 0.742188 381.803 0.882812 381.944 1.16406C382.1 1.44531 382.178 1.70312 382.178 1.9375C382.178 2.51563 381.92 2.80469 381.405 2.80469C379.952 2.80469 378.834 2.96875 378.053 3.29688C377.288 3.625 376.905 4.19531 376.905 5.00781V29.8516C376.905 30.5547 377.084 31.0312 377.444 31.2812C377.803 31.5156 378.319 31.6328 378.991 31.6328H385.413C386.1 31.6328 386.803 31.2266 387.522 30.4141C388.256 29.6016 388.936 28.5859 389.561 27.3672C390.186 26.1484 390.702 24.9219 391.108 23.6875C391.186 23.4375 391.428 23.25 391.834 23.125C392.256 22.9844 392.631 22.9141 392.959 22.9141C393.303 22.9141 393.616 22.9844 393.897 23.125C394.194 23.2656 394.327 23.4609 394.295 23.7109L392.913 34H365.561ZM396.067 34C395.833 34 395.638 33.8594 395.481 33.5781C395.341 33.2969 395.27 33.0391 395.27 32.8047C395.27 32.5391 395.325 32.3359 395.434 32.1953C395.544 32.0547 395.747 31.9688 396.044 31.9375C396.981 31.8594 397.778 31.7109 398.434 31.4922C399.106 31.2578 399.442 30.9062 399.442 30.4375V5.07812C399.442 4.46875 399.263 4.00781 398.903 3.69531C398.544 3.38281 398.145 3.17969 397.708 3.08594C397.286 2.99219 396.677 2.89844 395.88 2.80469C395.536 2.77344 395.309 2.71094 395.2 2.61719C395.091 2.50781 395.036 2.28125 395.036 1.9375C395.036 1.70312 395.106 1.44531 395.247 1.16406C395.403 0.882812 395.598 0.742188 395.833 0.742188H412.145C416.208 0.757813 419.669 1.51562 422.528 3.01562C425.388 4.5 427.536 6.45312 428.973 8.875C430.411 11.2969 431.13 13.9062 431.13 16.7031C431.13 20.5156 430.223 23.7266 428.411 26.3359C426.598 28.9297 424.356 30.8594 421.684 32.125C419.013 33.375 416.395 34 413.833 34H396.067ZM407.341 30.0625C407.341 30.4844 407.692 30.8516 408.395 31.1641C409.114 31.4766 410.388 31.6328 412.216 31.6328C414.419 31.6328 416.2 31.3047 417.559 30.6484C418.919 29.9766 419.997 28.5703 420.794 26.4297C421.591 24.2734 421.989 21.0625 421.989 16.7969C421.989 13.125 421.552 10.2812 420.677 8.26562C419.817 6.23438 418.661 4.85156 417.208 4.11719C415.77 3.38281 414.028 3.01562 411.981 3.01562H407.364L407.341 30.0625Z" fill="#DF362F"/>
</svg>
