<svg width="21" height="21" viewBox="0 0 21 21" fill="none" xmlns="http://www.w3.org/2000/svg">
<path d="M15.75 8.53125H14.4375C14.437 8.00926 14.2294 7.50881 13.8603 7.13971C13.4912 6.77061 12.9907 6.56302 12.4688 6.5625V5.25C13.3387 5.25104 14.1727 5.59708 14.7878 6.21221C15.4029 6.82733 15.749 7.66133 15.75 8.53125Z" fill="#D2D8D0"/>
<path d="M18.375 8.53125H17.0625C17.0611 7.31334 16.5767 6.14571 15.7155 5.28451C14.8543 4.42332 13.6867 3.93889 12.4688 3.9375V2.625C14.0347 2.62674 15.5359 3.24956 16.6432 4.35682C17.7504 5.46408 18.3733 6.96535 18.375 8.53125Z" fill="#D2D8D0"/>
<path d="M17.0624 19.0312H16.9509C4.05556 18.2897 2.22462 7.40906 1.96868 4.08844C1.92868 3.56787 2.0971 3.05272 2.43689 2.65632C2.77668 2.25992 3.26002 2.01472 3.78059 1.97466C3.83265 1.97072 3.88493 1.96875 3.93743 1.96875H7.39587C7.65874 1.9685 7.91562 2.04718 8.13325 2.19461C8.35088 2.34203 8.51923 2.55141 8.61649 2.79563L9.61399 5.25C9.71004 5.48858 9.73387 5.75011 9.68254 6.00212C9.6312 6.25413 9.50696 6.4855 9.32524 6.6675L7.92743 8.07844C8.14489 9.31962 8.73881 10.4639 9.62865 11.3561C10.5185 12.2483 11.6612 12.8452 12.9018 13.0659L14.3259 11.655C14.5106 11.4753 14.7442 11.3539 14.9974 11.3061C15.2506 11.2583 15.5124 11.286 15.7499 11.3859L18.224 12.3769C18.4645 12.4772 18.6697 12.6469 18.8135 12.8643C18.9572 13.0816 19.033 13.3369 19.0312 13.5975V17.0625C19.0312 17.5846 18.8238 18.0854 18.4545 18.4546C18.0853 18.8238 17.5846 19.0312 17.0624 19.0312ZM3.93743 3.28125C3.85125 3.28099 3.76586 3.29771 3.68615 3.33045C3.60643 3.36319 3.53394 3.41131 3.47282 3.47207C3.41169 3.53282 3.36314 3.60502 3.32992 3.68455C3.2967 3.76407 3.27947 3.84935 3.27921 3.93553C3.27921 3.95391 3.27987 3.97206 3.28118 3.99C3.58306 7.875 5.519 17.0625 17.0231 17.7188C17.1968 17.7292 17.3675 17.6702 17.4977 17.5547C17.6279 17.4393 17.7069 17.2769 17.7174 17.1032L17.7187 17.0625V13.5975L15.2446 12.6066L13.3612 14.4769L13.0462 14.4375C7.33681 13.7222 6.56243 8.01281 6.56243 7.95375L6.52306 7.63875L8.38681 5.75531L7.40243 3.28125H3.93743Z" fill="#D2D8D0"/>
</svg>
