<svg width="116" height="116" viewBox="0 0 116 116" fill="none" xmlns="http://www.w3.org/2000/svg">
    <g clip-path="url(#clip0)">
    <path d="M28.0333 89.0051C24.2959 89.0051 21.2666 92.0344 21.2666 95.7717C21.2666 99.5091 24.2959 102.538 28.0333 102.538C31.7706 102.538 34.7999 99.5091 34.7999 95.7717C34.7999 92.0344 31.7706 89.0051 28.0333 89.0051ZM28.0333 98.6717C26.4313 98.6717 25.1333 97.3737 25.1333 95.7717C25.1333 94.1697 26.4313 92.8717 28.0333 92.8717C29.6353 92.8717 30.9333 94.1697 30.9333 95.7717C30.9333 97.3737 29.6353 98.6717 28.0333 98.6717Z" fill="#DF362F"/>
    <path d="M80.2335 102.538C83.9708 102.538 87.0001 99.5091 87.0001 95.7717C87.0001 92.0344 83.9708 89.0051 80.2335 89.0051C76.4961 89.0051 73.4668 92.0344 73.4668 95.7717C73.4668 99.5091 76.4961 102.538 80.2335 102.538ZM80.2335 92.8717C81.8354 92.8717 83.1335 94.1697 83.1335 95.7717C83.1335 97.3737 81.8354 98.6717 80.2335 98.6717C78.6315 98.6717 77.3335 97.3737 77.3335 95.7717C77.3335 94.1697 78.6315 92.8717 80.2335 92.8717Z" fill="#DF362F"/>
    <path d="M94.7333 95.7717C94.7333 91.6681 92.9945 87.7561 89.9481 85.0072C86.9018 82.2573 82.8331 80.9272 78.7503 81.3473L77.2739 76.901L76.446 72.7653L79.1524 55.1717L91.7503 43.5038C91.8928 43.4736 92.0382 43.4537 92.1836 43.4131L93.846 42.9374L94.9089 45.3314C95.2204 46.0233 95.9077 46.4698 96.6667 46.4717H114.067C114.848 46.4717 115.553 46.0007 115.853 45.2785C116.152 44.5563 115.986 43.7247 115.434 43.1715L108.112 35.8478L102.234 7.10555C102.097 6.43058 101.611 5.88023 100.959 5.66027C100.307 5.43937 99.5865 5.58286 99.0682 6.03599L89.5677 14.3499C89.2316 14.6435 89.007 15.0437 88.9333 15.4846L87.0293 26.8174C86.966 27.1922 87.0142 27.5764 87.168 27.9238L88.3282 30.5548L86.3062 32.2096C85.6614 32.7449 85.128 33.4019 84.7363 34.143L62.8333 50.0637C62.3047 50.4479 62.0054 51.0738 62.0385 51.727L63.125 73.0919L62.0951 81.2717H56.0667C54.999 81.2717 54.1333 82.1374 54.1333 83.2051H50.2667V77.4051H58C59.0677 77.4051 59.9333 76.5394 59.9333 75.4717V71.6051C59.9333 71.4087 59.9031 71.2124 59.8446 71.0254L50.1779 40.0921C49.924 39.2859 49.1773 38.7384 48.3333 38.7384V34.8717H44.4667V38.7384H32.8667V34.8717H29V38.7384C27.9323 38.7384 27.0667 39.6041 27.0667 40.6717V63.8717H19.3333V52.2717C19.3333 48.001 15.8707 44.5384 11.6 44.5384H9.66667V48.4051H11.6C13.7354 48.4051 15.4667 50.1364 15.4667 52.2717V63.8717H7.73333V61.9384H9.66667C10.7343 61.9384 11.6 61.0727 11.6 60.0051V54.2051C11.6 53.1374 10.7343 52.2717 9.66667 52.2717H1.93333C0.865657 52.2717 0 53.1374 0 54.2051V60.0051C0 61.0727 0.865657 61.9384 1.93333 61.9384H3.86667V63.8717H1.93333C0.865657 63.8717 0 64.7374 0 65.8051V98.6717C0 99.7394 0.865657 100.605 1.93333 100.605H14.3801C15.1693 102.82 16.4834 104.81 18.21 106.405H0V110.272H116V106.405H90.0605C93.0369 103.67 94.7324 99.814 94.7333 95.7717ZM3.86667 56.1384H7.73333V58.0717H3.86667V56.1384ZM90.8667 95.7717C90.8667 101.644 86.106 106.405 80.2333 106.405C74.3606 106.405 69.6 101.644 69.6 95.7717C69.6 89.899 74.3606 85.1384 80.2333 85.1384C86.1032 85.146 90.8591 89.9019 90.8667 95.7717ZM92.6301 16.8043L99.1107 11.1365L104.441 37.1921C104.515 37.5631 104.698 37.9048 104.966 38.172L109.399 42.6051H97.9231L96.6903 39.8287L92.5659 30.5491L90.9384 26.8873L92.6301 16.8043ZM88.7634 35.2002L89.9642 34.2185L92.2487 39.3614L91.1121 39.6862C89.8906 40.0459 88.5897 39.454 88.0592 38.2957C87.5598 37.2242 87.8505 35.9498 88.7653 35.2002H88.7634ZM84.3011 39.2368C84.3728 39.4719 84.4568 39.7022 84.5541 39.9279C85.0742 41.0503 85.9068 41.999 86.9519 42.6608L76.0183 52.7881C75.6983 53.0845 75.4878 53.481 75.4236 53.9134L73.4204 66.9841C71.4286 65.5568 68.79 65.4114 66.6537 66.6113L65.9401 52.5757L84.3011 39.2368ZM63.8 85.1384C64.7752 85.1384 65.5974 84.4125 65.7182 83.4448L66.9898 73.2599V73.2269L67.1484 71.9591C67.3042 70.6875 68.3596 69.717 69.6396 69.6689C70.9197 69.6208 72.045 70.5091 72.2952 71.7655L73.5016 77.7798C73.5148 77.8591 73.5356 77.9365 73.563 78.0121L74.9809 82.2658C69.4112 84.4342 65.7409 89.7952 65.7333 95.7717C65.7333 96.0984 65.7607 96.4174 65.7815 96.7384H58V85.1384H63.8ZM54.1333 87.0717V92.8717H50.2667V87.0717H54.1333ZM54.1626 65.8051H38.6667V50.3384H49.3293L54.1626 65.8051ZM29 67.7384C30.0677 67.7384 30.9333 66.8727 30.9333 65.8051V42.6051H46.9126L48.1209 46.4717H36.7333C35.6657 46.4717 34.8 47.3374 34.8 48.4051V67.7384C34.8 68.8061 35.6657 69.6717 36.7333 69.6717H55.3709L56.0667 71.8987V73.5384H21.2667C20.7956 73.5384 20.3415 73.7102 19.9885 74.0217L7.00456 85.4613H3.86667V67.7384H29ZM3.86667 96.7384V89.3279H7.73333C8.20439 89.3279 8.65846 89.1561 9.01152 88.8446L21.9992 77.4051H46.4V96.7384H42.4871C42.5078 96.4174 42.5352 96.0984 42.5352 95.7717C42.5352 87.7637 36.0433 81.2717 28.0352 81.2717C20.0272 81.2717 13.5352 87.7637 13.5352 95.7717C13.5352 96.0984 13.5626 96.4174 13.5834 96.7384H3.86667ZM17.4 95.7717C17.4 89.899 22.1606 85.1384 28.0333 85.1384C33.906 85.1384 38.6667 89.899 38.6667 95.7717C38.6667 101.644 33.906 106.405 28.0333 106.405C22.1635 106.398 17.4076 101.642 17.4 95.7717ZM37.8605 106.405C39.588 104.811 40.9011 102.82 41.6884 100.605H48.3333C49.401 100.605 50.2667 99.7394 50.2667 98.6717V96.7384H54.1333V98.6717C54.1333 99.7394 54.999 100.605 56.0667 100.605H66.5782C67.3665 102.82 68.6815 104.81 70.4081 106.405H37.8605Z" fill="#DF362F"/>
    <path d="M7.7334 71.6051H11.6001V75.4717H7.7334V71.6051Z" fill="#DF362F"/>
    </g>
    <defs>
    <clipPath id="clip0">
    <rect width="116" height="116" fill="white"/>
    </clipPath>
    </defs>
</svg>
