<svg width="36" height="36" viewBox="0 0 36 36" fill="none" xmlns="http://www.w3.org/2000/svg">
<path d="M30.9375 3.9375H5.0625C4.44023 3.9375 3.9375 4.44023 3.9375 5.0625V30.9375C3.9375 31.5598 4.44023 32.0625 5.0625 32.0625H30.9375C31.5598 32.0625 32.0625 31.5598 32.0625 30.9375V5.0625C32.0625 4.44023 31.5598 3.9375 30.9375 3.9375ZM29.8125 29.8125H23.3402V21.1711H26.9965L27.5449 16.9277H23.3402V14.2172C23.3402 12.9867 23.6813 12.15 25.4426 12.15H27.6891V8.35313C27.2988 8.30039 25.9664 8.18438 24.4125 8.18438C21.1711 8.18438 18.9527 10.1637 18.9527 13.7953V16.9242H15.2895V21.1676H18.9563V29.8125H6.1875V6.1875H29.8125V29.8125Z" fill="#DF362F"/>
</svg>
