<svg width="66" height="26" viewBox="0 0 66 26" fill="none" xmlns="http://www.w3.org/2000/svg">
<path d="M17.5625 11.5527C19.0508 11.6465 20.3516 11.9512 21.4648 12.4668C22.5781 12.9707 23.4336 13.6621 24.0312 14.541C24.6406 15.4082 24.9453 16.4277 24.9453 17.5996C24.9453 20.084 24.0898 21.9414 22.3789 23.1719C20.6797 24.3906 18.1016 25 14.6445 25H1.53125C1.35547 25 1.20898 24.8945 1.0918 24.6836C0.986328 24.4727 0.933594 24.2793 0.933594 24.1035C0.933594 23.9043 0.974609 23.752 1.05664 23.6465C1.13867 23.541 1.29102 23.4766 1.51367 23.4531C2.36914 23.3945 3.0957 23.2832 3.69336 23.1191C4.29102 22.9434 4.58984 22.6797 4.58984 22.3281L4.60742 3.30859C4.60742 2.83984 4.44336 2.48828 4.11523 2.25391C3.78711 2.01953 3.41211 1.86719 2.99023 1.79688C2.56836 1.71484 2.04102 1.65039 1.4082 1.60352C1.15039 1.58008 0.980469 1.5332 0.898438 1.46289C0.816406 1.38086 0.775391 1.21094 0.775391 0.953125C0.775391 0.777344 0.828125 0.583984 0.933594 0.373047C1.05078 0.162109 1.19727 0.0566406 1.37305 0.0566406H13.5723C16.748 0.0566406 19.1504 0.496094 20.7793 1.375C22.4199 2.24219 23.2402 3.61328 23.2402 5.48828C23.2402 6.66016 22.9883 7.68555 22.4844 8.56445C21.9922 9.43164 21.3184 10.1172 20.4629 10.6211C19.6074 11.125 18.6406 11.4355 17.5625 11.5527ZM10.5137 10.9023H12.0254C13.5723 10.9023 14.8672 10.5273 15.9102 9.77734C16.9648 9.01562 17.4922 7.80273 17.4922 6.13867C17.4922 3.2207 15.8281 1.76172 12.5 1.76172H10.5137V10.9023ZM13.2559 23.2246C14.8027 23.2246 16.0684 22.8438 17.0527 22.082C18.0488 21.3203 18.5469 19.8438 18.5469 17.6523C18.5469 16.0586 18.2129 14.8926 17.5449 14.1543C16.877 13.416 16.1152 12.9707 15.2598 12.8184C14.416 12.666 13.3555 12.5898 12.0781 12.5898H10.5137V22.5742C10.5605 22.75 10.8066 22.9023 11.252 23.0312C11.6973 23.1602 12.3652 23.2246 13.2559 23.2246Z" fill="#C85D67"/>
<path d="M27.2762 3.81836C27.077 3.29102 26.866 2.88672 26.6434 2.60547C26.4324 2.3125 26.1629 2.0957 25.8348 1.95508C25.5184 1.80273 25.0789 1.68555 24.5164 1.60352C24.2469 1.56836 24.0711 1.51562 23.9891 1.44531C23.907 1.36328 23.866 1.19922 23.866 0.953125C23.866 0.777344 23.9246 0.583984 24.0418 0.373047C24.1473 0.162109 24.2879 0.0566406 24.4637 0.0566406H35.907C36.0828 0.0566406 36.2234 0.162109 36.3289 0.373047C36.4461 0.583984 36.5047 0.777344 36.5047 0.953125C36.5047 1.15234 36.4637 1.30469 36.3816 1.41016C36.2996 1.51562 36.1473 1.58008 35.9246 1.60352C34.9988 1.60352 34.3367 1.7207 33.9383 1.95508C33.5516 2.18945 33.3582 2.49414 33.3582 2.86914C33.3582 3.0332 33.3875 3.20312 33.4461 3.37891L38.9832 17.6523L44.6961 0.583984H47.7547L54.5223 17.125L59.6551 3.32617C59.7137 3.15039 59.743 2.98633 59.743 2.83398C59.743 2.01367 58.6648 1.60352 56.5086 1.60352C56.2859 1.58008 56.1336 1.51562 56.0516 1.41016C55.9695 1.30469 55.9285 1.15234 55.9285 0.953125C55.9285 0.777344 55.9813 0.583984 56.0867 0.373047C56.2039 0.162109 56.3504 0.0566406 56.5262 0.0566406H65.0516C65.2273 0.0566406 65.368 0.162109 65.4734 0.373047C65.5906 0.583984 65.6492 0.777344 65.6492 0.953125C65.6492 1.21094 65.6023 1.38672 65.5086 1.48047C65.4266 1.5625 65.2625 1.60352 65.0164 1.60352C64.2313 1.60352 63.616 1.70898 63.1707 1.91992C62.7371 2.13086 62.4148 2.41211 62.2039 2.76367C61.993 3.11523 61.7703 3.61328 61.5359 4.25781L53.6258 25.3164H51.4637L44.2215 7.65039L38.2625 25.3164H36.1004L27.2762 3.81836Z" fill="#3C3A3F"/>
</svg>
