<svg width="23" height="23" viewBox="0 0 23 23" fill="none" xmlns="http://www.w3.org/2000/svg">
<g clip-path="url(#clip0)">
<path d="M22.0418 2.87487C21.1241 3.5222 20.108 4.01731 19.0327 4.34112C18.4555 3.67749 17.6884 3.20712 16.8352 2.99363C15.982 2.78015 15.0838 2.83385 14.2622 3.14747C13.4405 3.46109 12.7349 4.01951 12.2409 4.74718C11.747 5.47486 11.4884 6.33669 11.5002 7.21612V8.17445C9.81602 8.21812 8.14722 7.84461 6.64238 7.08717C5.13754 6.32974 3.84338 5.2119 2.87516 3.8332C2.87516 3.8332 -0.95817 12.4582 7.66683 16.2915C5.69317 17.6313 3.34202 18.303 0.958496 18.2082C9.5835 22.9999 20.1252 18.2082 20.1252 7.18737C20.1243 6.92043 20.0986 6.65415 20.0485 6.39195C21.0266 5.42739 21.7168 4.20955 22.0418 2.87487V2.87487Z" stroke="#D2D8D0" stroke-width="2" stroke-linecap="round" stroke-linejoin="round"/>
</g>
<defs>
<clipPath id="clip0">
<rect width="23" height="23" fill="white"/>
</clipPath>
</defs>
</svg>
