<svg width="909" height="933" viewBox="0 0 909 933" fill="none" xmlns="http://www.w3.org/2000/svg">
<path d="M889.206 583.915C861.605 676.939 804.988 758.676 727.64 817.166C650.292 875.655 556.275 907.825 459.348 908.968C362.421 910.112 267.673 880.167 188.97 823.518C110.267 766.869 51.742 686.489 21.9597 594.142L41.4015 587.859C69.8436 676.05 125.735 752.812 200.896 806.912C276.057 861.012 366.542 889.609 459.107 888.517C551.673 887.426 641.459 856.703 715.326 800.846C789.193 744.988 843.263 666.929 869.622 578.091L889.206 583.915Z" fill="#DF362F"/>
<path d="M463 107C510.67 107 557.873 116.195 601.914 134.061C645.955 151.926 685.972 178.112 719.68 211.124C753.387 244.135 780.126 283.325 798.368 326.456C816.611 369.587 826 415.815 826 462.5C826 509.185 816.611 555.413 798.368 598.544C780.126 641.675 753.387 680.865 719.68 713.877C685.972 746.888 645.955 773.074 601.914 790.939C557.873 808.805 510.67 818 463 818" stroke="#DF362F"/>
<path d="M845 462C845 559.527 807.892 653.38 741.245 724.417C674.598 795.454 583.432 838.325 486.342 844.284C389.252 850.243 293.551 818.842 218.759 756.486C143.968 694.13 95.7187 605.516 83.8537 508.718C71.9886 411.92 97.4011 314.229 154.908 235.572C212.415 156.914 297.685 103.215 393.325 85.4261C488.965 67.6375 587.771 87.0997 669.591 139.843C751.41 192.587 810.08 274.638 833.633 369.263" stroke="#D2D8D0" stroke-width="2"/>
<path d="M790 462C790 418.926 781.542 376.275 765.109 336.48C748.675 296.685 724.589 260.527 694.224 230.069C663.859 199.611 627.811 175.451 588.137 158.968C548.464 142.484 505.942 134 463 134C420.058 134 377.536 142.484 337.862 158.968C298.189 175.451 262.141 199.611 231.776 230.069C201.411 260.527 177.325 296.685 160.891 336.48C144.458 376.275 136 418.926 136 462" stroke="#D2D8D0"/>
<path d="M889.141 345.617C860.171 250.861 801.029 168.168 720.72 110.129C640.411 52.0902 543.336 21.8858 444.275 24.115C345.214 26.3442 249.596 60.8848 171.979 122.477C94.3622 184.07 38.9999 269.34 14.3219 365.303L32.1502 369.888C55.8287 277.811 108.949 195.995 183.422 136.897C257.895 77.7993 349.64 44.6577 444.689 42.5188C539.738 40.3799 632.881 69.3609 709.937 125.049C786.993 180.737 843.74 260.081 871.537 350.999L889.141 345.617Z" fill="#DF362F"/>
<path d="M463 835L463 800" stroke="#DF362F"/>
<path d="M772 462C772 505.336 763.451 548.248 746.842 588.286C730.233 628.323 705.889 664.702 675.199 695.345C644.509 725.989 608.075 750.296 567.977 766.88C527.879 783.464 484.902 792 441.5 792C398.098 792 355.121 783.464 315.023 766.88C274.925 750.296 238.491 725.989 207.801 695.345C177.111 664.702 152.767 628.323 136.158 588.286C119.549 548.248 111 505.336 111 462L119.155 462C119.155 504.267 127.492 546.12 143.692 585.17C159.891 624.219 183.635 659.701 213.567 689.588C243.5 719.475 279.035 743.183 318.144 759.358C357.252 775.533 399.169 783.858 441.5 783.858C483.831 783.858 525.747 775.533 564.856 759.358C603.965 743.183 639.5 719.475 669.433 689.588C699.365 659.701 723.109 624.219 739.308 585.17C755.508 546.12 763.845 504.267 763.845 462H772Z" fill="#C4C4C4"/>
</svg>
