<svg width="414" height="791" viewBox="0 0 414 791" fill="none" xmlns="http://www.w3.org/2000/svg">
<path d="M560.233 494.625C536.853 573.424 488.893 642.663 423.373 692.209C357.853 741.754 278.212 769.005 196.107 769.973C114.001 770.942 33.7413 745.576 -32.9265 697.59C-99.5944 649.603 -149.17 581.515 -174.398 503.289L-157.929 497.966C-133.837 572.671 -86.4917 637.696 -22.8239 683.523C40.8439 729.35 117.492 753.574 195.903 752.649C274.313 751.725 350.37 725.7 412.942 678.384C475.514 631.068 521.315 564.945 543.644 489.692L560.233 494.625Z" fill="#DF362F"/>
<path d="M199.201 90.6372C239.581 90.6372 279.566 98.4264 316.873 113.56C354.179 128.694 388.077 150.875 416.63 178.839C445.183 206.802 467.833 239.999 483.286 276.535C498.739 313.071 506.692 352.23 506.692 391.776C506.692 431.322 498.739 470.481 483.286 507.017C467.833 543.552 445.183 576.75 416.63 604.713C388.077 632.676 354.179 654.858 316.873 669.992C279.566 685.125 239.581 692.914 199.201 692.914" stroke="#DF362F"/>
<path d="M522.787 391.353C522.787 473.966 491.354 553.468 434.898 613.642C378.442 673.817 301.217 710.132 218.973 715.18C136.73 720.228 55.6633 693.629 -7.69177 640.808C-71.0468 587.987 -111.918 512.923 -121.968 430.927C-132.019 348.931 -110.493 266.179 -61.7793 199.549C-13.066 132.919 59.1644 87.4314 140.18 72.3629C221.195 57.2944 304.892 73.7806 374.2 118.459C443.509 163.137 493.206 232.642 513.158 312.796" stroke="#D2D8D0" stroke-width="2"/>
<path d="M476.197 391.354C476.197 354.867 469.032 318.737 455.111 285.027C441.191 251.318 420.788 220.688 395.066 194.888C369.345 169.088 338.809 148.622 305.202 134.659C271.595 120.696 235.576 113.51 199.2 113.51C162.824 113.51 126.805 120.696 93.1978 134.659C59.591 148.622 29.0551 169.088 3.33357 194.888C-22.388 220.689 -42.7914 251.318 -56.7118 285.027C-70.6321 318.737 -77.7969 354.867 -77.7969 391.354" stroke="#D2D8D0"/>
<path d="M560.177 292.767C535.637 212.501 485.539 142.452 417.511 93.2886C349.482 44.1249 267.251 18.5392 183.338 20.4275C99.4256 22.3158 18.4286 51.5746 -47.3193 103.749C-113.067 155.923 -159.964 228.154 -180.868 309.443L-165.766 313.327C-145.708 235.33 -100.711 166.025 -37.6263 115.964C25.4587 65.9026 103.175 37.8288 183.689 36.017C264.203 34.2052 343.104 58.7546 408.377 105.927C473.65 153.1 521.719 220.311 545.265 297.326L560.177 292.767Z" fill="#DF362F"/>
<path d="M199.201 707.315L199.201 677.667" stroke="#DF362F"/>
<path d="M460.95 391.354C460.95 428.063 453.709 464.413 439.64 498.328C425.57 532.243 404.948 563.06 378.951 589.017C352.955 614.975 322.092 635.565 288.125 649.613C254.159 663.661 217.754 670.892 180.989 670.892C144.224 670.892 107.819 663.661 73.8522 649.613C39.8857 635.565 9.02298 614.975 -16.9738 589.017C-42.9707 563.06 -63.5925 532.243 -77.6619 498.328C-91.7312 464.413 -98.9727 428.063 -98.9727 391.354H-92.065C-92.065 427.158 -85.0023 462.611 -71.2801 495.689C-57.5578 528.767 -37.4448 558.823 -12.0894 584.14C13.266 609.457 43.3672 629.54 76.4956 643.241C109.624 656.943 145.131 663.995 180.989 663.995C216.847 663.995 252.354 656.943 285.482 643.241C318.61 629.54 348.712 609.457 374.067 584.14C399.422 558.823 419.535 528.767 433.258 495.689C446.98 462.611 454.043 427.158 454.043 391.354H460.95Z" fill="#C4C4C4"/>
</svg>
