<svg width="32" height="32" viewBox="0 0 32 32" fill="none" xmlns="http://www.w3.org/2000/svg">
<path d="M5.3335 8.00008C5.3335 7.64646 5.47397 7.30732 5.72402 7.05727C5.97407 6.80722 6.31321 6.66675 6.66683 6.66675H25.3335C25.6871 6.66675 26.0263 6.80722 26.2763 7.05727C26.5264 7.30732 26.6668 7.64646 26.6668 8.00008C26.6668 8.3537 26.5264 8.69284 26.2763 8.94289C26.0263 9.19294 25.6871 9.33341 25.3335 9.33341H6.66683C6.31321 9.33341 5.97407 9.19294 5.72402 8.94289C5.47397 8.69284 5.3335 8.3537 5.3335 8.00008Z" fill="white"/>
<path d="M5.3335 24.0001C5.3335 23.6465 5.47397 23.3073 5.72402 23.0573C5.97407 22.8072 6.31321 22.6667 6.66683 22.6667H25.3335C25.6871 22.6667 26.0263 22.8072 26.2763 23.0573C26.5264 23.3073 26.6668 23.6465 26.6668 24.0001C26.6668 24.3537 26.5264 24.6928 26.2763 24.9429C26.0263 25.1929 25.6871 25.3334 25.3335 25.3334H6.66683C6.31321 25.3334 5.97407 25.1929 5.72402 24.9429C5.47397 24.6928 5.3335 24.3537 5.3335 24.0001Z" fill="white"/>
<path d="M6.66683 14.6667C6.31321 14.6667 5.97407 14.8072 5.72402 15.0573C5.47397 15.3073 5.3335 15.6465 5.3335 16.0001C5.3335 16.3537 5.47397 16.6928 5.72402 16.9429C5.97407 17.1929 6.31321 17.3334 6.66683 17.3334H17.3335C17.6871 17.3334 18.0263 17.1929 18.2763 16.9429C18.5264 16.6928 18.6668 16.3537 18.6668 16.0001C18.6668 15.6465 18.5264 15.3073 18.2763 15.0573C18.0263 14.8072 17.6871 14.6667 17.3335 14.6667H6.66683Z" fill="white"/>
</svg>
