<svg width="23" height="23" viewBox="0 0 23 23" fill="none" xmlns="http://www.w3.org/2000/svg">
<path d="M20.5424 3.12395C20.3939 2.99561 20.2131 2.91037 20.0196 2.87749C19.8261 2.84462 19.6273 2.86534 19.4447 2.93743L2.86343 9.45155C2.6467 9.53674 2.46338 9.6898 2.34089 9.88785C2.2184 10.0859 2.16333 10.3183 2.18391 10.5502C2.20449 10.7822 2.29962 11.0013 2.45507 11.1746C2.61051 11.348 2.81792 11.4664 3.04626 11.5121L7.54689 12.4124V17.9676C7.54465 18.1813 7.60698 18.3907 7.72574 18.5684C7.84449 18.7462 8.01413 18.8839 8.21246 18.9636C8.3453 19.0192 8.48782 19.0481 8.63185 19.0485C8.77261 19.048 8.91189 19.0197 9.04159 18.965C9.1713 18.9103 9.28885 18.8304 9.38743 18.7299L11.9566 16.1607L15.7474 19.4966C15.9427 19.6701 16.1948 19.7661 16.4561 19.7663C16.5696 19.7662 16.6825 19.7483 16.7906 19.7133C16.9687 19.6568 17.129 19.5546 17.2553 19.4168C17.3816 19.279 17.4696 19.1105 17.5105 18.9281L20.8899 4.18177C20.934 3.99053 20.9249 3.79087 20.8637 3.60441C20.8024 3.41795 20.6913 3.25179 20.5424 3.12395ZM2.89973 10.4866C2.89082 10.409 2.90833 10.3307 2.94945 10.2642C2.99056 10.1978 3.05287 10.1472 3.12631 10.1205L18.3256 4.14925L7.82289 11.7346L3.18722 10.8074C3.1102 10.7941 3.03992 10.7552 2.98775 10.697C2.93558 10.6388 2.90457 10.5647 2.89973 10.4866ZM8.8791 18.2217C8.82883 18.272 8.7648 18.3062 8.69509 18.3201C8.62538 18.3339 8.55312 18.3268 8.48746 18.2996C8.4218 18.2724 8.36568 18.2263 8.3262 18.1672C8.28671 18.1081 8.26564 18.0386 8.26564 17.9676V12.9126L11.4159 15.6849L8.8791 18.2217ZM20.1893 4.02122L16.8098 18.7675C16.7959 18.8282 16.7665 18.8842 16.7244 18.9301C16.6823 18.976 16.6291 19.0102 16.5698 19.0293C16.5106 19.0484 16.4474 19.0518 16.3864 19.0392C16.3255 19.0265 16.2689 18.9982 16.2221 18.9571L8.48172 12.1453L20.1311 3.73192C20.1618 3.77273 20.1829 3.81989 20.193 3.86994C20.203 3.91998 20.2018 3.97173 20.1893 4.02122Z" fill="#D2D8D0"/>
</svg>
