<svg width="36" height="36" viewBox="0 0 36 36" fill="none" xmlns="http://www.w3.org/2000/svg">
<path d="M27 14.625H24.75C24.7491 13.7302 24.3932 12.8722 23.7605 12.2395C23.1278 11.6068 22.2698 11.2509 21.375 11.25V9C22.8663 9.00179 24.296 9.59499 25.3505 10.6495C26.405 11.704 26.9982 13.1337 27 14.625Z" fill="white"/>
<path d="M31.5 14.625H29.25C29.2476 12.5372 28.4172 10.5355 26.9408 9.05917C25.4645 7.58283 23.4628 6.75238 21.375 6.75V4.5C24.0594 4.50298 26.633 5.57067 28.5312 7.46883C30.4293 9.36699 31.497 11.9406 31.5 14.625Z" fill="white"/>
<path d="M29.2502 32.625H29.0589C6.95266 31.3538 3.81391 12.7013 3.37516 7.00875C3.30659 6.11634 3.59531 5.23324 4.17781 4.55369C4.76031 3.87414 5.58889 3.4538 6.48129 3.38513C6.57054 3.37838 6.66016 3.375 6.75016 3.375H12.6789C13.1295 3.37456 13.5699 3.50945 13.943 3.76218C14.3161 4.01492 14.6047 4.37385 14.7714 4.7925L16.4814 9C16.6461 9.40899 16.6869 9.85734 16.5989 10.2894C16.5109 10.7214 16.2979 11.118 15.9864 11.43L13.5902 13.8488C13.9629 15.9765 14.9811 17.9381 16.5065 19.4676C18.032 20.997 19.9909 22.0204 22.1177 22.3988L24.5589 19.98C24.8756 19.6719 25.276 19.4639 25.7101 19.3819C26.1442 19.2999 26.5929 19.3475 27.0002 19.5188L31.2414 21.2175C31.6537 21.3895 32.0055 21.6803 32.252 22.053C32.4984 22.4257 32.6283 22.8632 32.6252 23.31V29.25C32.6252 30.1451 32.2696 31.0036 31.6366 31.6365C31.0037 32.2694 30.1453 32.625 29.2502 32.625ZM6.75016 5.625C6.60242 5.62456 6.45605 5.65322 6.31939 5.70934C6.18272 5.76547 6.05846 5.84797 5.95368 5.95212C5.8489 6.05627 5.76566 6.18004 5.70871 6.31636C5.65177 6.45269 5.62223 6.59889 5.62179 6.74663C5.62179 6.77813 5.62291 6.80925 5.62516 6.84C6.14266 13.5 9.46141 29.25 29.1827 30.375C29.4804 30.3928 29.7731 30.2917 29.9963 30.0938C30.2195 29.8959 30.355 29.6175 30.3729 29.3197L30.3752 29.25V23.31L26.1339 21.6112L22.9052 24.8175L22.3652 24.75C12.5777 23.5238 11.2502 13.7363 11.2502 13.635L11.1827 13.095L14.3777 9.86625L12.6902 5.625H6.75016Z" fill="white"/>
</svg>
