<svg width="52" height="52" viewBox="0 0 52 52" fill="none" xmlns="http://www.w3.org/2000/svg">
<path d="M22.2042 33.1239C22.2042 30.8619 21.5802 28.9379 20.3322 27.3519C18.4342 24.9599 14.7682 24.6739 12.6362 25.1419C11.7522 20.1239 16.0162 13.7279 21.5282 10.9719L17.2902 5.04395C8.97021 8.99595 0.806208 18.0959 2.21021 29.5619C3.09421 36.8159 7.28021 41.5999 13.2082 41.5999C15.8082 41.5999 17.9662 40.8459 19.6562 39.3119C21.3722 37.7779 22.2042 35.7239 22.2042 33.1239ZM46.7222 33.1239C46.7222 30.8619 46.0982 28.9379 44.8502 27.3519C42.9522 24.9599 39.2862 24.6739 37.1542 25.1419C36.2702 20.1239 40.5342 13.7279 46.0462 10.9719L41.8082 5.04395C33.4882 8.99595 25.3242 18.0959 26.7282 29.5619C27.6122 36.8159 31.7982 41.5999 37.7262 41.5999C40.3262 41.5999 42.4842 40.8459 44.1742 39.3119C45.8902 37.7779 46.7222 35.7239 46.7222 33.1239Z" fill="#DF362F"/>
</svg>
