<svg width="143" height="143" viewBox="0 0 143 143" fill="none" xmlns="http://www.w3.org/2000/svg">
<path d="M32.748 78.8248C30.4832 78.8248 28.2693 79.4964 26.3861 80.7547C24.503 82.013 23.0353 83.8014 22.1685 85.8938C21.3018 87.9862 21.0751 90.2887 21.5169 92.51C21.9588 94.7313 23.0494 96.7717 24.6508 98.3732C26.2523 99.9747 28.2927 101.065 30.514 101.507C32.7353 101.949 35.0378 101.722 37.1302 100.855C39.2227 99.9888 41.0111 98.5211 42.2693 96.6379C43.5276 94.7548 44.1992 92.5408 44.1992 90.276C44.1957 87.24 42.9882 84.3294 40.8414 82.1826C38.6947 80.0359 35.784 78.8283 32.748 78.8248ZM32.748 97.817C31.2566 97.817 29.7986 97.3747 28.5585 96.5461C27.3184 95.7175 26.3518 94.5398 25.7811 93.1618C25.2103 91.7839 25.061 90.2676 25.3519 88.8048C25.6429 87.342 26.3611 85.9983 27.4157 84.9437C28.4704 83.8891 29.8141 83.1709 31.2769 82.8799C32.7397 82.5889 34.2559 82.7382 35.6339 83.309C37.0118 83.8798 38.1896 84.8463 39.0182 86.0864C39.8468 87.3265 40.2891 88.7845 40.2891 90.276C40.2868 92.2753 39.4916 94.1921 38.0779 95.6058C36.6642 97.0196 34.7474 97.8148 32.748 97.817Z" fill="#DF362F"/>
<path d="M111.663 78.9647C109.398 78.9647 107.184 79.6363 105.301 80.8946C103.418 82.1529 101.95 83.9413 101.084 86.0337C100.217 88.1262 99.9901 90.4286 100.432 92.6499C100.874 94.8712 101.964 96.9116 103.566 98.5131C105.167 100.115 107.208 101.205 109.429 101.647C111.65 102.089 113.953 101.862 116.045 100.995C118.138 100.129 119.926 98.661 121.184 96.7778C122.443 94.8947 123.114 92.6807 123.114 90.4159C123.111 87.3799 121.903 84.4692 119.757 82.3225C117.61 80.1757 114.699 78.9681 111.663 78.9647ZM111.663 97.9569C110.172 97.9569 108.714 97.5146 107.474 96.686C106.233 95.8574 105.267 94.6797 104.696 93.3017C104.125 91.9238 103.976 90.4075 104.267 88.9447C104.558 87.4819 105.276 86.1382 106.331 85.0836C107.385 84.029 108.729 83.3107 110.192 83.0198C111.655 82.7288 113.171 82.8781 114.549 83.4489C115.927 84.0197 117.105 84.9862 117.933 86.2263C118.762 87.4664 119.204 88.9244 119.204 90.4159C119.202 92.4152 118.407 94.332 116.993 95.7458C115.579 97.1595 113.662 97.9547 111.663 97.9569Z" fill="#DF362F"/>
<path d="M137.853 56.4101L121.821 42.6308C120.458 41.4489 118.718 40.7918 116.914 40.7773H76.2344C75.7713 40.7773 75.306 40.8259 74.8401 40.8393C74.5955 40.8203 74.3494 40.8392 74.1106 40.8952C70.2306 41.0731 66.3808 41.6661 62.627 42.664C59.7573 43.4263 56.9436 44.386 54.2062 45.5363C45.7358 49.142 37.9452 54.1712 31.1721 60.4061C24.3195 60.5071 17.5281 61.7138 11.0602 63.9797C8.55063 64.8611 6.3809 66.5077 4.85671 68.6875C3.32751 70.8586 2.50893 73.4503 2.51369 76.1059V88.6527C2.51174 89.4984 2.84162 90.3111 3.43245 90.9162C4.02327 91.5213 4.82788 91.8705 5.67338 91.8887H17.7074C18.2176 91.8805 18.705 91.6765 19.0689 91.3189C19.4329 90.9614 19.6454 90.4776 19.6625 89.9677C19.7861 86.577 21.2202 83.3666 23.6631 81.012C26.1059 78.6574 29.367 77.3423 32.7598 77.3435C36.1527 77.3447 39.4128 78.6622 41.854 81.0186C44.2951 83.3749 45.7269 86.5864 45.848 89.9772C45.8656 90.486 46.0786 90.9686 46.4427 91.3245C46.8067 91.6805 47.2939 91.8825 47.8031 91.8887H96.3798C96.8899 91.8806 97.3774 91.6766 97.7413 91.319C98.1053 90.9614 98.3178 90.4776 98.3348 89.9677C98.4554 86.6058 99.8644 83.4191 102.27 81.0677C104.676 78.7162 107.894 77.3802 111.257 77.3363C114.621 77.2925 117.873 78.5441 120.339 80.832C122.805 83.12 124.297 86.2688 124.505 89.6264C124.522 89.9061 124.6 90.1787 124.732 90.4258C124.864 90.6729 125.048 90.8887 125.271 91.0584C125.494 91.2281 125.751 91.3478 126.025 91.4094C126.298 91.471 126.582 91.473 126.856 91.4153C127.417 91.2965 127.971 91.1481 128.516 90.9706C131.995 89.8403 135.027 87.6378 137.177 84.6786C139.327 81.7195 140.486 78.1556 140.486 74.4977V62.1357C140.487 61.0478 140.252 59.9726 139.797 58.9842C139.343 57.9958 138.679 57.1177 137.853 56.4101ZM116.914 44.6875C117.785 44.7017 118.622 45.025 119.277 45.5997L135.308 59.3598C135.742 59.7199 136.09 60.1716 136.329 60.6826L107.529 60.6119V44.6875H116.914ZM103.619 60.601L76.5274 60.5261V44.6875H103.619V60.601ZM55.7144 49.1465C58.2888 48.0666 60.9346 47.1658 63.6331 46.4504C66.5742 45.6633 69.5816 45.1491 72.6172 44.9143V60.5153L37.1387 60.4167C40.9874 57.2838 47.5347 52.567 55.7144 49.1465ZM32.7543 73.4894C28.6693 73.4533 24.7104 74.9029 21.6147 77.5684C18.519 80.2339 16.4974 83.9335 15.9264 87.9785H6.42385V76.1059C6.42024 74.2551 6.99059 72.4487 8.05634 70.9355C9.11334 69.423 10.6182 68.2801 12.3589 67.6678C18.6654 65.4599 25.2977 64.3258 31.9795 64.3126L72.6172 64.4243V87.9785H49.5825C49.0114 83.9335 46.9898 80.2338 43.894 77.5683C40.7982 74.9028 36.8393 73.4532 32.7543 73.4894ZM131.033 85.3554C130.123 86.0149 129.133 86.5574 128.087 86.97C127.265 83.0616 125.096 79.5664 121.958 77.0964C118.819 74.6264 114.912 73.3388 110.92 73.459C106.928 73.5792 103.106 75.0996 100.122 77.754C97.1377 80.4084 95.1824 84.0278 94.5979 87.9785H76.5274V64.4363L136.576 64.6039V69.8242H131.737C131.218 69.8242 130.721 70.0302 130.354 70.3968C129.987 70.7635 129.781 71.2608 129.781 71.7793C129.781 72.2978 129.987 72.7951 130.354 73.1617C130.721 73.5284 131.218 73.7344 131.737 73.7344H136.576V74.4977C136.573 76.6163 136.07 78.7042 135.107 80.5912C134.143 82.4781 132.748 84.1106 131.033 85.3554Z" fill="#DF362F"/>
<path d="M65.4309 67.0312H58.5283C58.0098 67.0313 57.5125 67.2372 57.1459 67.6039C56.7792 67.9705 56.5732 68.4678 56.5732 68.9863C56.5732 69.5048 56.7792 70.0021 57.1459 70.3688C57.5125 70.7354 58.0098 70.9414 58.5283 70.9414H65.4309C65.9494 70.9414 66.4467 70.7354 66.8133 70.3688C67.18 70.0021 67.3859 69.5048 67.3859 68.9863C67.3859 68.4678 67.18 67.9705 66.8133 67.6039C66.4467 67.2372 65.9494 67.0312 65.4309 67.0312Z" fill="#DF362F"/>
</svg>
