<svg width="116" height="116" viewBox="0 0 116 116" fill="none" xmlns="http://www.w3.org/2000/svg">
<g clip-path="url(#clip0)">
<path d="M31.4163 101.5H21.7497C20.4157 101.5 19.333 100.417 19.333 99.0834C19.333 97.7494 20.4157 96.6667 21.7497 96.6667H31.4163C32.7503 96.6667 33.833 97.7494 33.833 99.0834C33.833 100.417 32.7503 101.5 31.4163 101.5Z" fill="#DF362F"/>
<path d="M55.5833 101.5H50.75C49.416 101.5 48.3333 100.417 48.3333 99.0833C48.3333 97.7493 49.416 96.6666 50.75 96.6666H53.1667V21.75C53.1667 20.4208 52.084 19.3333 50.75 19.3333H2.41667C1.08267 19.3333 0 18.2506 0 16.9166C0 15.5826 1.08267 14.5 2.41667 14.5H50.75C54.7472 14.5 58 17.7528 58 21.75V99.0833C58 100.417 56.9173 101.5 55.5833 101.5Z" fill="#DF362F"/>
<path d="M108.75 101.5H99.0837C97.7497 101.5 96.667 100.417 96.667 99.0833C96.667 97.7493 97.7497 96.6667 99.0837 96.6667H108.75C110.084 96.6667 111.167 95.5792 111.167 94.25V48.3333H72.5003V96.6667H79.7503C81.0843 96.6667 82.167 97.7493 82.167 99.0833C82.167 100.417 81.0843 101.5 79.7503 101.5H70.0837C68.7497 101.5 67.667 100.417 67.667 99.0833V45.9167C67.667 44.5827 68.7497 43.5 70.0837 43.5H113.584C114.918 43.5 116 44.5827 116 45.9167V94.25C116 98.2472 112.747 101.5 108.75 101.5Z" fill="#DF362F"/>
<path d="M36.2497 77.3333C34.9157 77.3333 33.833 76.2507 33.833 74.9167V31.4167C33.833 30.0827 34.9157 29 36.2497 29C37.5837 29 38.6664 30.0827 38.6664 31.4167V74.9167C38.6664 76.2507 37.5837 77.3333 36.2497 77.3333Z" fill="#DF362F"/>
<path d="M12.0837 77.3333C10.7497 77.3333 9.66699 76.2507 9.66699 74.9167V31.4167C9.66699 30.0827 10.7497 29 12.0837 29C13.4177 29 14.5003 30.0827 14.5003 31.4167V74.9167C14.5003 76.2507 13.4177 77.3333 12.0837 77.3333Z" fill="#DF362F"/>
<path d="M89.4163 111.167C82.756 111.167 77.333 105.749 77.333 99.0833C77.333 92.4182 82.756 87 89.4163 87C96.0767 87 101.5 92.4182 101.5 99.0833C101.5 105.749 96.0767 111.167 89.4163 111.167ZM89.4163 91.8333C85.4192 91.8333 82.1663 95.0862 82.1663 99.0833C82.1663 103.081 85.4192 106.333 89.4163 106.333C93.4135 106.333 96.6663 103.081 96.6663 99.0833C96.6663 95.0862 93.4135 91.8333 89.4163 91.8333Z" fill="#DF362F"/>
<path d="M41.0833 111.167C34.423 111.167 29 105.749 29 99.0833C29 92.4182 34.423 87 41.0833 87C47.7437 87 53.1667 92.4182 53.1667 99.0833C53.1667 105.749 47.7437 111.167 41.0833 111.167ZM41.0833 91.8333C37.0862 91.8333 33.8333 95.0862 33.8333 99.0833C33.8333 103.081 37.0862 106.333 41.0833 106.333C45.0805 106.333 48.3333 103.081 48.3333 99.0833C48.3333 95.0862 45.0805 91.8333 41.0833 91.8333Z" fill="#DF362F"/>
<path d="M12.0833 111.167C5.423 111.167 0 105.749 0 99.0833C0 92.4182 5.423 87 12.0833 87C18.7437 87 24.1667 92.4182 24.1667 99.0833C24.1667 105.749 18.7437 111.167 12.0833 111.167ZM12.0833 91.8333C8.08617 91.8333 4.83333 95.0862 4.83333 99.0833C4.83333 103.081 8.08617 106.333 12.0833 106.333C16.0805 106.333 19.3333 103.081 19.3333 99.0833C19.3333 95.0862 16.0805 91.8333 12.0833 91.8333Z" fill="#DF362F"/>
<path d="M103.917 48.3333C102.583 48.3333 101.5 47.2506 101.5 45.9166C101.5 31.262 89.5765 19.3333 74.917 19.3333H72.5003V45.9166C72.5003 47.2506 71.4177 48.3333 70.0837 48.3333C68.7497 48.3333 67.667 47.2506 67.667 45.9166V16.9166C67.667 15.5826 68.7497 14.5 70.0837 14.5H74.917C92.2396 14.5 106.334 28.594 106.334 45.9166C106.334 47.2506 105.251 48.3333 103.917 48.3333Z" fill="#DF362F"/>
<path d="M113.584 77.3333H84.5837C83.2497 77.3333 82.167 76.2507 82.167 74.9167V60.4167C82.167 59.0827 83.2497 58 84.5837 58H113.584C114.918 58 116 59.0827 116 60.4167C116 61.7507 114.918 62.8333 113.584 62.8333H87.0003V72.5H113.584C114.918 72.5 116 73.5827 116 74.9167C116 76.2507 114.918 77.3333 113.584 77.3333Z" fill="#DF362F"/>
<path d="M70.0836 101.5H55.5837C54.2497 101.5 53.167 100.417 53.167 99.0834C53.167 97.7494 54.2497 96.6667 55.5837 96.6667H70.0836C71.4176 96.6667 72.5003 97.7494 72.5003 99.0834C72.5003 100.417 71.4176 101.5 70.0836 101.5Z" fill="#DF362F"/>
</g>
<defs>
<clipPath id="clip0">
<rect width="116" height="116" fill="white"/>
</clipPath>
</defs>
</svg>
