<svg width="36" height="36" viewBox="0 0 36 36" fill="none" xmlns="http://www.w3.org/2000/svg">
<path d="M31 4H5.125C4.50273 4 4 4.50273 4 5.125V31C4 31.6223 4.50273 32.125 5.125 32.125H31C31.6223 32.125 32.125 31.6223 32.125 31V5.125C32.125 4.50273 31.6223 4 31 4ZM25.6316 14.1848C25.6422 14.35 25.6422 14.5223 25.6422 14.691C25.6422 19.852 21.7117 25.7969 14.5293 25.7969C12.3145 25.7969 10.2613 25.1535 8.53164 24.0461C8.84805 24.0813 9.15039 24.0953 9.47383 24.0953C11.302 24.0953 12.9824 23.4766 14.3219 22.4289C12.6063 22.3938 11.1648 21.2688 10.6727 19.7219C11.2738 19.8098 11.8152 19.8098 12.434 19.6516C11.5506 19.4721 10.7566 18.9923 10.1869 18.2938C9.61712 17.5952 9.30679 16.721 9.30859 15.8195V15.7703C9.82539 16.0621 10.4336 16.2414 11.0699 16.266C10.535 15.9095 10.0963 15.4265 9.79273 14.8599C9.48917 14.2932 9.33012 13.6604 9.32969 13.0176C9.32969 12.2898 9.51953 11.6254 9.86055 11.0488C10.8411 12.2559 12.0646 13.2431 13.4516 13.9463C14.8387 14.6495 16.3582 15.053 17.9113 15.1305C17.3594 12.4762 19.3422 10.3281 21.7258 10.3281C22.8508 10.3281 23.8633 10.7992 24.577 11.5586C25.4594 11.3934 26.3031 11.0629 27.0555 10.6199C26.7637 11.5234 26.152 12.2863 25.3398 12.768C26.1273 12.6836 26.8867 12.4656 27.5898 12.1598C27.059 12.9402 26.3945 13.6328 25.6316 14.1848V14.1848Z" fill="#DF362F"/>
</svg>
