<svg width="458" height="81" viewBox="0 0 458 81" fill="none" xmlns="http://www.w3.org/2000/svg">
<path d="M24.75 27.0703C26.7344 27.1953 28.4688 27.6016 29.9531 28.2891C31.4375 28.9609 32.5781 29.8828 33.375 31.0547C34.1875 32.2109 34.5938 33.5703 34.5938 35.1328C34.5938 38.4453 33.4531 40.9219 31.1719 42.5625C28.9062 44.1875 25.4688 45 20.8594 45H3.375C3.14062 45 2.94531 44.8594 2.78906 44.5781C2.64844 44.2969 2.57812 44.0391 2.57812 43.8047C2.57812 43.5391 2.63281 43.3359 2.74219 43.1953C2.85156 43.0547 3.05469 42.9688 3.35156 42.9375C4.49219 42.8594 5.46094 42.7109 6.25781 42.4922C7.05469 42.2578 7.45312 41.9062 7.45312 41.4375L7.47656 16.0781C7.47656 15.4531 7.25781 14.9844 6.82031 14.6719C6.38281 14.3594 5.88281 14.1562 5.32031 14.0625C4.75781 13.9531 4.05469 13.8672 3.21094 13.8047C2.86719 13.7734 2.64062 13.7109 2.53125 13.6172C2.42188 13.5078 2.36719 13.2813 2.36719 12.9375C2.36719 12.7031 2.4375 12.4453 2.57812 12.1641C2.73438 11.8828 2.92969 11.7422 3.16406 11.7422H19.4297C23.6641 11.7422 26.8672 12.3281 29.0391 13.5C31.2266 14.6562 32.3203 16.4844 32.3203 18.9844C32.3203 20.5469 31.9844 21.9141 31.3125 23.0859C30.6562 24.2422 29.7578 25.1562 28.6172 25.8281C27.4766 26.5 26.1875 26.9141 24.75 27.0703ZM15.3516 26.2031H17.3672C19.4297 26.2031 21.1562 25.7031 22.5469 24.7031C23.9531 23.6875 24.6562 22.0703 24.6562 19.8516C24.6562 15.9609 22.4375 14.0156 18 14.0156H15.3516V26.2031ZM19.0078 42.6328C21.0703 42.6328 22.7578 42.125 24.0703 41.1094C25.3984 40.0938 26.0625 38.125 26.0625 35.2031C26.0625 33.0781 25.6172 31.5234 24.7266 30.5391C23.8359 29.5547 22.8203 28.9609 21.6797 28.7578C20.5547 28.5547 19.1406 28.4531 17.4375 28.4531H15.3516V41.7656C15.4141 42 15.7422 42.2031 16.3359 42.375C16.9297 42.5469 17.8203 42.6328 19.0078 42.6328ZM36.5531 43.8047C36.5531 43.5391 36.6078 43.3359 36.7172 43.1953C36.8266 43.0547 37.0297 42.9688 37.3266 42.9375C38.2641 42.8594 39.0687 42.7109 39.7406 42.4922C40.4125 42.2578 40.7484 41.9062 40.7484 41.4375V16.0781C40.7484 15.4688 40.5687 15.0078 40.2094 14.6953C39.85 14.3828 39.4516 14.1797 39.0141 14.0859C38.5922 13.9922 37.9828 13.8984 37.1859 13.8047C36.8422 13.7734 36.6156 13.7109 36.5062 13.6172C36.3969 13.5078 36.3422 13.2813 36.3422 12.9375C36.3422 12.7031 36.4125 12.4453 36.5531 12.1641C36.7094 11.8828 36.9047 11.7422 37.1391 11.7422H64.3031L65.1234 19.3594C65.1391 19.5938 65.0219 19.7891 64.7719 19.9453C64.5219 20.0859 64.2797 20.1562 64.0453 20.1562C63.2016 20.1562 62.6391 19.8984 62.3578 19.3828C62.1547 18.9922 61.8266 18.3359 61.3734 17.4141C60.9359 16.5078 60.5766 15.8438 60.2953 15.4219C60.0297 14.9844 59.6937 14.6484 59.2875 14.4141C58.8969 14.1797 58.3812 14.0625 57.7406 14.0625H48.5766V26.7656H54.8344C55.2094 26.7188 55.5687 26.4453 55.9125 25.9453C56.2562 25.4453 56.5453 24.8828 56.7797 24.2578C57.0141 23.6172 57.1547 23.1172 57.2016 22.7578C57.2641 22.2578 57.6234 22.0078 58.2797 22.0078C58.5141 22.0078 58.7875 22.0859 59.1 22.2422C59.4125 22.3828 59.5687 22.5703 59.5687 22.8047V33.1875C59.5687 33.4219 59.4125 33.6172 59.1 33.7734C58.7875 33.9141 58.5141 33.9844 58.2797 33.9844C57.9828 33.9844 57.725 33.9297 57.5062 33.8203C57.2875 33.6953 57.1625 33.4922 57.1312 33.2109C57.1 32.8203 56.9672 32.2891 56.7328 31.6172C56.4984 30.9297 56.2016 30.3281 55.8422 29.8125C55.4828 29.2812 55.1 29.0156 54.6937 29.0156H48.5766V40.3828C48.5766 41.7578 49.2875 42.5078 50.7094 42.6328H57.4828C58.4203 42.6328 59.2328 42.4297 59.9203 42.0234C60.6234 41.6172 61.2797 40.9609 61.8891 40.0547C62.5141 39.1484 63.2016 37.8828 63.9516 36.2578C64.0609 36.0078 64.2797 35.8203 64.6078 35.6953C64.9359 35.5547 65.2484 35.4844 65.5453 35.4844C65.8734 35.4844 66.1859 35.5547 66.4828 35.6953C66.7953 35.8359 66.9672 36.0312 66.9984 36.2812L66.0609 45H37.35C37.1156 45 36.9203 44.8594 36.7641 44.5781C36.6234 44.2969 36.5531 44.0391 36.5531 43.8047ZM69.9422 16.7578C69.6766 16.0547 69.3953 15.5156 69.0984 15.1406C68.8172 14.75 68.4578 14.4609 68.0203 14.2734C67.5984 14.0703 67.0125 13.9141 66.2625 13.8047C65.9031 13.7578 65.6687 13.6875 65.5594 13.5938C65.45 13.4844 65.3953 13.2656 65.3953 12.9375C65.3953 12.7031 65.4734 12.4453 65.6297 12.1641C65.7703 11.8828 65.9578 11.7422 66.1922 11.7422H81.45C81.6844 11.7422 81.8719 11.8828 82.0125 12.1641C82.1687 12.4453 82.2469 12.7031 82.2469 12.9375C82.2469 13.2031 82.1922 13.4062 82.0828 13.5469C81.9734 13.6875 81.7703 13.7734 81.4734 13.8047C80.2391 13.8047 79.3562 13.9609 78.825 14.2734C78.3094 14.5859 78.0516 14.9922 78.0516 15.4922C78.0516 15.7109 78.0906 15.9375 78.1687 16.1719L85.5516 35.2031L93.1687 12.4453H97.2469L106.27 34.5L113.114 16.1016C113.192 15.8672 113.231 15.6484 113.231 15.4453C113.231 14.3516 111.794 13.8047 108.919 13.8047C108.622 13.7734 108.419 13.6875 108.309 13.5469C108.2 13.4062 108.145 13.2031 108.145 12.9375C108.145 12.7031 108.216 12.4453 108.356 12.1641C108.512 11.8828 108.708 11.7422 108.942 11.7422H120.309C120.544 11.7422 120.731 11.8828 120.872 12.1641C121.028 12.4453 121.106 12.7031 121.106 12.9375C121.106 13.2813 121.044 13.5156 120.919 13.6406C120.809 13.75 120.591 13.8047 120.262 13.8047C119.216 13.8047 118.395 13.9453 117.802 14.2266C117.223 14.5078 116.794 14.8828 116.512 15.3516C116.231 15.8203 115.934 16.4844 115.622 17.3438L105.075 45.4219H102.192L92.5359 21.8672L84.5906 45.4219H81.7078L69.9422 16.7578ZM120.488 43.8047C120.488 43.5391 120.542 43.3359 120.652 43.1953C120.761 43.0547 120.964 42.9688 121.261 42.9375C122.198 42.8594 123.003 42.7109 123.675 42.4922C124.347 42.2578 124.683 41.9062 124.683 41.4375V16.0781C124.683 15.4688 124.503 15.0078 124.144 14.6953C123.784 14.3828 123.386 14.1797 122.948 14.0859C122.527 13.9922 121.917 13.8984 121.12 13.8047C120.777 13.7734 120.55 13.7109 120.441 13.6172C120.331 13.5078 120.277 13.2813 120.277 12.9375C120.277 12.7031 120.347 12.4453 120.488 12.1641C120.644 11.8828 120.839 11.7422 121.073 11.7422H148.238L149.058 19.3594C149.073 19.5938 148.956 19.7891 148.706 19.9453C148.456 20.0859 148.214 20.1562 147.98 20.1562C147.136 20.1562 146.573 19.8984 146.292 19.3828C146.089 18.9922 145.761 18.3359 145.308 17.4141C144.87 16.5078 144.511 15.8438 144.23 15.4219C143.964 14.9844 143.628 14.6484 143.222 14.4141C142.831 14.1797 142.316 14.0625 141.675 14.0625H132.511V26.7656H138.769C139.144 26.7188 139.503 26.4453 139.847 25.9453C140.191 25.4453 140.48 24.8828 140.714 24.2578C140.948 23.6172 141.089 23.1172 141.136 22.7578C141.198 22.2578 141.558 22.0078 142.214 22.0078C142.448 22.0078 142.722 22.0859 143.034 22.2422C143.347 22.3828 143.503 22.5703 143.503 22.8047V33.1875C143.503 33.4219 143.347 33.6172 143.034 33.7734C142.722 33.9141 142.448 33.9844 142.214 33.9844C141.917 33.9844 141.659 33.9297 141.441 33.8203C141.222 33.6953 141.097 33.4922 141.066 33.2109C141.034 32.8203 140.902 32.2891 140.667 31.6172C140.433 30.9297 140.136 30.3281 139.777 29.8125C139.417 29.2812 139.034 29.0156 138.628 29.0156H132.511V40.3828C132.511 41.7578 133.222 42.5078 134.644 42.6328H141.417C142.355 42.6328 143.167 42.4297 143.855 42.0234C144.558 41.6172 145.214 40.9609 145.823 40.0547C146.448 39.1484 147.136 37.8828 147.886 36.2578C147.995 36.0078 148.214 35.8203 148.542 35.6953C148.87 35.5547 149.183 35.4844 149.48 35.4844C149.808 35.4844 150.12 35.5547 150.417 35.6953C150.73 35.8359 150.902 36.0312 150.933 36.2812L149.995 45H121.284C121.05 45 120.855 44.8594 120.698 44.5781C120.558 44.2969 120.488 44.0391 120.488 43.8047ZM153.548 45C153.314 45 153.119 44.8594 152.962 44.5781C152.822 44.2969 152.752 44.0391 152.752 43.8047C152.752 43.5391 152.806 43.3359 152.916 43.1953C153.025 43.0547 153.228 42.9688 153.525 42.9375C154.384 42.875 155.166 42.6875 155.869 42.375C156.572 42.0625 156.923 41.6719 156.923 41.2031V16.0781C156.923 15.4531 156.752 14.9844 156.408 14.6719C156.08 14.3438 155.673 14.1328 155.189 14.0391C154.72 13.9297 154.111 13.8516 153.361 13.8047C153.017 13.7734 152.791 13.7109 152.681 13.6172C152.572 13.5078 152.517 13.2813 152.517 12.9375C152.517 12.7031 152.587 12.4453 152.728 12.1641C152.884 11.8828 153.08 11.7422 153.314 11.7422H169.369C169.603 11.7422 169.791 11.8828 169.931 12.1641C170.087 12.4453 170.166 12.7031 170.166 12.9375C170.166 13.5156 169.908 13.8047 169.392 13.8047C167.939 13.8047 166.822 13.9688 166.041 14.2969C165.275 14.625 164.892 15.1953 164.892 16.0078V40.8516C164.892 41.5547 165.072 42.0312 165.431 42.2812C165.791 42.5156 166.306 42.6328 166.978 42.6328H173.4C174.087 42.6328 174.791 42.2266 175.509 41.4141C176.244 40.6016 176.923 39.5859 177.548 38.3672C178.173 37.1484 178.689 35.9219 179.095 34.6875C179.173 34.4375 179.416 34.25 179.822 34.125C180.244 33.9844 180.619 33.9141 180.947 33.9141C181.291 33.9141 181.603 33.9844 181.884 34.125C182.181 34.2656 182.314 34.4609 182.283 34.7109L180.9 45H153.548ZM184.055 45C183.82 45 183.625 44.8594 183.469 44.5781C183.328 44.2969 183.258 44.0391 183.258 43.8047C183.258 43.5391 183.312 43.3359 183.422 43.1953C183.531 43.0547 183.734 42.9688 184.031 42.9375C184.891 42.875 185.672 42.6875 186.375 42.375C187.078 42.0625 187.43 41.6719 187.43 41.2031V16.0781C187.43 15.4531 187.258 14.9844 186.914 14.6719C186.586 14.3438 186.18 14.1328 185.695 14.0391C185.227 13.9297 184.617 13.8516 183.867 13.8047C183.523 13.7734 183.297 13.7109 183.188 13.6172C183.078 13.5078 183.023 13.2813 183.023 12.9375C183.023 12.7031 183.094 12.4453 183.234 12.1641C183.391 11.8828 183.586 11.7422 183.82 11.7422H199.875C200.109 11.7422 200.297 11.8828 200.438 12.1641C200.594 12.4453 200.672 12.7031 200.672 12.9375C200.672 13.5156 200.414 13.8047 199.898 13.8047C198.445 13.8047 197.328 13.9688 196.547 14.2969C195.781 14.625 195.398 15.1953 195.398 16.0078V40.8516C195.398 41.5547 195.578 42.0312 195.938 42.2812C196.297 42.5156 196.812 42.6328 197.484 42.6328H203.906C204.594 42.6328 205.297 42.2266 206.016 41.4141C206.75 40.6016 207.43 39.5859 208.055 38.3672C208.68 37.1484 209.195 35.9219 209.602 34.6875C209.68 34.4375 209.922 34.25 210.328 34.125C210.75 33.9844 211.125 33.9141 211.453 33.9141C211.797 33.9141 212.109 33.9844 212.391 34.125C212.688 34.2656 212.82 34.4609 212.789 34.7109L211.406 45H184.055Z" fill="#C85D67"/>
<path d="M228.778 45C228.544 45 228.348 44.8594 228.192 44.5781C228.052 44.2969 227.981 44.0391 227.981 43.8047C227.981 43.5391 228.036 43.3359 228.145 43.1953C228.255 43.0547 228.458 42.9688 228.755 42.9375C230.177 42.8594 231.333 42.6719 232.223 42.375C233.13 42.0625 233.583 41.5156 233.583 40.7344V14.0625H227.723C226.911 14.0625 226.239 14.5391 225.708 15.4922C225.192 16.4297 224.809 17.4766 224.559 18.6328C224.325 19.7891 224.177 20.7734 224.114 21.5859C224.083 21.8516 223.927 22.0469 223.645 22.1719C223.38 22.2969 223.091 22.3594 222.778 22.3594C222.544 22.3594 222.286 22.2891 222.005 22.1484C221.723 21.9922 221.583 21.7969 221.583 21.5625C221.661 19.2188 221.755 17 221.864 14.9062C221.989 12.7969 222.13 11.7422 222.286 11.7422H252.45C252.606 11.7422 252.739 12.7969 252.848 14.9062C252.973 17 253.075 19.2188 253.153 21.5625C253.153 21.7969 253.012 21.9922 252.731 22.1484C252.45 22.2891 252.192 22.3594 251.958 22.3594C251.645 22.3594 251.348 22.2969 251.067 22.1719C250.802 22.0469 250.653 21.8516 250.622 21.5859C250.434 19.8984 250.075 18.2266 249.544 16.5703C249.012 14.8984 248.169 14.0625 247.012 14.0625H241.458V40.6641C241.458 41.2891 241.7 41.7578 242.184 42.0703C242.669 42.3828 243.223 42.5938 243.848 42.7031C244.473 42.7969 245.255 42.875 246.192 42.9375C246.536 42.9688 246.762 43.0391 246.872 43.1484C246.981 43.2422 247.036 43.4609 247.036 43.8047C247.036 44.0391 246.958 44.2969 246.802 44.5781C246.661 44.8594 246.473 45 246.239 45H228.778ZM254.784 45C254.55 45 254.355 44.8594 254.198 44.5781C254.058 44.2969 253.988 44.0391 253.988 43.8047C253.988 43.5391 254.042 43.3359 254.152 43.1953C254.261 43.0547 254.464 42.9688 254.761 42.9375C256.886 42.7656 257.948 42.2656 257.948 41.4375L257.972 16.0781C257.972 15.4531 257.808 14.9844 257.48 14.6719C257.152 14.3594 256.777 14.1641 256.355 14.0859C255.948 13.9922 255.37 13.8984 254.62 13.8047C254.277 13.7734 254.05 13.7109 253.941 13.6172C253.831 13.5078 253.777 13.2813 253.777 12.9375C253.777 12.7031 253.847 12.4453 253.988 12.1641C254.144 11.8828 254.339 11.7422 254.573 11.7422L257.128 11.7188C257.55 11.7031 258.191 11.6953 259.05 11.6953C259.894 11.6953 261.456 11.6641 263.738 11.6016C266.394 11.5391 268.534 11.5078 270.159 11.5078C274.472 11.5078 277.769 12.2344 280.05 13.6875C282.347 15.1406 283.495 17.375 283.495 20.3906C283.495 22.3594 283.105 23.9609 282.323 25.1953C281.542 26.4297 280.534 27.375 279.3 28.0312C278.081 28.6875 276.62 29.2344 274.917 29.6719C276.323 29.8125 277.464 30.1953 278.339 30.8203C279.23 31.4453 279.925 32.1797 280.425 33.0234C280.925 33.8672 281.48 35.0078 282.089 36.4453C282.495 37.3672 282.816 38.0938 283.05 38.625C283.3 39.1406 283.589 39.6562 283.917 40.1719C284.417 41.125 284.925 41.8047 285.441 42.2109C285.972 42.6172 286.558 42.8516 287.198 42.9141C287.527 42.9453 287.745 43.0312 287.855 43.1719C287.98 43.3125 288.042 43.5625 288.042 43.9219C288.042 44.1406 287.964 44.375 287.808 44.625C287.667 44.875 287.48 45 287.245 45H279.253C278.425 45 277.722 44.6953 277.144 44.0859C276.566 43.4766 276.089 42.7266 275.714 41.8359C275.355 40.9453 274.933 39.7266 274.448 38.1797C273.917 36.4609 273.433 35.0859 272.995 34.0547C272.558 33.0234 271.964 32.1484 271.214 31.4297C270.48 30.7109 269.566 30.3516 268.472 30.3516H265.683V40.6641C265.683 41.2891 265.878 41.7656 266.269 42.0938C266.659 42.4062 267.12 42.6094 267.652 42.7031C268.183 42.7969 268.855 42.875 269.667 42.9375C270.011 42.9688 270.238 43.0391 270.347 43.1484C270.456 43.2422 270.511 43.4609 270.511 43.8047C270.511 44.0391 270.433 44.2969 270.277 44.5781C270.136 44.8594 269.948 45 269.714 45H254.784ZM269.058 28.3359C271.136 28.3359 272.73 27.7891 273.839 26.6953C274.964 25.5859 275.527 23.7266 275.527 21.1172C275.527 18.6953 274.988 16.8672 273.909 15.6328C272.847 14.3984 271.206 13.7812 268.988 13.7812H265.683V28.3359H269.058ZM323.119 42.9375C323.462 42.9688 323.689 43.0391 323.798 43.1484C323.908 43.2422 323.962 43.4609 323.962 43.8047C323.962 44.0391 323.884 44.2969 323.728 44.5781C323.587 44.8594 323.4 45 323.166 45H308.587C308.353 45 308.158 44.8594 308.002 44.5781C307.861 44.2969 307.791 44.0391 307.791 43.8047C307.791 43.5391 307.845 43.3359 307.955 43.1953C308.064 43.0547 308.267 42.9688 308.564 42.9375L309.502 42.8906C310.267 42.875 310.798 42.8359 311.095 42.7734C311.392 42.6953 311.541 42.5312 311.541 42.2812C311.541 42.1719 311.517 42.0469 311.47 41.9062L308.541 33.8203L297.314 33.7969L294.408 41.9062C294.361 42.0156 294.337 42.1172 294.337 42.2109C294.337 42.4922 294.533 42.6719 294.923 42.75C295.314 42.8281 295.939 42.875 296.798 42.8906L297.783 42.9375C298.08 42.9688 298.283 43.0547 298.392 43.1953C298.502 43.3359 298.556 43.5391 298.556 43.8047C298.556 44.0391 298.478 44.2969 298.322 44.5781C298.181 44.8594 297.994 45 297.759 45H287.845C287.595 45 287.4 44.8828 287.259 44.6484C287.119 44.4141 287.048 44.1328 287.048 43.8047C287.048 43.4609 287.103 43.2422 287.212 43.1484C287.322 43.0391 287.548 42.9688 287.892 42.9375C288.017 42.9219 288.22 42.9141 288.502 42.9141C288.986 42.8984 289.392 42.8594 289.72 42.7969C290.064 42.7188 290.392 42.5547 290.705 42.3047C291.017 42.0391 291.275 41.6484 291.478 41.1328L302.728 11.2266H308.212L319.345 41.1328C319.548 41.6641 319.814 42.0625 320.142 42.3281C320.47 42.5781 320.806 42.7344 321.15 42.7969C321.494 42.8594 321.923 42.8984 322.439 42.9141C322.752 42.9141 322.978 42.9219 323.119 42.9375ZM303.431 17.1094L297.97 31.8047H307.837L303.431 17.1094ZM324.727 45C324.492 45 324.297 44.8594 324.141 44.5781C324 44.2969 323.93 44.0391 323.93 43.8047C323.93 43.5391 323.984 43.3359 324.094 43.1953C324.203 43.0547 324.406 42.9688 324.703 42.9375C325.641 42.8594 326.438 42.7109 327.094 42.4922C327.766 42.2578 328.102 41.9062 328.102 41.4375V16.0781C328.102 15.4688 327.922 15.0078 327.562 14.6953C327.203 14.3828 326.805 14.1797 326.367 14.0859C325.945 13.9922 325.336 13.8984 324.539 13.8047C324.195 13.7734 323.969 13.7109 323.859 13.6172C323.75 13.5078 323.695 13.2813 323.695 12.9375C323.695 12.7031 323.766 12.4453 323.906 12.1641C324.062 11.8828 324.258 11.7422 324.492 11.7422H340.805C344.867 11.7578 348.328 12.5156 351.188 14.0156C354.047 15.5 356.195 17.4531 357.633 19.875C359.07 22.2969 359.789 24.9062 359.789 27.7031C359.789 31.5156 358.883 34.7266 357.07 37.3359C355.258 39.9297 353.016 41.8594 350.344 43.125C347.672 44.375 345.055 45 342.492 45H324.727ZM336 41.0625C336 41.4844 336.352 41.8516 337.055 42.1641C337.773 42.4766 339.047 42.6328 340.875 42.6328C343.078 42.6328 344.859 42.3047 346.219 41.6484C347.578 40.9766 348.656 39.5703 349.453 37.4297C350.25 35.2734 350.648 32.0625 350.648 27.7969C350.648 24.125 350.211 21.2812 349.336 19.2656C348.477 17.2344 347.32 15.8516 345.867 15.1172C344.43 14.3828 342.688 14.0156 340.641 14.0156H336.023L336 41.0625ZM362.334 45C362.1 45 361.905 44.8594 361.748 44.5781C361.608 44.2969 361.538 44.0391 361.538 43.8047C361.538 43.5391 361.592 43.3359 361.702 43.1953C361.811 43.0547 362.014 42.9688 362.311 42.9375C363.248 42.8594 364.045 42.7109 364.702 42.4922C365.373 42.2578 365.709 41.9062 365.709 41.4375L365.733 16.0781C365.733 15.4531 365.545 14.9844 365.17 14.6719C364.811 14.3594 364.397 14.1562 363.928 14.0625C363.459 13.9531 362.873 13.8672 362.17 13.8047C361.827 13.7734 361.6 13.7109 361.491 13.6172C361.381 13.5078 361.327 13.2813 361.327 12.9375C361.327 12.7031 361.397 12.4453 361.538 12.1641C361.694 11.8828 361.889 11.7422 362.123 11.7422H377.006C377.241 11.7422 377.428 11.8828 377.569 12.1641C377.725 12.4453 377.803 12.7031 377.803 12.9375C377.803 13.2031 377.748 13.4062 377.639 13.5469C377.53 13.6875 377.327 13.7734 377.03 13.8047C374.764 13.9766 373.631 14.4766 373.631 15.3047L373.608 40.6641C373.608 41.2891 373.788 41.7578 374.147 42.0703C374.522 42.3828 374.944 42.5938 375.413 42.7031C375.881 42.7969 376.467 42.875 377.17 42.9375C377.514 42.9688 377.741 43.0391 377.85 43.1484C377.959 43.2422 378.014 43.4609 378.014 43.8047C378.014 44.0391 377.936 44.2969 377.78 44.5781C377.639 44.8594 377.452 45 377.217 45H362.334ZM379.927 45C379.692 45 379.497 44.8594 379.341 44.5781C379.2 44.2969 379.13 44.0391 379.13 43.8047C379.13 43.5391 379.184 43.3359 379.294 43.1953C379.403 43.0547 379.606 42.9688 379.903 42.9375C382.794 42.7188 384.239 42.0625 384.239 40.9688V17.3438C384.239 16.7188 383.981 16.1484 383.466 15.6328C382.95 15.1172 382.333 14.7031 381.614 14.3906C380.911 14.0625 380.294 13.8672 379.763 13.8047C379.419 13.7734 379.192 13.7109 379.083 13.6172C378.973 13.5078 378.919 13.2813 378.919 12.9375C378.919 12.7031 378.989 12.4453 379.13 12.1641C379.286 11.8828 379.481 11.7422 379.716 11.7422H391.153L410.138 34.0547H410.419V16.0781C410.419 15.4688 410.184 15.0078 409.716 14.6953C409.247 14.3828 408.786 14.1875 408.333 14.1094C407.895 14.0156 407.169 13.9141 406.153 13.8047C405.809 13.7734 405.583 13.7109 405.473 13.6172C405.364 13.5078 405.309 13.2813 405.309 12.9375C405.309 12.7031 405.38 12.4453 405.52 12.1641C405.677 11.8828 405.872 11.7422 406.106 11.7422H417.239C417.473 11.7422 417.661 11.8828 417.802 12.1641C417.958 12.4453 418.036 12.7031 418.036 12.9375C418.036 13.2031 417.981 13.4062 417.872 13.5469C417.763 13.6875 417.559 13.7734 417.263 13.8047C414.528 14.1172 413.161 14.8359 413.161 15.9609V42.3516C413.161 42.6328 413.184 42.9297 413.231 43.2422L413.302 44.0625C413.348 44.6094 413.083 45.0156 412.505 45.2812C411.942 45.5625 411.348 45.7031 410.723 45.7031C410.489 45.7031 410.247 45.6484 409.997 45.5391C409.763 45.4453 409.583 45.3281 409.458 45.1875L387.614 19.4531H387.216V40.6641C387.216 41.2109 387.434 41.6406 387.872 41.9531C388.325 42.2656 388.833 42.4844 389.395 42.6094C389.973 42.7188 390.661 42.8125 391.458 42.8906L391.95 42.9375C392.294 42.9688 392.52 43.0391 392.63 43.1484C392.739 43.2422 392.794 43.4609 392.794 43.8047C392.794 44.0391 392.716 44.2969 392.559 44.5781C392.419 44.8594 392.231 45 391.997 45H379.927ZM436.659 45.7031C433.862 45.7031 431.003 45.125 428.081 43.9688C425.175 42.8125 422.714 40.9453 420.698 38.3672C418.698 35.7734 417.698 32.4688 417.698 28.4531C417.698 24.4375 418.683 21.125 420.652 18.5156C422.62 15.9063 425.073 14.0078 428.011 12.8203C430.948 11.6328 433.909 11.0391 436.894 11.0391C439.581 11.0391 441.948 11.2578 443.995 11.6953C446.058 12.1172 447.659 12.5859 448.8 13.1016L449.316 20.3672C449.331 20.6172 449.175 20.8359 448.847 21.0234C448.534 21.2109 448.253 21.3047 448.003 21.3047L447.675 21.3281C447.3 21.3281 446.933 21.2734 446.573 21.1641C446.23 21.0547 446.034 20.8828 445.987 20.6484C445.378 18.3984 444.362 16.6094 442.941 15.2812C441.519 13.9531 439.487 13.2891 436.847 13.2891C435.394 13.2891 433.894 13.7031 432.347 14.5312C430.8 15.3438 429.448 16.875 428.292 19.125C427.152 21.375 426.581 24.4844 426.581 28.4531C426.581 32 427.144 34.8984 428.269 37.1484C429.409 39.3984 430.784 41.0156 432.394 42C434.003 42.9844 435.558 43.4766 437.058 43.4766C439.027 43.4766 440.37 43.1953 441.089 42.6328C441.823 42.0703 442.191 41.3438 442.191 40.4531V34.3125C442.191 33.6875 441.972 33.2188 441.534 32.9062C441.097 32.5938 440.597 32.3906 440.034 32.2969C439.487 32.2031 438.753 32.1172 437.831 32.0391C437.487 32.0078 437.261 31.9453 437.152 31.8516C437.042 31.7422 436.987 31.5156 436.987 31.1719C436.987 30.9375 437.058 30.6797 437.198 30.3984C437.355 30.1172 437.55 29.9766 437.784 29.9766H452.433C452.667 29.9766 452.855 30.1172 452.995 30.3984C453.152 30.6797 453.23 30.9375 453.23 31.1719C453.23 31.4375 453.175 31.6406 453.066 31.7812C452.956 31.9219 452.753 32.0078 452.456 32.0391C451.644 32.1328 451.011 32.2891 450.558 32.5078C450.12 32.7266 449.902 33.0703 449.902 33.5391L449.925 42.1172C449.659 42.5078 448.909 42.9922 447.675 43.5703C446.441 44.1484 444.855 44.6484 442.917 45.0703C440.995 45.4922 438.909 45.7031 436.659 45.7031Z" fill="#3C3A3F"/>
<path d="M239.125 76C239.047 76 238.982 75.9531 238.93 75.8594C238.883 75.7656 238.859 75.6797 238.859 75.6016C238.859 75.513 238.878 75.4453 238.914 75.3984C238.951 75.3516 239.018 75.3229 239.117 75.3125C239.43 75.2865 239.695 75.237 239.914 75.1641C240.138 75.0859 240.25 74.9688 240.25 74.8125L240.258 66.3594C240.258 66.151 240.195 65.9948 240.07 65.8906C239.951 65.7865 239.812 65.7188 239.656 65.6875C239.5 65.651 239.305 65.6224 239.07 65.6016C238.956 65.5911 238.88 65.5703 238.844 65.5391C238.807 65.5026 238.789 65.4271 238.789 65.3125C238.789 65.2344 238.812 65.1484 238.859 65.0547C238.911 64.9609 238.977 64.9141 239.055 64.9141H244.016C244.094 64.9141 244.156 64.9609 244.203 65.0547C244.255 65.1484 244.281 65.2344 244.281 65.3125C244.281 65.401 244.263 65.4688 244.227 65.5156C244.19 65.5625 244.122 65.5911 244.023 65.6016C243.268 65.6589 242.891 65.8255 242.891 66.1016L242.883 74.5547C242.883 74.763 242.943 74.9193 243.062 75.0234C243.188 75.1276 243.328 75.1979 243.484 75.2344C243.641 75.2656 243.836 75.2917 244.07 75.3125C244.185 75.3229 244.26 75.3464 244.297 75.3828C244.333 75.4141 244.352 75.487 244.352 75.6016C244.352 75.6797 244.326 75.7656 244.273 75.8594C244.227 75.9531 244.164 76 244.086 76H239.125ZM245.184 76C245.106 76 245.041 75.9531 244.989 75.8594C244.942 75.7656 244.919 75.6797 244.919 75.6016C244.919 75.513 244.937 75.4453 244.973 75.3984C245.01 75.3516 245.078 75.3229 245.177 75.3125C245.458 75.2969 245.69 75.2708 245.872 75.2344C246.054 75.1979 246.21 75.1276 246.341 75.0234C246.476 74.9193 246.544 74.7656 246.544 74.5625V66.3594C246.544 66.151 246.471 65.9948 246.325 65.8906C246.184 65.7865 246.02 65.7188 245.833 65.6875C245.645 65.651 245.411 65.6224 245.13 65.6016C245.015 65.5911 244.94 65.5703 244.903 65.5391C244.867 65.5026 244.848 65.4271 244.848 65.3125C244.848 65.2344 244.872 65.151 244.919 65.0625C244.971 64.9688 245.036 64.9193 245.114 64.9141H250.114V64.9531L252.731 72.2344L255.231 65.6016C255.262 65.5234 255.291 65.4089 255.317 65.2578C255.348 65.1068 255.364 64.9922 255.364 64.9141H259.872C259.95 64.9141 260.012 64.9609 260.059 65.0547C260.111 65.1484 260.137 65.2344 260.137 65.3125C260.137 65.401 260.119 65.4688 260.083 65.5156C260.046 65.5625 259.979 65.5911 259.88 65.6016C259.124 65.6589 258.747 65.8255 258.747 66.1016V74.5547C258.747 74.763 258.807 74.9193 258.927 75.0234C259.046 75.1224 259.177 75.1875 259.317 75.2188C259.458 75.25 259.661 75.2812 259.927 75.3125C260.041 75.3229 260.117 75.3464 260.153 75.3828C260.19 75.4141 260.208 75.487 260.208 75.6016C260.208 75.6797 260.182 75.7656 260.13 75.8594C260.083 75.9531 260.02 76 259.942 76H254.903C254.825 76 254.76 75.9531 254.708 75.8594C254.661 75.7656 254.637 75.6797 254.637 75.6016C254.637 75.513 254.656 75.4453 254.692 75.3984C254.729 75.3516 254.796 75.3229 254.895 75.3125C255.223 75.2865 255.507 75.2344 255.747 75.1562C255.986 75.0781 256.106 74.9635 256.106 74.8125V65.9922H255.887L252.137 76H251.692L247.598 65.9922H247.302V74.5547C247.302 74.7578 247.38 74.9141 247.536 75.0234C247.692 75.1276 247.869 75.1979 248.067 75.2344C248.265 75.2656 248.51 75.2917 248.802 75.3125C248.916 75.3229 248.992 75.3464 249.028 75.3828C249.065 75.4141 249.083 75.487 249.083 75.6016C249.083 75.6797 249.057 75.7656 249.005 75.8594C248.958 75.9531 248.895 76 248.817 76H245.184ZM261.119 76C261.041 76 260.976 75.9531 260.923 75.8594C260.877 75.7656 260.853 75.6797 260.853 75.6016C260.853 75.513 260.871 75.4453 260.908 75.3984C260.944 75.3516 261.012 75.3229 261.111 75.3125C261.772 75.2604 262.103 75.0938 262.103 74.8125V66.3594C262.103 66.151 262.048 65.9948 261.939 65.8906C261.83 65.7865 261.705 65.7214 261.564 65.6953C261.429 65.6641 261.236 65.6328 260.986 65.6016C260.871 65.5911 260.796 65.5703 260.759 65.5391C260.723 65.5026 260.705 65.4271 260.705 65.3125C260.705 65.2344 260.728 65.1484 260.775 65.0547C260.827 64.9609 260.892 64.9141 260.97 64.9141H263.275C263.712 64.9141 264.306 64.8984 265.056 64.8672C265.702 64.8464 266.145 64.8359 266.384 64.8359C269.265 64.8359 270.705 65.9271 270.705 68.1094C270.705 68.8281 270.543 69.4531 270.22 69.9844C269.897 70.5104 269.395 70.9219 268.712 71.2188C268.035 71.5156 267.181 71.6641 266.15 71.6641H264.72V74.5547C264.72 74.7578 264.819 74.9141 265.017 75.0234C265.22 75.1276 265.436 75.1979 265.666 75.2344C265.9 75.2656 266.189 75.2917 266.533 75.3125C266.647 75.3229 266.723 75.3464 266.759 75.3828C266.796 75.4141 266.814 75.487 266.814 75.6016C266.814 75.6797 266.788 75.7656 266.736 75.8594C266.689 75.9531 266.627 76 266.548 76H261.119ZM265.58 70.9141C266.231 70.9141 266.767 70.7135 267.189 70.3125C267.616 69.9115 267.83 69.2318 267.83 68.2734C267.83 67.5703 267.746 67.026 267.58 66.6406C267.418 66.25 267.176 65.9792 266.853 65.8281C266.53 65.6719 266.106 65.5938 265.58 65.5938H264.72V70.9141H265.58ZM276.889 76.2266C275.717 76.2266 274.691 75.9688 273.811 75.4531C272.931 74.9323 272.254 74.2292 271.78 73.3438C271.311 72.4583 271.077 71.4792 271.077 70.4062C271.077 69.3333 271.311 68.362 271.78 67.4922C272.248 66.6224 272.923 65.9375 273.803 65.4375C274.683 64.9323 275.712 64.6797 276.889 64.6797C278.066 64.6797 279.095 64.9323 279.975 65.4375C280.855 65.9375 281.53 66.6224 281.998 67.4922C282.472 68.362 282.709 69.3333 282.709 70.4062C282.709 71.4792 282.472 72.4583 281.998 73.3438C281.524 74.2292 280.847 74.9323 279.967 75.4531C279.087 75.9688 278.061 76.2266 276.889 76.2266ZM276.92 75.4922C277.879 75.4922 278.584 75.0547 279.037 74.1797C279.491 73.2995 279.717 72.0469 279.717 70.4219C279.717 68.8073 279.483 67.5677 279.014 66.7031C278.551 65.8385 277.837 65.4062 276.873 65.4062C275.91 65.4062 275.199 65.8385 274.741 66.7031C274.287 67.5625 274.061 68.8021 274.061 70.4219C274.061 72.0365 274.295 73.2865 274.764 74.1719C275.238 75.0521 275.957 75.4922 276.92 75.4922ZM283.784 76C283.706 76 283.641 75.9531 283.589 75.8594C283.542 75.7656 283.519 75.6797 283.519 75.6016C283.519 75.513 283.537 75.4453 283.573 75.3984C283.61 75.3516 283.678 75.3229 283.777 75.3125C284.485 75.2552 284.839 75.0885 284.839 74.8125L284.847 66.3594C284.847 66.151 284.792 65.9948 284.683 65.8906C284.573 65.7865 284.448 65.7214 284.308 65.6953C284.172 65.6641 283.98 65.6328 283.73 65.6016C283.615 65.5911 283.54 65.5703 283.503 65.5391C283.467 65.5026 283.448 65.4271 283.448 65.3125C283.448 65.2344 283.472 65.1484 283.519 65.0547C283.571 64.9609 283.636 64.9141 283.714 64.9141L284.566 64.9062C284.706 64.901 284.92 64.8984 285.206 64.8984C285.487 64.8984 286.008 64.888 286.769 64.8672C287.654 64.8464 288.368 64.8359 288.909 64.8359C290.347 64.8359 291.446 65.0781 292.206 65.5625C292.972 66.0469 293.355 66.7917 293.355 67.7969C293.355 68.4531 293.224 68.987 292.964 69.3984C292.704 69.8099 292.368 70.125 291.956 70.3438C291.55 70.5625 291.063 70.7448 290.495 70.8906C290.964 70.9375 291.344 71.0651 291.636 71.2734C291.933 71.4818 292.165 71.7266 292.331 72.0078C292.498 72.2891 292.683 72.6693 292.886 73.1484C293.021 73.4557 293.128 73.6979 293.206 73.875C293.29 74.0469 293.386 74.2188 293.495 74.3906C293.662 74.7083 293.831 74.9349 294.003 75.0703C294.18 75.2057 294.376 75.2839 294.589 75.3047C294.698 75.3151 294.771 75.3438 294.808 75.3906C294.849 75.4375 294.87 75.5208 294.87 75.6406C294.87 75.7135 294.844 75.7917 294.792 75.875C294.745 75.9583 294.683 76 294.605 76H291.941C291.665 76 291.43 75.8984 291.237 75.6953C291.045 75.4922 290.886 75.2422 290.761 74.9453C290.641 74.6484 290.501 74.2422 290.339 73.7266C290.162 73.1536 290.001 72.6953 289.855 72.3516C289.709 72.0078 289.511 71.7161 289.261 71.4766C289.016 71.237 288.711 71.1172 288.347 71.1172H287.417V74.5547C287.417 74.763 287.482 74.9219 287.612 75.0312C287.743 75.1354 287.896 75.2031 288.073 75.2344C288.251 75.2656 288.474 75.2917 288.745 75.3125C288.86 75.3229 288.935 75.3464 288.972 75.3828C289.008 75.4141 289.027 75.487 289.027 75.6016C289.027 75.6797 289.001 75.7656 288.948 75.8594C288.902 75.9531 288.839 76 288.761 76H283.784ZM288.542 70.4453C289.235 70.4453 289.766 70.263 290.136 69.8984C290.511 69.5286 290.698 68.9089 290.698 68.0391C290.698 67.2318 290.519 66.6224 290.159 66.2109C289.805 65.7995 289.258 65.5938 288.519 65.5938H287.417V70.4453H288.542ZM297.234 76C297.156 76 297.091 75.9531 297.039 75.8594C296.992 75.7656 296.969 75.6797 296.969 75.6016C296.969 75.513 296.987 75.4453 297.023 75.3984C297.06 75.3516 297.128 75.3229 297.227 75.3125C297.701 75.2865 298.086 75.224 298.383 75.125C298.685 75.0208 298.836 74.8385 298.836 74.5781V65.6875H296.883C296.612 65.6875 296.388 65.8464 296.211 66.1641C296.039 66.4766 295.911 66.8255 295.828 67.2109C295.75 67.5964 295.701 67.9245 295.68 68.1953C295.669 68.2839 295.617 68.349 295.523 68.3906C295.435 68.4323 295.339 68.4531 295.234 68.4531C295.156 68.4531 295.07 68.4297 294.977 68.3828C294.883 68.3307 294.836 68.2656 294.836 68.1875C294.862 67.4062 294.893 66.6667 294.93 65.9688C294.971 65.2656 295.018 64.9141 295.07 64.9141H305.125C305.177 64.9141 305.221 65.2656 305.258 65.9688C305.299 66.6667 305.333 67.4062 305.359 68.1875C305.359 68.2656 305.312 68.3307 305.219 68.3828C305.125 68.4297 305.039 68.4531 304.961 68.4531C304.857 68.4531 304.758 68.4323 304.664 68.3906C304.576 68.349 304.526 68.2839 304.516 68.1953C304.453 67.6328 304.333 67.0755 304.156 66.5234C303.979 65.9661 303.698 65.6875 303.312 65.6875H301.461V74.5547C301.461 74.763 301.542 74.9193 301.703 75.0234C301.865 75.1276 302.049 75.1979 302.258 75.2344C302.466 75.2656 302.727 75.2917 303.039 75.3125C303.154 75.3229 303.229 75.3464 303.266 75.3828C303.302 75.4141 303.32 75.487 303.32 75.6016C303.32 75.6797 303.294 75.7656 303.242 75.8594C303.195 75.9531 303.133 76 303.055 76H297.234ZM308.9 75.6016C308.9 75.513 308.918 75.4453 308.955 75.3984C308.991 75.3516 309.059 75.3229 309.158 75.3125C309.47 75.2865 309.739 75.237 309.963 75.1641C310.186 75.0859 310.298 74.9688 310.298 74.8125V66.3594C310.298 66.1562 310.239 66.0026 310.119 65.8984C309.999 65.7943 309.866 65.7266 309.72 65.6953C309.58 65.6641 309.377 65.6328 309.111 65.6016C308.996 65.5911 308.921 65.5703 308.884 65.5391C308.848 65.5026 308.83 65.4271 308.83 65.3125C308.83 65.2344 308.853 65.1484 308.9 65.0547C308.952 64.9609 309.017 64.9141 309.095 64.9141H318.15L318.423 67.4531C318.429 67.5312 318.39 67.5964 318.306 67.6484C318.223 67.6953 318.142 67.7188 318.064 67.7188C317.783 67.7188 317.595 67.6328 317.502 67.4609C317.434 67.3307 317.324 67.112 317.173 66.8047C317.028 66.5026 316.908 66.2812 316.814 66.1406C316.726 65.9948 316.614 65.8828 316.478 65.8047C316.348 65.7266 316.176 65.6875 315.963 65.6875H312.908V69.9219H314.994C315.119 69.9062 315.239 69.8151 315.353 69.6484C315.468 69.4818 315.564 69.2943 315.642 69.0859C315.72 68.8724 315.767 68.7057 315.783 68.5859C315.804 68.4193 315.923 68.3359 316.142 68.3359C316.22 68.3359 316.311 68.362 316.416 68.4141C316.52 68.4609 316.572 68.5234 316.572 68.6016V72.0625C316.572 72.1406 316.52 72.2057 316.416 72.2578C316.311 72.3047 316.22 72.3281 316.142 72.3281C316.043 72.3281 315.957 72.3099 315.884 72.2734C315.811 72.2318 315.77 72.1641 315.759 72.0703C315.749 71.9401 315.705 71.763 315.627 71.5391C315.548 71.3099 315.449 71.1094 315.33 70.9375C315.21 70.7604 315.082 70.6719 314.947 70.6719H312.908V74.4609C312.908 74.9193 313.145 75.1693 313.619 75.2109H315.877C316.189 75.2109 316.46 75.1432 316.689 75.0078C316.923 74.8724 317.142 74.6536 317.345 74.3516C317.554 74.0495 317.783 73.6276 318.033 73.0859C318.069 73.0026 318.142 72.9401 318.252 72.8984C318.361 72.8516 318.465 72.8281 318.564 72.8281C318.673 72.8281 318.778 72.8516 318.877 72.8984C318.981 72.9453 319.038 73.0104 319.048 73.0938L318.736 76H309.166C309.088 76 309.022 75.9531 308.97 75.8594C308.923 75.7656 308.9 75.6797 308.9 75.6016ZM319.327 76C319.248 76 319.183 75.9531 319.131 75.8594C319.084 75.7656 319.061 75.6797 319.061 75.6016C319.061 75.487 319.079 75.4141 319.116 75.3828C319.152 75.3464 319.228 75.3229 319.342 75.3125C319.644 75.2812 319.907 75.2292 320.131 75.1562C320.355 75.0833 320.564 74.9349 320.756 74.7109L324.045 70.8672L320.639 66.2031C320.488 65.9688 320.308 65.8177 320.1 65.75C319.892 65.6771 319.644 65.6328 319.358 65.6172L319.186 65.6016C319.071 65.5911 318.996 65.5703 318.959 65.5391C318.923 65.5026 318.905 65.4271 318.905 65.3125C318.905 65.2344 318.928 65.1484 318.975 65.0547C319.027 64.9609 319.092 64.9141 319.17 64.9141H324.6C324.678 64.9141 324.741 64.9609 324.787 65.0547C324.84 65.1484 324.866 65.2344 324.866 65.3125C324.866 65.401 324.847 65.4688 324.811 65.5156C324.774 65.5625 324.707 65.5911 324.608 65.6016C324.285 65.6172 324.043 65.6354 323.881 65.6562C323.725 65.6771 323.616 65.7083 323.553 65.75C323.491 65.7917 323.459 65.849 323.459 65.9219C323.459 65.9479 323.472 65.9818 323.498 66.0234L325.795 69.1953L328.084 66.1797C328.121 66.1276 328.139 66.0755 328.139 66.0234C328.139 65.9089 328.048 65.8151 327.866 65.7422C327.683 65.6641 327.449 65.6172 327.162 65.6016C327.064 65.5911 326.996 65.5625 326.959 65.5156C326.923 65.4688 326.905 65.401 326.905 65.3125C326.905 65.2344 326.928 65.1484 326.975 65.0547C327.027 64.9609 327.092 64.9141 327.17 64.9141H330.725C330.803 64.9141 330.866 64.9609 330.912 65.0547C330.965 65.1484 330.991 65.2344 330.991 65.3125C330.991 65.4271 330.972 65.5026 330.936 65.5391C330.899 65.5703 330.824 65.5911 330.709 65.6016C330.662 65.6068 330.54 65.6172 330.342 65.6328C330.149 65.6484 329.959 65.7031 329.772 65.7969C329.59 65.8854 329.431 66.0208 329.295 66.2031L326.264 69.8594L329.92 74.7109C330.071 74.9453 330.246 75.099 330.444 75.1719C330.647 75.2396 330.886 75.2812 331.162 75.2969L331.334 75.3125C331.449 75.3229 331.524 75.3464 331.561 75.3828C331.597 75.4141 331.616 75.487 331.616 75.6016C331.616 75.6797 331.59 75.7656 331.537 75.8594C331.491 75.9531 331.428 76 331.35 76H325.842C325.764 76 325.699 75.9531 325.647 75.8594C325.6 75.7656 325.577 75.6797 325.577 75.6016C325.577 75.513 325.595 75.4453 325.631 75.3984C325.668 75.3516 325.735 75.3229 325.834 75.3125C326.194 75.3229 326.485 75.3073 326.709 75.2656C326.939 75.2188 327.053 75.1536 327.053 75.0703C327.053 75.0182 327.037 74.9635 327.006 74.9062C326.98 74.849 326.933 74.7708 326.866 74.6719L324.491 71.4688L321.983 74.7344C321.952 74.7812 321.936 74.8255 321.936 74.8672C321.936 74.987 322.043 75.0885 322.256 75.1719C322.475 75.25 322.743 75.2969 323.061 75.3125C323.16 75.3229 323.228 75.3516 323.264 75.3984C323.301 75.4453 323.319 75.513 323.319 75.6016C323.319 75.6797 323.293 75.7656 323.241 75.8594C323.194 75.9531 323.131 76 323.053 76H319.327ZM332.128 76C332.05 76 331.985 75.9531 331.933 75.8594C331.886 75.7656 331.863 75.6797 331.863 75.6016C331.863 75.513 331.881 75.4453 331.917 75.3984C331.954 75.3516 332.021 75.3229 332.12 75.3125C332.782 75.2604 333.113 75.0938 333.113 74.8125V66.3594C333.113 66.151 333.058 65.9948 332.948 65.8906C332.839 65.7865 332.714 65.7214 332.573 65.6953C332.438 65.6641 332.245 65.6328 331.995 65.6016C331.881 65.5911 331.805 65.5703 331.769 65.5391C331.732 65.5026 331.714 65.4271 331.714 65.3125C331.714 65.2344 331.738 65.1484 331.784 65.0547C331.836 64.9609 331.902 64.9141 331.98 64.9141H334.284C334.722 64.9141 335.316 64.8984 336.066 64.8672C336.711 64.8464 337.154 64.8359 337.394 64.8359C340.274 64.8359 341.714 65.9271 341.714 68.1094C341.714 68.8281 341.553 69.4531 341.23 69.9844C340.907 70.5104 340.404 70.9219 339.722 71.2188C339.045 71.5156 338.191 71.6641 337.159 71.6641H335.73V74.5547C335.73 74.7578 335.829 74.9141 336.027 75.0234C336.23 75.1276 336.446 75.1979 336.675 75.2344C336.909 75.2656 337.198 75.2917 337.542 75.3125C337.657 75.3229 337.732 75.3464 337.769 75.3828C337.805 75.4141 337.823 75.487 337.823 75.6016C337.823 75.6797 337.797 75.7656 337.745 75.8594C337.698 75.9531 337.636 76 337.558 76H332.128ZM336.589 70.9141C337.24 70.9141 337.777 70.7135 338.198 70.3125C338.626 69.9115 338.839 69.2318 338.839 68.2734C338.839 67.5703 338.756 67.026 338.589 66.6406C338.428 66.25 338.185 65.9792 337.863 65.8281C337.54 65.6719 337.115 65.5938 336.589 65.5938H335.73V70.9141H336.589ZM347.898 76.2266C346.727 76.2266 345.701 75.9688 344.82 75.4531C343.94 74.9323 343.263 74.2292 342.789 73.3438C342.32 72.4583 342.086 71.4792 342.086 70.4062C342.086 69.3333 342.32 68.362 342.789 67.4922C343.258 66.6224 343.932 65.9375 344.812 65.4375C345.693 64.9323 346.721 64.6797 347.898 64.6797C349.076 64.6797 350.104 64.9323 350.984 65.4375C351.865 65.9375 352.539 66.6224 353.008 67.4922C353.482 68.362 353.719 69.3333 353.719 70.4062C353.719 71.4792 353.482 72.4583 353.008 73.3438C352.534 74.2292 351.857 74.9323 350.977 75.4531C350.096 75.9688 349.07 76.2266 347.898 76.2266ZM347.93 75.4922C348.888 75.4922 349.594 75.0547 350.047 74.1797C350.5 73.2995 350.727 72.0469 350.727 70.4219C350.727 68.8073 350.492 67.5677 350.023 66.7031C349.56 65.8385 348.846 65.4062 347.883 65.4062C346.919 65.4062 346.208 65.8385 345.75 66.7031C345.297 67.5625 345.07 68.8021 345.07 70.4219C345.07 72.0365 345.305 73.2865 345.773 74.1719C346.247 75.0521 346.966 75.4922 347.93 75.4922ZM354.794 76C354.716 76 354.651 75.9531 354.598 75.8594C354.552 75.7656 354.528 75.6797 354.528 75.6016C354.528 75.513 354.546 75.4453 354.583 75.3984C354.619 75.3516 354.687 75.3229 354.786 75.3125C355.494 75.2552 355.848 75.0885 355.848 74.8125L355.856 66.3594C355.856 66.151 355.802 65.9948 355.692 65.8906C355.583 65.7865 355.458 65.7214 355.317 65.6953C355.182 65.6641 354.989 65.6328 354.739 65.6016C354.624 65.5911 354.549 65.5703 354.512 65.5391C354.476 65.5026 354.458 65.4271 354.458 65.3125C354.458 65.2344 354.481 65.1484 354.528 65.0547C354.58 64.9609 354.645 64.9141 354.723 64.9141L355.575 64.9062C355.716 64.901 355.929 64.8984 356.216 64.8984C356.497 64.8984 357.018 64.888 357.778 64.8672C358.664 64.8464 359.377 64.8359 359.919 64.8359C361.356 64.8359 362.455 65.0781 363.216 65.5625C363.981 66.0469 364.364 66.7917 364.364 67.7969C364.364 68.4531 364.234 68.987 363.973 69.3984C363.713 69.8099 363.377 70.125 362.966 70.3438C362.559 70.5625 362.072 70.7448 361.505 70.8906C361.973 70.9375 362.354 71.0651 362.645 71.2734C362.942 71.4818 363.174 71.7266 363.341 72.0078C363.507 72.2891 363.692 72.6693 363.895 73.1484C364.031 73.4557 364.137 73.6979 364.216 73.875C364.299 74.0469 364.395 74.2188 364.505 74.3906C364.671 74.7083 364.841 74.9349 365.012 75.0703C365.19 75.2057 365.385 75.2839 365.598 75.3047C365.708 75.3151 365.781 75.3438 365.817 75.3906C365.859 75.4375 365.88 75.5208 365.88 75.6406C365.88 75.7135 365.854 75.7917 365.802 75.875C365.755 75.9583 365.692 76 365.614 76H362.95C362.674 76 362.44 75.8984 362.247 75.6953C362.054 75.4922 361.895 75.2422 361.77 74.9453C361.651 74.6484 361.51 74.2422 361.348 73.7266C361.171 73.1536 361.01 72.6953 360.864 72.3516C360.718 72.0078 360.52 71.7161 360.27 71.4766C360.026 71.237 359.721 71.1172 359.356 71.1172H358.427V74.5547C358.427 74.763 358.492 74.9219 358.622 75.0312C358.752 75.1354 358.906 75.2031 359.083 75.2344C359.26 75.2656 359.484 75.2917 359.755 75.3125C359.869 75.3229 359.945 75.3464 359.981 75.3828C360.018 75.4141 360.036 75.487 360.036 75.6016C360.036 75.6797 360.01 75.7656 359.958 75.8594C359.911 75.9531 359.848 76 359.77 76H354.794ZM359.552 70.4453C360.244 70.4453 360.776 70.263 361.145 69.8984C361.52 69.5286 361.708 68.9089 361.708 68.0391C361.708 67.2318 361.528 66.6224 361.169 66.2109C360.815 65.7995 360.268 65.5938 359.528 65.5938H358.427V70.4453H359.552ZM368.244 76C368.166 76 368.101 75.9531 368.048 75.8594C368.002 75.7656 367.978 75.6797 367.978 75.6016C367.978 75.513 367.996 75.4453 368.033 75.3984C368.069 75.3516 368.137 75.3229 368.236 75.3125C368.71 75.2865 369.095 75.224 369.392 75.125C369.694 75.0208 369.845 74.8385 369.845 74.5781V65.6875H367.892C367.621 65.6875 367.397 65.8464 367.22 66.1641C367.048 66.4766 366.921 66.8255 366.838 67.2109C366.759 67.5964 366.71 67.9245 366.689 68.1953C366.679 68.2839 366.627 68.349 366.533 68.3906C366.444 68.4323 366.348 68.4531 366.244 68.4531C366.166 68.4531 366.08 68.4297 365.986 68.3828C365.892 68.3307 365.845 68.2656 365.845 68.1875C365.871 67.4062 365.903 66.6667 365.939 65.9688C365.981 65.2656 366.028 64.9141 366.08 64.9141H376.134C376.186 64.9141 376.231 65.2656 376.267 65.9688C376.309 66.6667 376.343 67.4062 376.369 68.1875C376.369 68.2656 376.322 68.3307 376.228 68.3828C376.134 68.4297 376.048 68.4531 375.97 68.4531C375.866 68.4531 375.767 68.4323 375.673 68.3906C375.585 68.349 375.535 68.2839 375.525 68.1953C375.463 67.6328 375.343 67.0755 375.166 66.5234C374.989 65.9661 374.707 65.6875 374.322 65.6875H372.47V74.5547C372.47 74.763 372.551 74.9193 372.713 75.0234C372.874 75.1276 373.059 75.1979 373.267 75.2344C373.476 75.2656 373.736 75.2917 374.048 75.3125C374.163 75.3229 374.239 75.3464 374.275 75.3828C374.311 75.4141 374.33 75.487 374.33 75.6016C374.33 75.6797 374.304 75.7656 374.252 75.8594C374.205 75.9531 374.142 76 374.064 76H368.244ZM383.464 76.2344C382.662 76.2344 381.951 76.1172 381.331 75.8828C380.711 75.6432 380.227 75.2943 379.878 74.8359C379.529 74.3724 379.355 73.8203 379.355 73.1797C379.355 72.6901 379.48 72.2422 379.73 71.8359C379.98 71.4245 380.318 71.0703 380.745 70.7734C381.178 70.4766 381.665 70.2448 382.206 70.0781C381.779 69.6042 381.446 69.138 381.206 68.6797C380.972 68.2161 380.855 67.7292 380.855 67.2188C380.855 66.6562 381.019 66.1797 381.347 65.7891C381.675 65.3932 382.105 65.099 382.636 64.9062C383.167 64.7083 383.74 64.6094 384.355 64.6094C385.396 64.6094 386.175 64.7969 386.691 65.1719C387.211 65.5469 387.472 66.0885 387.472 66.7969C387.472 67.2031 387.352 67.5807 387.113 67.9297C386.873 68.2734 386.581 68.5781 386.238 68.8438C385.894 69.1042 385.485 69.3776 385.011 69.6641L387.972 72.7812C388.409 72.026 388.639 71.4427 388.659 71.0312C388.685 70.6198 388.698 70.4062 388.698 70.3906C388.709 69.9583 388.31 69.6979 387.503 69.6094C387.404 69.599 387.339 69.5703 387.308 69.5234C387.282 69.4714 387.269 69.3932 387.269 69.2891C387.269 69.2109 387.292 69.1432 387.339 69.0859C387.386 69.0286 387.448 69 387.527 69H391.066C391.149 69 391.214 69.0312 391.261 69.0938C391.308 69.1562 391.334 69.2318 391.339 69.3203C391.329 69.513 391.24 69.6094 391.073 69.6094C390.844 69.6094 390.628 69.6849 390.425 69.8359C390.227 69.9818 390.084 70.1849 389.995 70.4453C389.855 70.8724 389.73 71.2266 389.62 71.5078C389.516 71.7891 389.365 72.0964 389.167 72.4297C388.974 72.7578 388.738 73.0443 388.456 73.2891L389.488 74.3438C389.748 74.6042 390.037 74.8385 390.355 75.0469C390.678 75.25 390.998 75.3646 391.316 75.3906C391.43 75.401 391.506 75.4245 391.542 75.4609C391.579 75.4922 391.597 75.5651 391.597 75.6797C391.597 75.763 391.573 75.8385 391.527 75.9062C391.48 75.9688 391.415 76 391.331 76H387.683L386.714 74.9922C386.282 75.3516 385.774 75.6484 385.191 75.8828C384.613 76.1172 384.037 76.2344 383.464 76.2344ZM384.425 69.0312C384.951 68.7604 385.305 68.4271 385.488 68.0312C385.675 67.6302 385.769 67.2318 385.769 66.8359C385.769 66.638 385.719 66.4193 385.62 66.1797C385.527 65.9401 385.386 65.7344 385.198 65.5625C385.016 65.3906 384.795 65.3047 384.534 65.3047C384.097 65.3047 383.771 65.4089 383.558 65.6172C383.344 65.8255 383.238 66.1406 383.238 66.5625C383.238 66.9115 383.282 67.2188 383.37 67.4844C383.464 67.7448 383.586 67.9792 383.738 68.1875C383.889 68.3958 384.118 68.6771 384.425 69.0312ZM384.261 74.9062C384.626 74.9062 384.985 74.8672 385.339 74.7891C385.698 74.7057 385.995 74.5859 386.23 74.4297L382.886 70.8203C382.62 71.0339 382.415 71.2891 382.269 71.5859C382.123 71.8828 382.05 72.2474 382.05 72.6797C382.05 73.1432 382.141 73.5417 382.323 73.875C382.511 74.2083 382.769 74.4635 383.097 74.6406C383.43 74.8177 383.818 74.9062 384.261 74.9062ZM399.848 76.2344C399.348 76.2344 398.903 76.1849 398.512 76.0859C398.122 75.987 397.825 75.8984 397.622 75.8203C397.424 75.7422 397.304 75.6953 397.262 75.6797C397.179 75.6484 397.08 75.6042 396.966 75.5469C396.95 75.5417 396.916 75.526 396.864 75.5C396.812 75.474 396.765 75.4609 396.723 75.4609C396.666 75.4609 396.617 75.4766 396.575 75.5078C396.539 75.5391 396.494 75.5833 396.442 75.6406C396.338 75.7604 396.239 75.8438 396.145 75.8906C396.057 75.9375 395.963 75.9609 395.864 75.9609C395.729 75.9609 395.622 75.9271 395.544 75.8594C395.466 75.7865 395.429 75.6953 395.434 75.5859C395.445 75.4714 395.45 75.3542 395.45 75.2344V74.9219C395.45 74.5729 395.437 74.2214 395.411 73.8672C395.39 73.513 395.377 73.3073 395.372 73.25C395.346 72.9271 395.333 72.7057 395.333 72.5859C395.333 72.2214 395.484 72.0391 395.786 72.0391C396.036 72.0391 396.192 72.1484 396.255 72.3672C396.312 72.5859 396.38 72.8021 396.458 73.0156C396.536 73.2292 396.645 73.4583 396.786 73.7031C397.104 74.25 397.541 74.6901 398.098 75.0234C398.656 75.3568 399.26 75.5234 399.911 75.5234C400.213 75.5234 400.494 75.4714 400.755 75.3672C401.015 75.263 401.223 75.1068 401.38 74.8984C401.541 74.6849 401.622 74.4271 401.622 74.125C401.622 73.7083 401.507 73.3464 401.278 73.0391C401.049 72.7266 400.77 72.4635 400.442 72.25C400.119 72.0312 399.682 71.7786 399.13 71.4922L398.637 71.2344C397.971 70.8802 397.44 70.5729 397.044 70.3125C396.653 70.0469 396.309 69.7031 396.012 69.2812C395.721 68.8594 395.575 68.3568 395.575 67.7734C395.575 67.1641 395.742 66.625 396.075 66.1562C396.414 65.6875 396.882 65.3255 397.481 65.0703C398.085 64.8151 398.773 64.6875 399.544 64.6875C399.945 64.6875 400.281 64.7135 400.552 64.7656C400.828 64.8177 401.096 64.888 401.356 64.9766C401.382 64.987 401.455 65.0104 401.575 65.0469C401.7 65.0781 401.809 65.0938 401.903 65.0938C401.981 65.0938 402.039 65.0833 402.075 65.0625C402.117 65.0417 402.158 65.0104 402.2 64.9688C402.247 64.9219 402.286 64.888 402.317 64.8672C402.374 64.8307 402.447 64.8125 402.536 64.8125C402.671 64.8125 402.796 64.8438 402.911 64.9062C403.031 64.9635 403.091 65.0312 403.091 65.1094C403.096 65.375 403.117 65.7031 403.153 66.0938C403.19 66.4844 403.213 66.737 403.223 66.8516C403.265 67.1953 403.286 67.4167 403.286 67.5156C403.286 67.6771 403.239 67.7943 403.145 67.8672C403.057 67.9349 402.94 67.9688 402.794 67.9688C402.606 67.9688 402.476 67.9089 402.403 67.7891C402.601 68.1849 402.572 68.0599 402.317 67.4141C402.067 66.7682 401.739 66.2682 401.333 65.9141C400.932 65.5547 400.374 65.375 399.661 65.375C399.124 65.375 398.671 65.4844 398.302 65.7031C397.937 65.9167 397.755 66.2578 397.755 66.7266C397.755 67.1224 397.887 67.4818 398.153 67.8047C398.419 68.1224 398.742 68.3984 399.122 68.6328C399.507 68.8672 399.997 69.1328 400.591 69.4297C401.289 69.7734 401.867 70.099 402.325 70.4062C402.789 70.7083 403.177 71.0755 403.489 71.5078C403.807 71.9401 403.966 72.4427 403.966 73.0156C403.966 73.6615 403.778 74.2292 403.403 74.7188C403.033 75.2031 402.533 75.5781 401.903 75.8438C401.278 76.1042 400.593 76.2344 399.848 76.2344ZM415.837 75.3125C415.952 75.3229 416.028 75.3464 416.064 75.3828C416.101 75.4141 416.119 75.487 416.119 75.6016C416.119 75.6797 416.093 75.7656 416.041 75.8594C415.994 75.9531 415.931 76 415.853 76H410.994C410.916 76 410.851 75.9531 410.798 75.8594C410.752 75.7656 410.728 75.6797 410.728 75.6016C410.728 75.513 410.746 75.4453 410.783 75.3984C410.819 75.3516 410.887 75.3229 410.986 75.3125L411.298 75.2969C411.554 75.2917 411.731 75.2786 411.83 75.2578C411.929 75.2318 411.978 75.1771 411.978 75.0938C411.978 75.0573 411.97 75.0156 411.955 74.9688L410.978 72.2734L407.236 72.2656L406.267 74.9688C406.252 75.0052 406.244 75.0391 406.244 75.0703C406.244 75.1641 406.309 75.224 406.439 75.25C406.569 75.276 406.778 75.2917 407.064 75.2969L407.392 75.3125C407.491 75.3229 407.559 75.3516 407.595 75.3984C407.632 75.4453 407.65 75.513 407.65 75.6016C407.65 75.6797 407.624 75.7656 407.572 75.8594C407.525 75.9531 407.462 76 407.384 76H404.08C403.996 76 403.931 75.9609 403.884 75.8828C403.837 75.8047 403.814 75.7109 403.814 75.6016C403.814 75.487 403.832 75.4141 403.869 75.3828C403.905 75.3464 403.981 75.3229 404.095 75.3125C404.137 75.3073 404.205 75.3047 404.298 75.3047C404.46 75.2995 404.595 75.2865 404.705 75.2656C404.819 75.2396 404.929 75.1849 405.033 75.1016C405.137 75.013 405.223 74.8828 405.291 74.7109L409.041 64.7422H410.869L414.58 74.7109C414.647 74.888 414.736 75.0208 414.845 75.1094C414.955 75.1927 415.067 75.2448 415.181 75.2656C415.296 75.2865 415.439 75.2995 415.611 75.3047C415.715 75.3047 415.791 75.3073 415.837 75.3125ZM409.275 66.7031L407.455 71.6016H410.744L409.275 66.7031ZM416.373 76C416.295 76 416.23 75.9531 416.178 75.8594C416.131 75.7656 416.108 75.6797 416.108 75.6016C416.108 75.513 416.126 75.4453 416.163 75.3984C416.199 75.3516 416.267 75.3229 416.366 75.3125C416.652 75.2917 416.913 75.2292 417.147 75.125C417.381 75.0208 417.498 74.8906 417.498 74.7344V66.3594C417.498 66.151 417.441 65.9948 417.327 65.8906C417.217 65.7812 417.082 65.7109 416.92 65.6797C416.764 65.6432 416.561 65.6172 416.311 65.6016C416.196 65.5911 416.121 65.5703 416.084 65.5391C416.048 65.5026 416.03 65.4271 416.03 65.3125C416.03 65.2344 416.053 65.1484 416.1 65.0547C416.152 64.9609 416.217 64.9141 416.295 64.9141H421.647C421.725 64.9141 421.788 64.9609 421.834 65.0547C421.886 65.1484 421.913 65.2344 421.913 65.3125C421.913 65.5052 421.827 65.6016 421.655 65.6016C421.17 65.6016 420.798 65.6562 420.538 65.7656C420.282 65.875 420.155 66.0651 420.155 66.3359V74.6172C420.155 74.8516 420.215 75.0104 420.334 75.0938C420.454 75.1719 420.626 75.2109 420.85 75.2109H422.991C423.22 75.2109 423.454 75.0755 423.694 74.8047C423.939 74.5339 424.165 74.1953 424.373 73.7891C424.582 73.3828 424.754 72.974 424.889 72.5625C424.915 72.4792 424.996 72.4167 425.131 72.375C425.272 72.3281 425.397 72.3047 425.506 72.3047C425.621 72.3047 425.725 72.3281 425.819 72.375C425.918 72.4219 425.962 72.487 425.952 72.5703L425.491 76H416.373ZM426.269 75.6016C426.269 75.513 426.287 75.4453 426.323 75.3984C426.36 75.3516 426.428 75.3229 426.527 75.3125C426.839 75.2865 427.107 75.237 427.331 75.1641C427.555 75.0859 427.667 74.9688 427.667 74.8125V66.3594C427.667 66.1562 427.607 66.0026 427.488 65.8984C427.368 65.7943 427.235 65.7266 427.089 65.6953C426.948 65.6641 426.745 65.6328 426.48 65.6016C426.365 65.5911 426.29 65.5703 426.253 65.5391C426.217 65.5026 426.198 65.4271 426.198 65.3125C426.198 65.2344 426.222 65.1484 426.269 65.0547C426.321 64.9609 426.386 64.9141 426.464 64.9141H435.519L435.792 67.4531C435.797 67.5312 435.758 67.5964 435.675 67.6484C435.592 67.6953 435.511 67.7188 435.433 67.7188C435.152 67.7188 434.964 67.6328 434.87 67.4609C434.803 67.3307 434.693 67.112 434.542 66.8047C434.396 66.5026 434.277 66.2812 434.183 66.1406C434.094 65.9948 433.982 65.8828 433.847 65.8047C433.717 65.7266 433.545 65.6875 433.331 65.6875H430.277V69.9219H432.363C432.488 69.9062 432.607 69.8151 432.722 69.6484C432.836 69.4818 432.933 69.2943 433.011 69.0859C433.089 68.8724 433.136 68.7057 433.152 68.5859C433.172 68.4193 433.292 68.3359 433.511 68.3359C433.589 68.3359 433.68 68.362 433.784 68.4141C433.889 68.4609 433.941 68.5234 433.941 68.6016V72.0625C433.941 72.1406 433.889 72.2057 433.784 72.2578C433.68 72.3047 433.589 72.3281 433.511 72.3281C433.412 72.3281 433.326 72.3099 433.253 72.2734C433.18 72.2318 433.139 72.1641 433.128 72.0703C433.118 71.9401 433.073 71.763 432.995 71.5391C432.917 71.3099 432.818 71.1094 432.698 70.9375C432.579 70.7604 432.451 70.6719 432.316 70.6719H430.277V74.4609C430.277 74.9193 430.514 75.1693 430.988 75.2109H433.245C433.558 75.2109 433.829 75.1432 434.058 75.0078C434.292 74.8724 434.511 74.6536 434.714 74.3516C434.922 74.0495 435.152 73.6276 435.402 73.0859C435.438 73.0026 435.511 72.9401 435.62 72.8984C435.73 72.8516 435.834 72.8281 435.933 72.8281C436.042 72.8281 436.146 72.8516 436.245 72.8984C436.349 72.9453 436.407 73.0104 436.417 73.0938L436.105 76H426.534C426.456 76 426.391 75.9531 426.339 75.8594C426.292 75.7656 426.269 75.6797 426.269 75.6016ZM441.695 76.2344C441.195 76.2344 440.75 76.1849 440.359 76.0859C439.969 75.987 439.672 75.8984 439.469 75.8203C439.271 75.7422 439.151 75.6953 439.109 75.6797C439.026 75.6484 438.927 75.6042 438.812 75.5469C438.797 75.5417 438.763 75.526 438.711 75.5C438.659 75.474 438.612 75.4609 438.57 75.4609C438.513 75.4609 438.464 75.4766 438.422 75.5078C438.385 75.5391 438.341 75.5833 438.289 75.6406C438.185 75.7604 438.086 75.8438 437.992 75.8906C437.904 75.9375 437.81 75.9609 437.711 75.9609C437.576 75.9609 437.469 75.9271 437.391 75.8594C437.312 75.7865 437.276 75.6953 437.281 75.5859C437.292 75.4714 437.297 75.3542 437.297 75.2344V74.9219C437.297 74.5729 437.284 74.2214 437.258 73.8672C437.237 73.513 437.224 73.3073 437.219 73.25C437.193 72.9271 437.18 72.7057 437.18 72.5859C437.18 72.2214 437.331 72.0391 437.633 72.0391C437.883 72.0391 438.039 72.1484 438.102 72.3672C438.159 72.5859 438.227 72.8021 438.305 73.0156C438.383 73.2292 438.492 73.4583 438.633 73.7031C438.951 74.25 439.388 74.6901 439.945 75.0234C440.503 75.3568 441.107 75.5234 441.758 75.5234C442.06 75.5234 442.341 75.4714 442.602 75.3672C442.862 75.263 443.07 75.1068 443.227 74.8984C443.388 74.6849 443.469 74.4271 443.469 74.125C443.469 73.7083 443.354 73.3464 443.125 73.0391C442.896 72.7266 442.617 72.4635 442.289 72.25C441.966 72.0312 441.529 71.7786 440.977 71.4922L440.484 71.2344C439.818 70.8802 439.286 70.5729 438.891 70.3125C438.5 70.0469 438.156 69.7031 437.859 69.2812C437.568 68.8594 437.422 68.3568 437.422 67.7734C437.422 67.1641 437.589 66.625 437.922 66.1562C438.26 65.6875 438.729 65.3255 439.328 65.0703C439.932 64.8151 440.62 64.6875 441.391 64.6875C441.792 64.6875 442.128 64.7135 442.398 64.7656C442.674 64.8177 442.943 64.888 443.203 64.9766C443.229 64.987 443.302 65.0104 443.422 65.0469C443.547 65.0781 443.656 65.0938 443.75 65.0938C443.828 65.0938 443.885 65.0833 443.922 65.0625C443.964 65.0417 444.005 65.0104 444.047 64.9688C444.094 64.9219 444.133 64.888 444.164 64.8672C444.221 64.8307 444.294 64.8125 444.383 64.8125C444.518 64.8125 444.643 64.8438 444.758 64.9062C444.878 64.9635 444.938 65.0312 444.938 65.1094C444.943 65.375 444.964 65.7031 445 66.0938C445.036 66.4844 445.06 66.737 445.07 66.8516C445.112 67.1953 445.133 67.4167 445.133 67.5156C445.133 67.6771 445.086 67.7943 444.992 67.8672C444.904 67.9349 444.786 67.9688 444.641 67.9688C444.453 67.9688 444.323 67.9089 444.25 67.7891C444.448 68.1849 444.419 68.0599 444.164 67.4141C443.914 66.7682 443.586 66.2682 443.18 65.9141C442.779 65.5547 442.221 65.375 441.508 65.375C440.971 65.375 440.518 65.4844 440.148 65.7031C439.784 65.9167 439.602 66.2578 439.602 66.7266C439.602 67.1224 439.734 67.4818 440 67.8047C440.266 68.1224 440.589 68.3984 440.969 68.6328C441.354 68.8672 441.844 69.1328 442.438 69.4297C443.135 69.7734 443.714 70.099 444.172 70.4062C444.635 70.7083 445.023 71.0755 445.336 71.5078C445.654 71.9401 445.812 72.4427 445.812 73.0156C445.812 73.6615 445.625 74.2292 445.25 74.7188C444.88 75.2031 444.38 75.5781 443.75 75.8438C443.125 76.1042 442.44 76.2344 441.695 76.2344Z" fill="black"/>
</svg>
